{
.appVersion = "930";
copyright = "Font data copyright Google 2017";
customParameters = (
{
name = license;
value = "This Font Software is licensed under the SIL Open Font License, Version 1.1. This license is available with a FAQ at: http://scripts.sil.org/OFL";
},
{
name = licenseURL;
value = "http://scripts.sil.org/OFL";
},
{
name = vendorID;
value = GOOG;
},
{
name = note;

glyphs = (
{
glyphname = A;
layers = (
{
layerId = "44398CD6-F961-4ECB-B01A-EEBF1DAB2450";
paths = (
{
closed = 1;
nodes = (
"356 284 LINE",
"300 293 LINE",
"263 294 LINE",
"244 292 LINE",
"227 290 LINE",
"205 298 LINE",
"203 304 LINE",
"216 312 LINE",
"226 325 LINE",
"225 366 LINE",
"247 405 LINE",
"247 442 LINE",
"266 468 LINE",
"280 505 LINE",
"282 520 LINE",
"286 531 LINE",
"301 548 LINE",
"303 544 LINE",
"318 509 LINE",
"323 500 LINE",
"323 466 LINE",
"346 444 LINE",
"359 412 LINE",
"364 390 LINE",
"371 350 LINE",
"376 332 LINE",
"408 288 LINE",
"398 283 LINE",
"368 284 LINE",
"362 285 LINE"
);
},
{
closed = 1;
nodes = (
"127 79 LINE",
"132 101 LINE",
"136 114 LINE",
"160 167 LINE",
"169 187 LINE",
"176 200 LINE",
"204 209 LINE",
"231 208 LINE",
"255 210 LINE",
"269 211 LINE",
"325 205 LINE",
"346 203 LINE",
"374 202 LINE",
"395 193 LINE",
"423 199 LINE",
"431 188 LINE",
"446 166 LINE",
"466 104 LINE",
"481 74 LINE",
"479 26 LINE",
"506 4 LINE",
"560 48 LINE",
"564 75 LINE",
"567 96 LINE",
"559 115 LINE",
"545 128 LINE",
"531 157 LINE",
"528 180 LINE",
"503 229 LINE",
"502 263 LINE",
"496 280 LINE",
"492 297 LINE",
"479 331 LINE",
"455 357 LINE",
"450 372 LINE",
"443 414 LINE",
"439 432 LINE",
"426 469 LINE",
"407 503 LINE",
"399 531 LINE",
"385 558 LINE",
"383 560 LINE",
"373 590 LINE",
"362 620 LINE",
"347 651 LINE",
"344 658 LINE",
"287 696 LINE",
"257 670 LINE",
"238 629 LINE",
"228 616 LINE",
"224 589 LINE",
"212 567 LINE",
"202 540 LINE",
"198 514 LINE",
"197 513 LINE",
"170 470 LINE",
"162 447 LINE",
"167 427 LINE",
"142 388 LINE",
"139 360 LINE",
"127 338 LINE",
"118 316 LINE",
"121 292 LINE",
"116 281 LINE",
"92 218 LINE",
"75 204 LINE",
"67 172 LINE",
"51 118 LINE",
"47 100 LINE",
"70 40 LINE"
);
}
);
width = 609;
}
);
note = A;
unicode = 0041;
},
{
glyphname = AE;
layers = (
{
layerId = "44398CD6-F961-4ECB-B01A-EEBF1DAB2450";
paths = (
{
closed = 1;
nodes = (
"725 118 LINE",
"683 110 LINE",
"620 109 LINE",
"605 105 LINE",
"598 101 LINE",
"589 102 LINE",
"551 94 LINE",
"527 92 LINE",
"500 95 LINE",
"489 113 LINE",
"487 149 LINE",
"485 177 LINE",
"481 223 LINE",
"475 262 LINE",
"476 299 LINE",
"473 317 LINE",
"480 330 LINE",
"522 329 LINE",
"602 334 LINE",
"635 336 LINE",
"651 329 LINE",
"668 333 LINE",
"699 330 LINE",
"733 339 LINE",
"754 392 LINE",
"706 421 LINE",
"675 415 LINE",
"631 417 LINE",
"585 414 LINE",
"532 415 LINE",
"487 416 LINE",
"462 413 LINE",
"461 456 LINE",
"458 499 LINE",
"452 545 LINE",
"445 593 LINE",
"468 586 LINE",
"491 589 LINE",
"551 590 LINE",
"587 588 LINE",
"639 593 LINE",
"689 590 LINE",
"712 596 LINE",
"736 590 LINE",
"774 639 LINE",
"694 676 LINE",
"672 667 LINE",
"654 674 LINE",
"591 670 LINE",
"538 674 LINE",
"476 670 LINE",
"424 679 LINE",
"374 683 LINE",
"341 643 LINE",
"328 609 LINE",
"305 565 LINE",
"295 541 LINE",
"280 519 LINE",
"255 482 LINE",
"246 460 LINE",
"232 440 LINE",
"224 418 LINE",
"211 397 LINE",
"188 347 LINE",
"175 329 LINE",
"167 306 LINE",
"135 259 LINE",
"129 238 LINE",
"114 220 LINE",
"105 200 LINE",
"91 180 LINE",
"86 160 LINE",
"72 146 LINE",
"65 124 LINE",
"51 102 LINE",
"58 18 LINE",
"110 27 LINE",
"130 72 LINE",
"141 98 LINE",
"160 122 LINE",
"181 162 LINE",
"190 171 LINE",
"208 170 LINE",
"273 172 LINE",
"335 175 LINE",
"401 180 LINE",
"399 143 LINE",
"406 102 LINE",
"417 72 LINE",
"410 35 LINE",
"458 0 LINE",
"478 3 LINE",
"494 3 LINE",
"513 8 LINE",
"535 9 LINE",
"585 17 LINE",
"619 20 LINE",
"633 25 LINE",
"649 23 LINE",
"671 29 LINE",
"686 28 LINE",
"729 31 LINE",
"763 40 LINE",
"788 81 LINE"
);
},
{
closed = 1;
nodes = (
"334 260 LINE",
"321 262 LINE",
"297 251 LINE",
"269 256 LINE",
"235 261 LINE",
"247 290 LINE",
"265 315 LINE",
"281 352 LINE",
"286 364 LINE",
"296 376 LINE",
"311 403 LINE",
"329 439 LINE",
"369 505 LINE",
"372 481 LINE",
"375 468 LINE",
"375 447 LINE",
"380 434 LINE",
"382 391 LINE",
"380 369 LINE",
"384 349 LINE",
"391 312 LINE",
"389 273 LINE",
"379 258 LINE",
"352 263 LINE"
);
}
);
width = 834;
}
);
unicode = 00C6;
},
{
glyphname = B;
layers = (
{
layerId = "44398CD6-F961-4ECB-B01A-EEBF1DAB2450";
paths = (
{
closed = 1;
nodes = (
"200 85 LINE",
"198 85 LINE",
"184 134 LINE",
"177 181 LINE",
"186 212 LINE",
"173 245 LINE",
"173 253 LINE",
"184 254 LINE",
"222 250 LINE",
"258 269 LINE",
"299 260 LINE",
"328 279 LINE",
"375 275 LINE",
"389 269 LINE",
"406 254 LINE",
"419 229 LINE",
"432 210 LINE",
"432 197 LINE",
"432 192 LINE",
"423 170 LINE",
"403 133 LINE",
"400 130 LINE",
"363 117 LINE",
"322 96 LINE",
"312 91 LINE",
"271 95 LINE",
"246 101 LINE"
);
},
{
closed = 1;
nodes = (
"217 549 LINE",
"241 556 LINE",
"298 540 LINE",
"318 534 LINE",
"352 518 LINE",
"370 511 LINE",
"394 494 LINE",
"406 462 LINE",
"404 415 LINE",
"370 396 LINE",
"348 398 LINE",
"326 386 LINE",
"308 385 LINE",
"278 376 LINE",
"270 374 LINE",
"222 350 LINE",
"221 350 LINE",
"169 354 LINE",
"172 381 LINE",
"168 407 LINE",
"168 450 LINE",
"155 486 LINE",
"154 494 LINE",
"161 535 LINE",
"164 551 LINE",
"178 552 LINE",
"193 545 LINE"
);
},
{
closed = 1;
nodes = (
"462 75 LINE",
"490 104 LINE",
"493 125 LINE",
"500 144 LINE",
"505 159 LINE",
"513 192 LINE",
"515 210 LINE",
"522 225 LINE",
"485 277 LINE",
"463 317 LINE",
"432 337 LINE",
"439 342 LINE",
"474 369 LINE",
"487 417 LINE",
"474 522 LINE",
"457 551 LINE",
"443 566 LINE",
"432 571 LINE",
"425 582 LINE",
"403 595 LINE",
"380 595 LINE",
"322 619 LINE",
"289 622 LINE",
"265 631 LINE",
"211 631 LINE",
"164 639 LINE",
"149 646 LINE",
"138 659 LINE",
"104 666 LINE",
"72 622 LINE",
"73 583 LINE",
"75 578 LINE",
"73 562 LINE",
"77 523 LINE",
"75 499 LINE",
"77 467 LINE",
"86 434 LINE",
"78 402 LINE",
"90 378 LINE",
"81 341 LINE",
"92 298 LINE",
"92 235 LINE",
"100 209 LINE",
"95 188 LINE",
"96 149 LINE",
"100 108 LINE",
"130 51 LINE",
"179 4 LINE",
"193 3 LINE",
"241 12 LINE",
"298 8 LINE",
"334 15 LINE",
"372 30 LINE",
"419 47 LINE",
"439 52 LINE"
);
}
);
width = 606;
}
);
note = B;
unicode = 0042;
},
{
glyphname = C;
layers = (
{
layerId = "44398CD6-F961-4ECB-B01A-EEBF1DAB2450";
paths = (
{
closed = 1;
nodes = (
"422 20 LINE",
"449 21 LINE",
"469 38 LINE",
"476 59 LINE",
"503 69 LINE",
"522 80 LINE",
"543 100 LINE",
"551 125 LINE",
"556 153 LINE",
"568 174 LINE",
"575 209 LINE",
"512 255 LINE",
"495 204 LINE",
"475 180 LINE",
"477 145 LINE",
"476 144 LINE",
"467 138 LINE",
"421 114 LINE",
"406 98 LINE",
"387 91 LINE",
"342 77 LINE",
"331 77 LINE",
"300 75 LINE",
"299 75 LINE",
"276 96 LINE",
"224 116 LINE",
"217 122 LINE",
"201 142 LINE",
"187 170 LINE",
"163 212 LINE",
"148 258 LINE",
"138 325 LINE",
"138 329 LINE",
"145 366 LINE",
"148 379 LINE",
"152 408 LINE",
"148 441 LINE",
"166 481 LINE",
"176 524 LINE",
"180 529 LINE",
"197 546 LINE",
"210 561 LINE",
"229 584 LINE",
"249 602 LINE",
"251 603 LINE",
"291 608 LINE",
"308 614 LINE",
"334 613 LINE",
"340 611 LINE",
"362 605 LINE",
"369 602 LINE",
"393 590 LINE",
"412 569 LINE",
"416 565 LINE",
"426 547 LINE",
"430 538 LINE",
"425 503 LINE",
"439 462 LINE",
"486 421 LINE",
"515 477 LINE",
"511 497 LINE",
"503 508 LINE",
"512 551 LINE",
"503 569 LINE",
"492 587 LINE",
"484 602 LINE",
"463 628 LINE",
"409 668 LINE",
"380 680 LINE",
"366 684 LINE",
"317 693 LINE",
"269 683 LINE",
"215 676 LINE",
"182 645 LINE",
"150 611 LINE",
"139 597 LINE",
"129 587 LINE",
"107 562 LINE",
"96 525 LINE",
"83 485 LINE",
"72 455 LINE",
"75 409 LINE",
"68 371 LINE",
"60 333 LINE",
"70 285 LINE",
"69 245 LINE",
"82 216 LINE",
"90 185 LINE",
"106 155 LINE",
"121 123 LINE",
"135 87 LINE",
"150 79 LINE",
"161 66 LINE",
"223 37 LINE",
"233 32 LINE",
"239 15 LINE",
"258 -1 LINE",
"285 -2 LINE",
"389 10 LINE",
"398 10 LINE"
);
}
);
width = 627;
}
);
note = C;
unicode = 0043;
},
{
glyphname = D;
layers = (
{
layerId = "44398CD6-F961-4ECB-B01A-EEBF1DAB2450";
paths = (
{
closed = 1;
nodes = (
"400 572 LINE",
"438 565 LINE",
"440 563 LINE",
"448 540 LINE",
"474 522 LINE",
"496 499 LINE",
"518 469 LINE",
"529 458 LINE",
"531 438 LINE",
"525 394 LINE",
"519 374 LINE",
"510 331 LINE",
"483 291 LINE",
"482 287 LINE",
"464 279 LINE",
"451 259 LINE",
"412 228 LINE",
"388 199 LINE",
"367 173 LINE",
"347 161 LINE",
"320 126 LINE",
"316 124 LINE",
"294 113 LINE",
"257 104 LINE",
"239 103 LINE",
"231 108 LINE",
"192 128 LINE",
"187 141 LINE",
"187 173 LINE",
"191 213 LINE",
"181 244 LINE",
"181 271 LINE",
"180 286 LINE",
"181 321 LINE",
"182 349 LINE",
"185 399 LINE",
"179 442 LINE",
"178 471 LINE",
"183 514 LINE",
"174 542 LINE",
"184 587 LINE",
"185 596 LINE",
"230 608 LINE",
"255 612 LINE",
"299 600 LINE",
"354 588 LINE",
"359 586 LINE",
"391 575 LINE",
"394 574 LINE"
);
},
{
closed = 1;
nodes = (
"189 682 LINE",
"139 692 LINE",
"111 681 LINE",
"77 644 LINE",
"82 620 LINE",
"102 600 LINE",
"103 584 LINE",
"94 567 LINE",
"88 542 LINE",
"102 503 LINE",
"99 449 LINE",
"100 418 LINE",
"97 380 LINE",
"100 328 LINE",
"99 285 LINE",
"101 263 LINE",
"101 250 LINE",
"109 206 LINE",
"102 157 LINE",
"103 115 LINE",
"107 72 LINE",
"111 36 LINE",
"121 24 LINE",
"135 5 LINE",
"178 -10 LINE",
"196 1 LINE",
"207 17 LINE",
"253 12 LINE",
"299 26 LINE",
"355 50 LINE",
"395 95 LINE",
"442 138 LINE",
"468 169 LINE",
"481 180 LINE",
"529 219 LINE",
"561 266 LINE",
"582 293 LINE",
"592 314 LINE",
"608 380 LINE",
"608 403 LINE",
"612 452 LINE",
"574 528 LINE",
"541 568 LINE",
"516 594 LINE",
"484 635 LINE",
"461 646 LINE",
"433 646 LINE",
"403 654 LINE",
"398 656 LINE",
"366 667 LINE",
"342 670 LINE",
"300 683 LINE",
"269 695 LINE",
"234 690 LINE"
);
}
);
width = 671;
}
);
note = D;
unicode = 0044;
},
{
glyphname = DZcaron;
layers = (
{
annotations = (
{
position = "{-82, 448}";
type = Circle;
width = 617.853;
},
{
position = "{-366, 981}";
text = "The D here is much bigger than other Ds";
type = Text;
},
{
position = "{650, -325}";
type = Arrow;
},
{
angle = 178.028;
position = "{-52.785, -321.76}";
type = Arrow;
},
{
position = "{94, -336}";
text = "The spacing is default/too tight";
type = Text;
}
);
layerId = "44398CD6-F961-4ECB-B01A-EEBF1DAB2450";
paths = (
{
closed = 1;
nodes = (
"269 491 LINE",
"250 556 LINE",
"227 594 LINE",
"182 670 LINE",
"115 692 LINE",
"80 710 LINE",
"15 750 LINE",
"-87 759 LINE",
"-136 751 LINE",
"-170 745 LINE",
"-249 736 LINE",
"-280 728 LINE",
"-304 659 LINE",
"-301 631 LINE",
"-295 586 LINE",
"-295 508 LINE",
"-297 442 LINE",
"-299 389 LINE",
"-296 346 LINE",
"-295 314 LINE",
"-289 259 LINE",
"-287 187 LINE",
"-295 140 LINE",
"-274 92 LINE",
"-258 31 LINE",
"-203 12 LINE",
"-151 1 LINE",
"-114 -5 LINE",
"-85 13 LINE",
"-10 40 LINE",
"14 49 LINE",
"89 61 LINE",
"142 111 LINE",
"198 155 LINE",
"244 203 LINE",
"280 340 LINE",
"304 445 LINE"
);
},
{
closed = 1;
nodes = (
"-72 96 LINE",
"-134 82 LINE",
"-162 84 LINE",
"-191 96 LINE",
"-205 139 LINE",
"-208 163 LINE",
"-199 181 LINE",
"-211 227 LINE",
"-204 292 LINE",
"-212 341 LINE",
"-218 373 LINE",
"-218 411 LINE",
"-215 479 LINE",
"-217 554 LINE",
"-216 618 LINE",
"-214 655 LINE",
"-210 660 LINE",
"-191 663 LINE",
"-141 663 LINE",
"-100 666 LINE",
"-45 686 LINE",
"9 661 LINE",
"60 627 LINE",
"114 607 LINE",
"140 596 LINE",
"161 539 LINE",
"184 494 LINE",
"213 427 LINE",
"228 409 LINE",
"227 404 LINE",
"189 312 LINE",
"182 274 LINE",
"166 236 LINE",
"107 186 LINE",
"40 130 LINE",
"-24 123 LINE"
);
},
{
closed = 1;
nodes = (
"842 634 LINE",
"836 625 LINE",
"806 569 LINE",
"769 526 LINE",
"748 497 LINE",
"713 459 LINE",
"697 419 LINE",
"672 399 LINE",
"622 327 LINE",
"580 265 LINE",
"551 232 LINE",
"533 208 LINE",
"500 165 LINE",
"482 144 LINE",
"474 118 LINE",
"476 118 LINE",
"528 111 LINE",
"574 107 LINE",
"644 115 LINE",
"741 116 LINE",
"815 115 LINE",
"780 42 LINE",
"737 30 LINE",
"691 43 LINE",
"615 35 LINE",
"524 26 LINE",
"477 35 LINE",
"426 32 LINE",
"363 82 LINE",
"362 130 LINE",
"400 167 LINE",
"428 208 LINE",
"453 238 LINE",
"501 301 LINE",
"540 340 LINE",
"587 404 LINE",
"632 480 LINE",
"673 534 LINE",
"689 556 LINE",
"726 600 LINE",
"744 637 LINE",
"718 643 LINE",
"671 629 LINE",
"614 638 LINE",
"557 634 LINE",
"497 636 LINE",
"412 624 LINE",
"315 649 LINE",
"380 701 LINE",
"446 702 LINE",
"539 713 LINE",
"593 722 LINE",
"570 741 LINE",
"505 797 LINE",
"454 861 LINE",
"598 821 LINE",
"619 813 LINE",
"620 814 LINE",
"657 844 LINE",
"696 890 LINE",
"740 817 LINE",
"692 765 LINE",
"621 723 LINE",
"655 712 LINE",
"677 717 LINE",
"741 725 LINE",
"801 730 LINE",
"847 744 LINE",
"886 670 LINE"
);
}
);
width = 600;
}
);
unicode = 01C4;
},
{
glyphname = Eth;
layers = (
{
layerId = "44398CD6-F961-4ECB-B01A-EEBF1DAB2450";
paths = (
{
closed = 1;
nodes = (
"186 391 LINE",
"176 390 LINE",
"135 398 LINE",
"125 398 LINE",
"95 393 LINE",
"59 390 LINE",
"12 395 LINE",
"-16 399 LINE",
"-33 398 LINE",
"-65 390 LINE",
"-75 319 LINE",
"-31 327 LINE",
"-17 327 LINE",
"33 322 LINE",
"49 320 LINE",
"75 320 LINE",
"126 326 LINE",
"140 327 LINE",
"182 318 LINE",
"200 322 LINE",
"212 323 LINE",
"250 384 LINE",
"250 384 LINE"
);
},
{
closed = 1;
nodes = (
"349 577 LINE",
"387 570 LINE",
"389 568 LINE",
"397 545 LINE",
"423 527 LINE",
"446 503 LINE",
"468 473 LINE",
"479 462 LINE",
"481 442 LINE",
"475 397 LINE",
"469 377 LINE",
"469 377 LINE",
"460 334 LINE",
"432 294 LINE",
"431 290 LINE",
"413 281 LINE",
"400 261 LINE",
"361 230 LINE",
"337 201 LINE",
"315 175 LINE",
"295 162 LINE",
"268 127 LINE",
"264 125 LINE",
"242 114 LINE",
"205 105 LINE",
"186 104 LINE",
"178 109 LINE",
"139 129 LINE",
"134 142 LINE",
"134 175 LINE",
"138 215 LINE",
"128 246 LINE",
"128 273 LINE",
"127 289 LINE",
"128 324 LINE",
"129 352 LINE",
"132 402 LINE",
"126 446 LINE",
"125 475 LINE",
"130 518 LINE",
"121 547 LINE",
"131 592 LINE",
"132 601 LINE",
"177 613 LINE",
"203 617 LINE",
"247 605 LINE",
"302 593 LINE",
"307 591 LINE",
"340 580 LINE",
"343 579 LINE"
);
},
{
closed = 1;
nodes = (
"136 688 LINE",
"86 698 LINE",
"57 687 LINE",
"23 650 LINE",
"28 625 LINE",
"48 605 LINE",
"49 589 LINE",
"40 572 LINE",
"34 547 LINE",
"48 507 LINE",
"45 453 LINE",
"46 422 LINE",
"43 383 LINE",
"46 331 LINE",
"45 288 LINE",
"47 265 LINE",
"47 252 LINE",
"55 208 LINE",
"48 158 LINE",
"49 116 LINE",
"53 73 LINE",
"57 36 LINE",
"67 24 LINE",
"81 5 LINE",
"125 -10 LINE",
"143 1 LINE",
"154 17 LINE",
"200 12 LINE",
"247 26 LINE",
"303 51 LINE",
"344 96 LINE",
"391 139 LINE",
"417 171 LINE",
"430 182 LINE",
"479 221 LINE",
"511 268 LINE",
"532 296 LINE",
"542 317 LINE",
"558 383 LINE",
"558 407 LINE",
"563 456 LINE",
"548 511 LINE",
"524 533 LINE",
"491 573 LINE",
"466 599 LINE",
"433 640 LINE",
"410 652 LINE",
"382 652 LINE",
"352 660 LINE",
"347 662 LINE",
"314 673 LINE",
"290 676 LINE",
"248 689 LINE",
"217 701 LINE",
"184 697 LINE",
"181 696 LINE",
"181 696 LINE"
);
}
);
width = 600;
}
);
unicode = 00D0;
},
{
glyphname = Dzcaron;
layers = (
{
layerId = "44398CD6-F961-4ECB-B01A-EEBF1DAB2450";
paths = (
{
closed = 1;
nodes = (
"313 501 LINE",
"301 541 LINE",
"289 580 LINE",
"262 604 LINE",
"204 653 LINE",
"173 684 LINE",
"133 688 LINE",
"57 710 LINE",
"6 715 LINE",
"-25 715 LINE",
"-85 706 LINE",
"-145 686 LINE",
"-224 685 LINE",
"-227 600 LINE",
"-229 581 LINE",
"-221 498 LINE",
"-228 454 LINE",
"-227 409 LINE",
"-229 355 LINE",
"-220 307 LINE",
"-221 247 LINE",
"-225 177 LINE",
"-226 106 LINE",
"-212 42 LINE",
"-176 11 LINE",
"-124 15 LINE",
"-90 11 LINE",
"-64 25 LINE",
"-10 32 LINE",
"43 33 LINE",
"80 55 LINE",
"177 95 LINE",
"234 128 LINE",
"270 187 LINE",
"318 276 LINE",
"338 377 LINE",
"338 444 LINE"
);
},
{
closed = 1;
nodes = (
"-104 92 LINE",
"-141 98 LINE",
"-152 138 LINE",
"-148 217 LINE",
"-141 275 LINE",
"-151 343 LINE",
"-149 392 LINE",
"-148 430 LINE",
"-147 471 LINE",
"-142 514 LINE",
"-159 542 LINE",
"-142 597 LINE",
"-104 616 LINE",
"-42 637 LINE",
"-16 637 LINE",
"29 635 LINE",
"79 629 LINE",
"139 607 LINE",
"192 573 LINE",
"202 551 LINE",
"223 538 LINE",
"231 499 LINE",
"258 438 LINE",
"264 413 LINE",
"257 350 LINE",
"255 328 LINE",
"242 305 LINE",
"233 258 LINE",
"190 193 LINE",
"179 180 LINE",
"172 175 LINE",
"117 147 LINE",
"91 134 LINE",
"27 113 LINE",
"1 111 LINE",
"-49 102 LINE",
"-82 102 LINE"
);
},
{
closed = 1;
nodes = (
"726 70 LINE",
"674 74 LINE",
"619 71 LINE",
"571 70 LINE",
"530 66 LINE",
"453 53 LINE",
"390 61 LINE",
"400 194 LINE",
"427 227 LINE",
"489 286 LINE",
"501 301 LINE",
"552 367 LINE",
"570 390 LINE",
"602 436 LINE",
"610 463 LINE",
"573 457 LINE",
"532 465 LINE",
"465 455 LINE",
"401 464 LINE",
"372 526 LINE",
"436 536 LINE",
"493 536 LINE",
"567 536 LINE",
"656 546 LINE",
"685 549 LINE",
"711 550 LINE",
"753 520 LINE",
"745 483 LINE",
"722 469 LINE",
"720 446 LINE",
"707 428 LINE",
"680 420 LINE",
"650 367 LINE",
"581 293 LINE",
"510 211 LINE",
"472 160 LINE",
"465 144 LINE",
"483 131 LINE",
"543 144 LINE",
"589 145 LINE",
"645 150 LINE",
"706 150 LINE",
"740 147 LINE",
"781 109 LINE"
);
},
{
closed = 1;
nodes = (
"447 785 LINE",
"476 764 LINE",
"507 726 LINE",
"555 660 LINE",
"577 643 LINE",
"603 675 LINE",
"624 700 LINE",
"668 748 LINE",
"732 738 LINE",
"699 675 LINE",
"673 638 LINE",
"651 610 LINE",
"578 566 LINE",
"516 589 LINE",
"494 610 LINE",
"478 647 LINE",
"433 695 LINE",
"405 720 LINE"
);
}
);
width = 600;
}
);
unicode = 01C5;
},
{
glyphname = E;
layers = (
{
layerId = "44398CD6-F961-4ECB-B01A-EEBF1DAB2450";
paths = (
{
closed = 1;
nodes = (
"208 607 LINE",
"247 606 LINE",
"307 616 LINE",
"376 607 LINE",
"473 611 LINE",
"453 685 LINE",
"407 679 LINE",
"377 689 LINE",
"350 680 LINE",
"267 686 LINE",
"232 689 LINE",
"189 691 LINE",
"140 691 LINE",
"87 635 LINE",
"92 608 LINE",
"105 549 LINE",
"98 488 LINE",
"98 431 LINE",
"98 348 LINE",
"103 282 LINE",
"97 237 LINE",
"97 178 LINE",
"101 125 LINE",
"104 84 LINE",
"115 40 LINE",
"198 11 LINE",
"231 19 LINE",
"274 30 LINE",
"291 31 LINE",
"324 23 LINE",
"352 39 LINE",
"399 41 LINE",
"465 56 LINE",
"430 111 LINE",
"367 117 LINE",
"313 105 LINE",
"238 99 LINE",
"197 89 LINE",
"181 89 LINE",
"176 107 LINE",
"171 156 LINE",
"169 208 LINE",
"178 252 LINE",
"169 318 LINE",
"176 341 LINE",
"253 344 LINE",
"305 348 LINE",
"340 354 LINE",
"438 366 LINE",
"377 422 LINE",
"321 430 LINE",
"275 419 LINE",
"221 415 LINE",
"182 418 LINE",
"169 459 LINE",
"174 511 LINE",
"173 588 LINE",
"178 605 LINE"
);
}
);
width = 560;
}
);
note = E;
unicode = 0045;
},
{
glyphname = F;
layers = (
{
layerId = "44398CD6-F961-4ECB-B01A-EEBF1DAB2450";
paths = (
{
closed = 1;
nodes = (
"463 681 LINE",
"360 685 LINE",
"312 680 LINE",
"238 682 LINE",
"170 675 LINE",
"114 662 LINE",
"82 624 LINE",
"85 569 LINE",
"95 510 LINE",
"93 484 LINE",
"84 429 LINE",
"99 367 LINE",
"96 306 LINE",
"94 235 LINE",
"95 137 LINE",
"103 72 LINE",
"125 9 LINE",
"170 113 LINE",
"167 167 LINE",
"169 242 LINE",
"174 304 LINE",
"184 309 LINE",
"238 310 LINE",
"294 316 LINE",
"360 322 LINE",
"407 320 LINE",
"436 393 LINE",
"378 404 LINE",
"316 395 LINE",
"257 388 LINE",
"206 384 LINE",
"177 389 LINE",
"161 413 LINE",
"161 446 LINE",
"171 498 LINE",
"162 550 LINE",
"158 598 LINE",
"159 599 LINE",
"202 605 LINE",
"277 610 LINE",
"337 606 LINE",
"398 615 LINE",
"422 614 LINE",
"469 601 LINE",
"509 620 LINE",
"533 657 LINE",
"533 657 LINE"
);
}
);
width = 602;
}
);
note = F;
unicode = 0046;
},
{
glyphname = G;
layers = (
{
layerId = "44398CD6-F961-4ECB-B01A-EEBF1DAB2450";
paths = (
{
closed = 1;
nodes = (
"369 678 LINE",
"344 683 LINE",
"324 692 LINE",
"276 682 LINE",
"241 670 LINE",
"228 660 LINE",
"218 648 LINE",
"195 646 LINE",
"174 639 LINE",
"151 601 LINE",
"122 576 LINE",
"110 542 LINE",
"91 504 LINE",
"91 503 LINE",
"77 470 LINE",
"67 420 LINE",
"62 381 LINE",
"56 355 LINE",
"68 328 LINE",
"57 303 LINE",
"68 274 LINE",
"74 226 LINE",
"105 192 LINE",
"120 160 LINE",
"139 124 LINE",
"162 95 LINE",
"198 70 LINE",
"210 65 LINE",
"257 39 LINE",
"298 7 LINE",
"323 1 LINE",
"347 9 LINE",
"356 7 LINE",
"374 2 LINE",
"403 -4 LINE",
"436 0 LINE",
"480 6 LINE",
"492 20 LINE",
"506 36 LINE",
"522 41 LINE",
"540 53 LINE",
"562 88 LINE",
"575 101 LINE",
"589 117 LINE",
"588 165 LINE",
"590 185 LINE",
"599 237 LINE",
"599 240 LINE",
"597 274 LINE",
"596 293 LINE",
"602 319 LINE",
"575 358 LINE",
"546 397 LINE",
"530 399 LINE",
"516 403 LINE",
"487 396 LINE",
"457 396 LINE",
"438 382 LINE",
"414 379 LINE",
"392 384 LINE",
"351 379 LINE",
"334 301 LINE",
"390 304 LINE",
"432 303 LINE",
"452 306 LINE",
"481 317 LINE",
"507 319 LINE",
"518 302 LINE",
"519 283 LINE",
"522 256 LINE",
"524 253 LINE",
"520 228 LINE",
"511 177 LINE",
"510 147 LINE",
"494 135 LINE",
"484 110 LINE",
"482 109 LINE",
"441 79 LINE",
"418 73 LINE",
"407 72 LINE",
"400 73 LINE",
"380 80 LINE",
"353 86 LINE",
"323 83 LINE",
"306 101 LINE",
"274 120 LINE",
"224 144 LINE",
"223 144 LINE",
"210 158 LINE",
"203 171 LINE",
"181 218 LINE",
"148 259 LINE",
"145 310 LINE",
"147 324 LINE",
"139 367 LINE",
"138 391 LINE",
"145 426 LINE",
"155 460 LINE",
"167 484 LINE",
"193 527 LINE",
"225 570 LINE",
"256 579 LINE",
"278 599 LINE",
"317 606 LINE",
"341 606 LINE",
"384 599 LINE",
"406 593 LINE",
"428 576 LINE",
"444 552 LINE",
"451 530 LINE",
"464 517 LINE",
"471 496 LINE",
"526 465 LINE",
"542 524 LINE",
"537 540 LINE",
"520 570 LINE",
"514 596 LINE",
"497 609 LINE",
"463 646 LINE",
"418 670 LINE"
);
}
);
width = 663;
}
);
note = G;
unicode = 0047;
},
{
glyphname = H;
layers = (
{
layerId = "44398CD6-F961-4ECB-B01A-EEBF1DAB2450";
paths = (
{
closed = 1;
nodes = (
"541 466 LINE",
"552 496 LINE",
"540 531 LINE",
"547 612 LINE",
"535 690 LINE",
"468 567 LINE",
"467 500 LINE",
"456 429 LINE",
"399 418 LINE",
"368 431 LINE",
"338 428 LINE",
"272 417 LINE",
"225 414 LINE",
"182 410 LINE",
"170 415 LINE",
"163 455 LINE",
"166 502 LINE",
"168 561 LINE",
"158 632 LINE",
"90 673 LINE",
"87 597 LINE",
"89 530 LINE",
"87 482 LINE",
"91 418 LINE",
"92 369 LINE",
"92 334 LINE",
"104 279 LINE",
"91 245 LINE",
"93 201 LINE",
"101 122 LINE",
"103 80 LINE",
"151 7 LINE",
"181 47 LINE",
"178 106 LINE",
"177 171 LINE",
"173 235 LINE",
"175 318 LINE",
"178 327 LINE",
"254 339 LINE",
"360 351 LINE",
"456 346 LINE",
"458 333 LINE",
"459 286 LINE",
"456 235 LINE",
"466 179 LINE",
"454 121 LINE",
"456 75 LINE",
"507 2 LINE",
"533 46 LINE",
"533 95 LINE",
"534 137 LINE",
"534 219 LINE",
"535 261 LINE",
"538 303 LINE",
"534 361 LINE",
"534 362 LINE",
"537 367 LINE",
"561 389 LINE",
"590 449 LINE"
);
}
);
width = 663;
}
);
note = H;
unicode = 0048;
},
{
glyphname = Hbar;
layers = (
{
layerId = "44398CD6-F961-4ECB-B01A-EEBF1DAB2450";
paths = (
{
closed = 1;
nodes = (
"554 608 LINE",
"490 615 LINE",
"457 619 LINE",
"433 613 LINE",
"416 613 LINE",
"404 611 LINE",
"378 618 LINE",
"352 609 LINE",
"312 612 LINE",
"272 611 LINE",
"242 608 LINE",
"197 601 LINE",
"173 599 LINE",
"165 598 LINE",
"137 608 LINE",
"113 606 LINE",
"83 603 LINE",
"31 596 LINE",
"7 528 LINE",
"63 531 LINE",
"109 534 LINE",
"129 534 LINE",
"161 527 LINE",
"187 529 LINE",
"190 528 LINE",
"226 531 LINE",
"259 531 LINE",
"306 539 LINE",
"322 540 LINE",
"382 542 LINE",
"420 540 LINE",
"461 545 LINE",
"516 545 LINE",
"551 536 LINE",
"580 542 LINE",
"575 615 LINE",
"575 615 LINE"
);
},
{
closed = 1;
nodes = (
"164 48 LINE",
"162 63 LINE",
"159 113 LINE",
"156 148 LINE",
"155 155 LINE",
"151 186 LINE",
"150 209 LINE",
"148 243 LINE",
"153 262 LINE",
"158 285 LINE",
"148 326 LINE",
"150 339 LINE",
"173 340 LINE",
"178 339 LINE",
"210 335 LINE",
"228 335 LINE",
"235 334 LINE",
"257 328 LINE",
"296 326 LINE",
"337 324 LINE",
"371 306 LINE",
"418 306 LINE",
"443 295 LINE",
"443 261 LINE",
"438 229 LINE",
"453 205 LINE",
"442 178 LINE",
"442 146 LINE",
"443 100 LINE",
"442 54 LINE",
"447 27 LINE",
"501 -11 LINE",
"521 57 LINE",
"521 88 LINE",
"521 119 LINE",
"522 163 LINE",
"531 217 LINE",
"522 245 LINE",
"520 279 LINE",
"524 300 LINE",
"527 306 LINE",
"542 319 LINE",
"531 398 LINE",
"527 399 LINE",
"522 442 LINE",
"521 465 LINE",
"529 496 LINE",
"541 531 LINE",
"528 559 LINE",
"532 618 LINE",
"533 631 LINE",
"542 671 LINE",
"504 724 LINE",
"464 676 LINE",
"455 639 LINE",
"454 613 LINE",
"455 595 LINE",
"448 551 LINE",
"454 527 LINE",
"451 504 LINE",
"443 457 LINE",
"444 442 LINE",
"447 415 LINE",
"443 383 LINE",
"421 384 LINE",
"389 382 LINE",
"373 396 LINE",
"350 402 LINE",
"314 403 LINE",
"274 404 LINE",
"260 408 LINE",
"229 414 LINE",
"207 413 LINE",
"201 414 LINE",
"173 419 LINE",
"148 432 LINE",
"139 462 LINE",
"144 509 LINE",
"153 533 LINE",
"146 557 LINE",
"149 599 LINE",
"142 640 LINE",
"75 684 LINE",
"70 600 LINE",
"68 568 LINE",
"68 540 LINE",
"64 492 LINE",
"66 428 LINE",
"64 417 LINE",
"65 378 LINE",
"64 341 LINE",
"78 285 LINE",
"78 282 LINE",
"65 248 LINE",
"72 219 LINE",
"76 164 LINE",
"77 157 LINE",
"81 126 LINE",
"84 84 LINE",
"84 56 LINE",
"87 33 LINE",
"168 34 LINE",
"168 34 LINE"
);
}
);
width = 600;
}
);
unicode = 0126;
},
{
glyphname = I;
layers = (
{
layerId = "44398CD6-F961-4ECB-B01A-EEBF1DAB2450";
paths = (
{
closed = 1;
nodes = (
"103 646 LINE",
"99 601 LINE",
"93 577 LINE",
"101 557 LINE",
"97 501 LINE",
"95 466 LINE",
"100 446 LINE",
"102 427 LINE",
"102 424 LINE",
"107 378 LINE",
"100 333 LINE",
"99 323 LINE",
"104 281 LINE",
"104 252 LINE",
"105 240 LINE",
"100 178 LINE",
"103 150 LINE",
"103 143 LINE",
"101 85 LINE",
"103 52 LINE",
"128 -8 LINE",
"179 30 LINE",
"182 68 LINE",
"181 116 LINE",
"183 136 LINE",
"179 169 LINE",
"178 179 LINE",
"178 200 LINE",
"186 245 LINE",
"183 263 LINE",
"184 267 LINE",
"178 313 LINE",
"178 339 LINE",
"186 369 LINE",
"181 409 LINE",
"181 440 LINE",
"177 460 LINE",
"176 469 LINE",
"178 533 LINE",
"179 547 LINE",
"179 574 LINE",
"186 617 LINE",
"183 666 LINE"
);
}
);
width = 282;
}
);
note = I;
unicode = 0049;
},
{
glyphname = J;
layers = (
{
layerId = "44398CD6-F961-4ECB-B01A-EEBF1DAB2450";
paths = (
{
closed = 1;
nodes = (
"506 517 LINE",
"506 526 LINE",
"507 555 LINE",
"515 607 LINE",
"512 624 LINE",
"510 645 LINE",
"460 694 LINE",
"424 634 LINE",
"426 613 LINE",
"428 594 LINE",
"420 543 LINE",
"420 538 LINE",
"420 505 LINE",
"425 480 LINE",
"425 436 LINE",
"430 416 LINE",
"410 382 LINE",
"419 339 LINE",
"418 328 LINE",
"396 295 LINE",
"388 273 LINE",
"383 235 LINE",
"374 210 LINE",
"350 177 LINE",
"321 129 LINE",
"312 118 LINE",
"299 103 LINE",
"279 97 LINE",
"233 92 LINE",
"203 92 LINE",
"168 112 LINE",
"154 133 LINE",
"144 147 LINE",
"117 201 LINE",
"55 137 LINE",
"73 96 LINE",
"85 81 LINE",
"107 39 LINE",
"144 26 LINE",
"219 0 LINE",
"269 7 LINE",
"333 21 LINE",
"376 60 LINE",
"393 82 LINE",
"404 98 LINE",
"441 151 LINE",
"462 194 LINE",
"471 246 LINE",
"477 263 LINE",
"501 295 LINE",
"506 338 LINE",
"504 367 LINE",
"526 408 LINE",
"511 452 LINE"
);
}
);
width = 589;
}
);
note = J;
unicode = 004A;
},
{
glyphname = K;
layers = (
{
layerId = "44398CD6-F961-4ECB-B01A-EEBF1DAB2450";
paths = (
{
closed = 1;
nodes = (
"601 58 LINE",
"592 91 LINE",
"565 107 LINE",
"529 156 LINE",
"497 202 LINE",
"489 216 LINE",
"451 256 LINE",
"421 304 LINE",
"391 345 LINE",
"375 370 LINE",
"366 382 LINE",
"355 397 LINE",
"359 401 LINE",
"384 426 LINE",
"387 429 LINE",
"414 462 LINE",
"437 487 LINE",
"447 501 LINE",
"452 506 LINE",
"501 539 LINE",
"528 562 LINE",
"547 593 LINE",
"558 604 LINE",
"591 653 LINE",
"509 669 LINE",
"508 667 LINE",
"464 613 LINE",
"430 586 LINE",
"408 573 LINE",
"384 551 LINE",
"370 534 LINE",
"366 529 LINE",
"340 497 LINE",
"316 471 LINE",
"313 468 LINE",
"293 453 LINE",
"267 449 LINE",
"245 429 LINE",
"217 385 LINE",
"200 366 LINE",
"197 363 LINE",
"186 359 LINE",
"174 391 LINE",
"172 420 LINE",
"177 452 LINE",
"178 504 LINE",
"181 534 LINE",
"170 552 LINE",
"177 604 LINE",
"166 665 LINE",
"88 643 LINE",
"89 601 LINE",
"93 585 LINE",
"88 548 LINE",
"96 518 LINE",
"98 481 LINE",
"95 452 LINE",
"93 404 LINE",
"93 399 LINE",
"97 356 LINE",
"95 333 LINE",
"96 292 LINE",
"108 251 LINE",
"108 240 LINE",
"105 209 LINE",
"107 146 LINE",
"103 101 LINE",
"101 67 LINE",
"116 35 LINE",
"178 5 LINE",
"199 39 LINE",
"187 75 LINE",
"192 122 LINE",
"197 150 LINE",
"185 174 LINE",
"188 227 LINE",
"191 242 LINE",
"208 268 LINE",
"234 291 LINE",
"236 293 LINE",
"264 316 LINE",
"293 339 LINE",
"298 333 LINE",
"312 316 LINE",
"341 271 LINE",
"363 245 LINE",
"370 237 LINE",
"387 200 LINE",
"417 178 LINE",
"447 129 LINE",
"465 102 LINE",
"479 87 LINE",
"517 38 LINE",
"538 4 LINE",
"608 51 LINE"
);
}
);
width = 663;
}
);
note = K;
unicode = 004B;
},
{
glyphname = L;
layers = (
{
layerId = "44398CD6-F961-4ECB-B01A-EEBF1DAB2450";
paths = (
{
closed = 1;
nodes = (
"462 113 LINE",
"446 112 LINE",
"411 106 LINE",
"396 101 LINE",
"364 100 LINE",
"305 97 LINE",
"273 92 LINE",
"250 85 LINE",
"245 84 LINE",
"218 94 LINE",
"201 114 LINE",
"188 141 LINE",
"189 173 LINE",
"178 202 LINE",
"189 236 LINE",
"186 292 LINE",
"181 314 LINE",
"182 353 LINE",
"181 395 LINE",
"180 436 LINE",
"179 476 LINE",
"182 508 LINE",
"181 567 LINE",
"180 593 LINE",
"185 634 LINE",
"181 655 LINE",
"101 641 LINE",
"103 625 LINE",
"96 579 LINE",
"96 534 LINE",
"98 496 LINE",
"98 455 LINE",
"96 418 LINE",
"95 374 LINE",
"96 331 LINE",
"107 273 LINE",
"108 246 LINE",
"96 228 LINE",
"94 203 LINE",
"95 181 LINE",
"107 161 LINE",
"101 136 LINE",
"101 114 LINE",
"110 97 LINE",
"122 87 LINE",
"138 57 LINE",
"151 30 LINE",
"209 7 LINE",
"245 0 LINE",
"277 7 LINE",
"292 11 LINE",
"344 17 LINE",
"364 17 LINE",
"416 21 LINE",
"439 29 LINE",
"445 30 LINE",
"470 30 LINE",
"537 61 LINE",
"493 115 LINE"
);
}
);
width = 572;
}
);
note = L;
unicode = 004C;
},
{
glyphname = Lcaron;
layers = (
{
layerId = "44398CD6-F961-4ECB-B01A-EEBF1DAB2450";
paths = (
{
closed = 1;
nodes = (
"453 5 LINE",
"395 9 LINE",
"372 8 LINE",
"280 -14 LINE",
"239 -16 LINE",
"208 -4 LINE",
"181 0 LINE",
"112 82 LINE",
"111 187 LINE",
"108 227 LINE",
"108 272 LINE",
"111 330 LINE",
"109 382 LINE",
"109 437 LINE",
"108 492 LINE",
"108 554 LINE",
"111 603 LINE",
"126 674 LINE",
"185 639 LINE",
"192 585 LINE",
"189 524 LINE",
"189 469 LINE",
"189 412 LINE",
"194 360 LINE",
"193 313 LINE",
"190 238 LINE",
"181 144 LINE",
"194 82 LINE",
"247 70 LINE",
"303 64 LINE",
"315 69 LINE",
"370 91 LINE",
"433 84 LINE",
"498 39 LINE"
);
},
{
closed = 1;
nodes = (
"401 458 LINE",
"411 507 LINE",
"413 575 LINE",
"410 663 LINE",
"336 690 LINE",
"332 644 LINE",
"336 604 LINE",
"335 540 LINE",
"325 504 LINE"
);
}
);
width = 600;
}
);
unicode = 013D;
},
{
glyphname = Lslash;
layers = (
{
layerId = "44398CD6-F961-4ECB-B01A-EEBF1DAB2450";
paths = (
{
closed = 1;
nodes = (
"475 77 LINE",
"437 88 LINE",
"392 81 LINE",
"341 84 LINE",
"279 85 LINE",
"169 91 LINE",
"163 94 LINE",
"166 131 LINE",
"161 179 LINE",
"160 265 LINE",
"173 331 LINE",
"183 391 LINE",
"186 396 LINE",
"221 422 LINE",
"236 429 LINE",
"304 465 LINE",
"242 506 LINE",
"177 485 LINE",
"182 530 LINE",
"177 616 LINE",
"176 633 LINE",
"168 709 LINE",
"110 669 LINE",
"112 580 LINE",
"112 559 LINE",
"107 514 LINE",
"92 432 LINE",
"51 408 LINE",
"24 394 LINE",
"33 320 LINE",
"70 334 LINE",
"92 338 LINE",
"100 309 LINE",
"86 175 LINE",
"93 117 LINE",
"98 55 LINE",
"153 18 LINE",
"225 22 LINE",
"268 7 LINE",
"309 16 LINE",
"364 11 LINE",
"435 14 LINE",
"510 14 LINE",
"483 78 LINE"
);
}
);
width = 600;
}
);
unicode = 0141;
},
{
glyphname = M;
layers = (
{
layerId = "44398CD6-F961-4ECB-B01A-EEBF1DAB2450";
paths = (
{
closed = 1;
nodes = (
"714 593 LINE",
"712 612 LINE",
"714 660 LINE",
"701 683 LINE",
"628 656 LINE",
"624 649 LINE",
"606 617 LINE",
"597 581 LINE",
"569 540 LINE",
"552 506 LINE",
"523 437 LINE",
"503 380 LINE",
"499 372 LINE",
"486 352 LINE",
"474 321 LINE",
"461 301 LINE",
"461 270 LINE",
"440 236 LINE",
"419 210 LINE",
"416 171 LINE",
"409 165 LINE",
"407 169 LINE",
"404 174 LINE",
"396 204 LINE",
"376 219 LINE",
"364 261 LINE",
"354 277 LINE",
"349 290 LINE",
"343 306 LINE",
"339 322 LINE",
"327 379 LINE",
"303 426 LINE",
"286 454 LINE",
"274 515 LINE",
"252 552 LINE",
"244 572 LINE",
"240 585 LINE",
"227 617 LINE",
"196 663 LINE",
"186 664 LINE",
"175 672 LINE",
"143 676 LINE",
"96 651 LINE",
"94 599 LINE",
"92 583 LINE",
"89 558 LINE",
"87 542 LINE",
"86 510 LINE",
"89 489 LINE",
"83 451 LINE",
"102 413 LINE",
"91 383 LINE",
"92 344 LINE",
"100 296 LINE",
"103 264 LINE",
"105 254 LINE",
"106 217 LINE",
"106 159 LINE",
"104 100 LINE",
"106 66 LINE",
"112 44 LINE",
"192 26 LINE",
"187 83 LINE",
"186 130 LINE",
"189 147 LINE",
"186 189 LINE",
"188 214 LINE",
"187 256 LINE",
"183 284 LINE",
"176 335 LINE",
"170 368 LINE",
"184 417 LINE",
"168 463 LINE",
"169 506 LINE",
"167 520 LINE",
"167 527 LINE",
"170 536 LINE",
"174 527 LINE",
"188 497 LINE",
"201 461 LINE",
"229 392 LINE",
"238 373 LINE",
"255 325 LINE",
"260 307 LINE",
"265 284 LINE",
"272 262 LINE",
"283 238 LINE",
"293 219 LINE",
"304 184 LINE",
"325 157 LINE",
"335 131 LINE",
"337 122 LINE",
"343 100 LINE",
"350 78 LINE",
"358 57 LINE",
"372 37 LINE",
"408 17 LINE",
"443 37 LINE",
"473 75 LINE",
"479 117 LINE",
"499 178 LINE",
"514 205 LINE",
"544 275 LINE",
"554 305 LINE",
"557 312 LINE",
"566 327 LINE",
"579 352 LINE",
"587 374 LINE",
"604 400 LINE",
"606 438 LINE",
"607 441 LINE",
"619 445 LINE",
"628 410 LINE",
"626 392 LINE",
"615 351 LINE",
"626 306 LINE",
"622 256 LINE",
"626 211 LINE",
"622 196 LINE",
"620 150 LINE",
"620 122 LINE",
"613 81 LINE",
"614 68 LINE",
"627 25 LINE",
"689 1 LINE",
"695 68 LINE",
"694 89 LINE",
"700 134 LINE",
"700 144 LINE",
"701 177 LINE",
"706 198 LINE",
"704 241 LINE",
"703 276 LINE",
"714 315 LINE",
"698 350 LINE",
"706 380 LINE",
"704 446 LINE",
"713 464 LINE",
"714 487 LINE",
"713 510 LINE",
"703 530 LINE",
"712 555 LINE"
);
}
);
width = 820;
}
);
note = M;
unicode = 004D;
},
{
glyphname = N;
layers = (
{
layerId = "44398CD6-F961-4ECB-B01A-EEBF1DAB2450";
paths = (
{
closed = 1;
nodes = (
"660 105 LINE",
"656 123 LINE",
"661 152 LINE",
"648 177 LINE",
"646 199 LINE",
"645 220 LINE",
"641 243 LINE",
"652 292 LINE",
"640 331 LINE",
"641 361 LINE",
"633 393 LINE",
"633 422 LINE",
"623 470 LINE",
"617 513 LINE",
"612 549 LINE",
"609 589 LINE",
"607 616 LINE",
"601 648 LINE",
"549 687 LINE",
"523 623 LINE",
"524 616 LINE",
"530 565 LINE",
"531 522 LINE",
"536 479 LINE",
"549 430 LINE",
"551 412 LINE",
"558 352 LINE",
"567 291 LINE",
"557 247 LINE",
"564 211 LINE",
"565 192 LINE",
"561 168 LINE",
"546 172 LINE",
"531 210 LINE",
"513 229 LINE",
"499 243 LINE",
"478 277 LINE",
"461 292 LINE",
"439 326 LINE",
"424 344 LINE",
"416 361 LINE",
"390 394 LINE",
"369 423 LINE",
"354 437 LINE",
"335 470 LINE",
"322 483 LINE",
"307 499 LINE",
"279 545 LINE",
"264 563 LINE",
"240 573 LINE",
"235 580 LINE",
"217 607 LINE",
"207 617 LINE",
"189 661 LINE",
"116 690 LINE",
"89 656 LINE",
"104 611 LINE",
"104 610 LINE",
"102 580 LINE",
"102 521 LINE",
"91 486 LINE",
"108 417 LINE",
"108 389 LINE",
"96 349 LINE",
"92 323 LINE",
"103 270 LINE",
"103 267 LINE",
"96 214 LINE",
"96 208 LINE",
"96 172 LINE",
"106 116 LINE",
"108 93 LINE",
"107 49 LINE",
"187 66 LINE",
"189 107 LINE",
"189 110 LINE",
"187 152 LINE",
"179 198 LINE",
"177 225 LINE",
"184 254 LINE",
"182 290 LINE",
"174 316 LINE",
"175 331 LINE",
"188 372 LINE",
"189 424 LINE",
"170 475 LINE",
"187 509 LINE",
"213 496 LINE",
"224 483 LINE",
"232 445 LINE",
"262 428 LINE",
"273 415 LINE",
"313 364 LINE",
"342 324 LINE",
"351 308 LINE",
"379 269 LINE",
"415 223 LINE",
"424 187 LINE",
"457 169 LINE",
"465 160 LINE",
"475 124 LINE",
"508 93 LINE",
"529 70 LINE",
"568 28 LINE",
"580 17 LINE",
"663 18 LINE",
"662 78 LINE"
);
}
);
width = 736;
}
);
note = N;
unicode = 004E;
},
{
glyphname = Eng;
layers = (
{
layerId = "44398CD6-F961-4ECB-B01A-EEBF1DAB2450";
paths = (
{
closed = 1;
nodes = (
"542 127 LINE",
"535 171 LINE",
"537 221 LINE",
"536 250 LINE",
"533 297 LINE",
"529 329 LINE",
"527 386 LINE",
"517 429 LINE",
"517 486 LINE",
"507 546 LINE",
"504 635 LINE",
"486 709 LINE",
"425 672 LINE",
"442 587 LINE",
"434 490 LINE",
"442 450 LINE",
"449 394 LINE",
"456 355 LINE",
"450 308 LINE",
"456 262 LINE",
"458 238 LINE",
"458 191 LINE",
"462 145 LINE",
"462 100 LINE",
"458 95 LINE",
"433 131 LINE",
"408 170 LINE",
"380 231 LINE",
"358 279 LINE",
"339 317 LINE",
"310 371 LINE",
"280 417 LINE",
"267 437 LINE",
"244 477 LINE",
"219 506 LINE",
"184 558 LINE",
"162 598 LINE",
"123 638 LINE",
"122 640 LINE",
"111 682 LINE",
"43 646 LINE",
"41 596 LINE",
"40 537 LINE",
"34 444 LINE",
"46 360 LINE",
"46 347 LINE",
"46 281 LINE",
"47 270 LINE",
"39 215 LINE",
"36 148 LINE",
"38 76 LINE",
"41 35 LINE",
"113 59 LINE",
"106 114 LINE",
"106 180 LINE",
"114 236 LINE",
"117 312 LINE",
"112 399 LINE",
"110 454 LINE",
"113 517 LINE",
"146 480 LINE",
"175 444 LINE",
"190 422 LINE",
"211 383 LINE",
"234 354 LINE",
"262 310 LINE",
"283 265 LINE",
"303 227 LINE",
"332 171 LINE",
"357 112 LINE",
"382 74 LINE",
"409 23 LINE",
"429 -1 LINE",
"424 -37 LINE",
"418 -49 LINE",
"367 -79 LINE",
"329 -88 LINE",
"314 -163 LINE",
"357 -164 LINE",
"407 -156 LINE",
"444 -122 LINE",
"465 -117 LINE",
"486 -90 LINE",
"501 -32 LINE",
"524 21 LINE",
"535 67 LINE",
"541 80 LINE"
);
}
);
width = 600;
}
);
unicode = 014A;
},
{
glyphname = O;
layers = (
{
layerId = "44398CD6-F961-4ECB-B01A-EEBF1DAB2450";
paths = (
{
closed = 1;
nodes = (
"355 86 LINE",
"330 87 LINE",
"269 90 LINE",
"226 120 LINE",
"202 155 LINE",
"192 183 LINE",
"178 202 LINE",
"177 215 LINE",
"152 269 LINE",
"149 297 LINE",
"152 325 LINE",
"149 362 LINE",
"148 398 LINE",
"153 428 LINE",
"154 461 LINE",
"158 470 LINE",
"188 528 LINE",
"190 531 LINE",
"231 562 LINE",
"271 600 LINE",
"280 603 LINE",
"338 612 LINE",
"375 593 LINE",
"418 598 LINE",
"427 596 LINE",
"473 564 LINE",
"478 547 LINE",
"488 522 LINE",
"493 509 LINE",
"523 452 LINE",
"523 450 LINE",
"526 417 LINE",
"527 410 LINE",
"520 357 LINE",
"520 353 LINE",
"524 313 LINE",
"521 294 LINE",
"517 280 LINE",
"511 252 LINE",
"509 240 LINE",
"489 181 LINE",
"485 166 LINE",
"466 152 LINE",
"431 139 LINE",
"418 109 LINE",
"409 102 LINE",
"374 93 LINE",
"356 86 LINE"
);
},
{
closed = 1;
nodes = (
"599 372 LINE",
"606 402 LINE",
"602 447 LINE",
"599 495 LINE",
"576 519 LINE",
"560 557 LINE",
"556 568 LINE",
"550 589 LINE",
"548 610 LINE",
"513 637 LINE",
"495 644 LINE",
"465 667 LINE",
"390 686 LINE",
"375 685 LINE",
"335 697 LINE",
"295 684 LINE",
"238 675 LINE",
"213 663 LINE",
"198 638 LINE",
"160 608 LINE",
"115 562 LINE",
"103 532 LINE",
"87 508 LINE",
"73 449 LINE",
"71 421 LINE",
"66 389 LINE",
"70 326 LINE",
"70 315 LINE",
"71 281 LINE",
"70 240 LINE",
"81 226 LINE",
"96 209 LINE",
"99 185 LINE",
"120 138 LINE",
"149 90 LINE",
"168 60 LINE",
"204 39 LINE",
"222 21 LINE",
"242 6 LINE",
"292 11 LINE",
"317 -1 LINE",
"347 6 LINE",
"404 19 LINE",
"460 37 LINE",
"476 54 LINE",
"492 71 LINE",
"524 94 LINE",
"556 114 LINE",
"564 139 LINE",
"568 164 LINE",
"572 186 LINE",
"587 220 LINE",
"590 243 LINE",
"593 254 LINE",
"599 280 LINE",
"618 315 LINE",
"601 351 LINE"
);
}
);
width = 675;
}
);
note = O;
unicode = 004F;
},
{
glyphname = Ohorn;
layers = (
{
layerId = "44398CD6-F961-4ECB-B01A-EEBF1DAB2450";
paths = (
{
closed = 1;
nodes = (
"374 93 LINE",
"364 89 LINE",
"341 84 LINE",
"316 87 LINE",
"314 87 LINE",
"278 95 LINE",
"250 104 LINE",
"242 107 LINE",
"208 136 LINE",
"200 146 LINE",
"178 173 LINE",
"167 187 LINE",
"162 199 LINE",
"166 225 LINE",
"163 245 LINE",
"153 279 LINE",
"140 312 LINE",
"134 338 LINE",
"133 346 LINE",
"127 399 LINE",
"140 418 LINE",
"151 446 LINE",
"153 453 LINE",
"161 475 LINE",
"169 506 LINE",
"178 519 LINE",
"211 561 LINE",
"219 573 LINE",
"231 587 LINE",
"242 589 LINE",
"279 600 LINE",
"318 615 LINE",
"344 610 LINE",
"374 595 LINE",
"378 593 LINE",
"394 568 LINE",
"430 555 LINE",
"445 529 LINE",
"453 517 LINE",
"459 487 LINE",
"472 456 LINE",
"497 436 LINE",
"503 425 LINE",
"515 375 LINE",
"516 342 LINE",
"515 320 LINE",
"513 294 LINE",
"521 255 LINE",
"520 249 LINE",
"504 218 LINE",
"489 201 LINE",
"485 176 LINE",
"476 163 LINE",
"452 150 LINE",
"443 129 LINE",
"420 122 LINE",
"404 99 LINE",
"402 98 LINE",
"388 98 LINE"
);
},
{
closed = 1;
nodes = (
"565 740 LINE",
"555 726 LINE",
"553 704 LINE",
"544 686 LINE",
"534 656 LINE",
"522 631 LINE",
"505 602 LINE",
"497 595 LINE",
"494 599 LINE",
"485 618 LINE",
"433 644 LINE",
"422 652 LINE",
"395 665 LINE",
"370 683 LINE",
"334 687 LINE",
"271 673 LINE",
"254 672 LINE",
"238 662 LINE",
"214 659 LINE",
"188 654 LINE",
"175 637 LINE",
"162 619 LINE",
"150 600 LINE",
"139 583 LINE",
"113 556 LINE",
"92 499 LINE",
"87 487 LINE",
"78 459 LINE",
"54 419 LINE",
"60 368 LINE",
"59 341 LINE",
"65 314 LINE",
"66 306 LINE",
"71 283 LINE",
"80 269 LINE",
"83 248 LINE",
"91 233 LINE",
"86 180 LINE",
"100 156 LINE",
"118 130 LINE",
"141 101 LINE",
"158 83 LINE",
"180 67 LINE",
"220 35 LINE",
"237 32 LINE",
"284 20 LINE",
"306 12 LINE",
"327 8 LINE",
"375 17 LINE",
"399 23 LINE",
"406 25 LINE",
"445 33 LINE",
"472 59 LINE",
"508 91 LINE",
"532 104 LINE",
"543 128 LINE",
"560 142 LINE",
"564 173 LINE",
"574 195 LINE",
"590 230 LINE",
"592 262 LINE",
"586 298 LINE",
"587 357 LINE",
"591 391 LINE",
"577 418 LINE",
"568 463 LINE",
"557 478 LINE",
"533 500 LINE",
"527 515 LINE",
"526 521 LINE",
"526 522 LINE",
"546 539 LINE",
"573 569 LINE",
"602 619 LINE",
"609 653 LINE",
"616 667 LINE",
"627 702 LINE",
"602 748 LINE"
);
}
);
width = 679;
}
);
note = Ohorn;
unicode = 01A0;
},
{
glyphname = Oslash;
layers = (
{
layerId = "44398CD6-F961-4ECB-B01A-EEBF1DAB2450";
paths = (
{
closed = 1;
nodes = (
"360 86 LINE",
"335 87 LINE",
"274 90 LINE",
"230 120 LINE",
"206 155 LINE",
"196 184 LINE",
"182 203 LINE",
"181 216 LINE",
"181 216 LINE",
"156 270 LINE",
"153 298 LINE",
"156 326 LINE",
"153 363 LINE",
"152 399 LINE",
"157 429 LINE",
"158 462 LINE",
"162 471 LINE",
"192 530 LINE",
"194 533 LINE",
"236 564 LINE",
"276 602 LINE",
"285 605 LINE",
"343 614 LINE",
"380 595 LINE",
"423 600 LINE",
"432 598 LINE",
"478 566 LINE",
"483 549 LINE",
"493 523 LINE",
"498 510 LINE",
"528 453 LINE",
"528 451 LINE",
"531 418 LINE",
"532 411 LINE",
"525 358 LINE",
"525 354 LINE",
"529 314 LINE",
"526 295 LINE",
"522 281 LINE",
"516 253 LINE",
"514 241 LINE",
"494 182 LINE",
"490 166 LINE",
"471 152 LINE",
"436 139 LINE",
"423 109 LINE",
"414 102 LINE",
"379 93 LINE",
"361 86 LINE",
"361 86 LINE"
);
},
{
closed = 1;
nodes = (
"605 373 LINE",
"612 403 LINE",
"608 448 LINE",
"605 496 LINE",
"581 520 LINE",
"565 559 LINE",
"561 570 LINE",
"555 591 LINE",
"553 612 LINE",
"518 639 LINE",
"500 646 LINE",
"470 669 LINE",
"395 688 LINE",
"380 687 LINE",
"340 699 LINE",
"300 686 LINE",
"243 677 LINE",
"217 665 LINE",
"202 640 LINE",
"164 610 LINE",
"119 564 LINE",
"107 534 LINE",
"91 509 LINE",
"77 450 LINE",
"75 422 LINE",
"70 390 LINE",
"74 327 LINE",
"74 316 LINE",
"75 282 LINE",
"74 241 LINE",
"85 227 LINE",
"100 210 LINE",
"103 186 LINE",
"124 138 LINE",
"153 90 LINE",
"172 60 LINE",
"208 39 LINE",
"226 21 LINE",
"247 6 LINE",
"297 11 LINE",
"322 -1 LINE",
"352 6 LINE",
"409 19 LINE",
"465 37 LINE",
"481 54 LINE",
"497 71 LINE",
"529 94 LINE",
"561 114 LINE",
"569 139 LINE",
"573 164 LINE",
"577 187 LINE",
"593 221 LINE",
"596 244 LINE",
"599 255 LINE",
"605 281 LINE",
"624 316 LINE",
"607 352 LINE",
"607 352 LINE"
);
},
{
closed = 1;
nodes = (
"130 -46 LINE",
"168 -3 LINE",
"188 46 LINE",
"223 100 LINE",
"245 130 LINE",
"254 147 LINE",
"267 153 LINE",
"285 193 LINE",
"305 233 LINE",
"344 258 LINE",
"358 304 LINE",
"396 347 LINE",
"403 356 LINE",
"423 410 LINE",
"463 458 LINE",
"480 484 LINE",
"488 492 LINE",
"509 525 LINE",
"538 562 LINE",
"546 578 LINE",
"563 614 LINE",
"593 673 LINE",
"557 733 LINE",
"525 722 LINE",
"509 681 LINE",
"480 631 LINE",
"465 607 LINE",
"458 592 LINE",
"428 549 LINE",
"409 529 LINE",
"375 484 LINE",
"363 471 LINE",
"344 446 LINE",
"336 406 LINE",
"323 382 LINE",
"289 357 LINE",
"273 310 LINE",
"228 271 LINE",
"218 239 LINE",
"203 212 LINE",
"169 165 LINE",
"140 117 LINE",
"111 99 LINE",
"103 59 LINE",
"78 8 LINE",
"83 -23 LINE",
"96 -41 LINE"
);
}
);
width = 684;
}
);
unicode = 00D8;
},
{
glyphname = OE;
layers = (
{
layerId = "44398CD6-F961-4ECB-B01A-EEBF1DAB2450";
paths = (
{
closed = 1;
nodes = (
"355 86 LINE",
"330 87 LINE",
"269 90 LINE",
"225 120 LINE",
"201 155 LINE",
"191 184 LINE",
"177 203 LINE",
"176 216 LINE",
"176 216 LINE",
"151 270 LINE",
"148 298 LINE",
"151 326 LINE",
"148 363 LINE",
"147 399 LINE",
"152 429 LINE",
"153 462 LINE",
"157 471 LINE",
"187 530 LINE",
"189 533 LINE",
"231 564 LINE",
"271 602 LINE",
"280 605 LINE",
"338 614 LINE",
"375 595 LINE",
"418 600 LINE",
"427 598 LINE",
"473 566 LINE",
"478 549 LINE",
"488 523 LINE",
"493 510 LINE",
"523 453 LINE",
"523 451 LINE",
"526 418 LINE",
"527 411 LINE",
"520 358 LINE",
"520 354 LINE",
"524 314 LINE",
"521 295 LINE",
"517 281 LINE",
"511 253 LINE",
"509 241 LINE",
"489 182 LINE",
"485 166 LINE",
"466 152 LINE",
"431 139 LINE",
"418 109 LINE",
"409 102 LINE",
"374 93 LINE",
"356 86 LINE",
"356 86 LINE"
);
},
{
closed = 1;
nodes = (
"600 373 LINE",
"607 403 LINE",
"603 448 LINE",
"600 496 LINE",
"576 520 LINE",
"560 559 LINE",
"556 570 LINE",
"550 591 LINE",
"548 612 LINE",
"513 639 LINE",
"495 646 LINE",
"465 669 LINE",
"390 688 LINE",
"375 687 LINE",
"335 699 LINE",
"295 686 LINE",
"238 677 LINE",
"212 665 LINE",
"197 640 LINE",
"159 610 LINE",
"114 564 LINE",
"102 534 LINE",
"86 509 LINE",
"72 450 LINE",
"70 422 LINE",
"65 390 LINE",
"69 327 LINE",
"69 316 LINE",
"70 282 LINE",
"69 241 LINE",
"80 227 LINE",
"95 210 LINE",
"98 186 LINE",
"119 138 LINE",
"148 90 LINE",
"167 60 LINE",
"203 39 LINE",
"221 21 LINE",
"242 6 LINE",
"292 11 LINE",
"317 -1 LINE",
"347 6 LINE",
"404 19 LINE",
"460 37 LINE",
"476 54 LINE",
"492 71 LINE",
"524 94 LINE",
"556 114 LINE",
"564 139 LINE",
"568 164 LINE",
"572 187 LINE",
"588 221 LINE",
"591 244 LINE",
"594 255 LINE",
"600 281 LINE",
"619 316 LINE",
"602 352 LINE",
"602 352 LINE"
);
},
{
closed = 1;
nodes = (
"777 15 LINE",
"811 6 LINE",
"839 23 LINE",
"887 25 LINE",
"956 44 LINE",
"919 97 LINE",
"886 110 LINE",
"855 102 LINE",
"819 98 LINE",
"799 91 LINE",
"774 92 LINE",
"756 92 LINE",
"723 84 LINE",
"681 74 LINE",
"666 74 LINE",
"661 93 LINE",
"655 143 LINE",
"653 196 LINE",
"662 241 LINE",
"666 275 LINE",
"653 308 LINE",
"659 327 LINE",
"694 320 LINE",
"713 320 LINE",
"773 318 LINE",
"788 319 LINE",
"802 318 LINE",
"838 304 LINE",
"872 300 LINE",
"929 325 LINE",
"941 389 LINE",
"877 379 LINE",
"849 381 LINE",
"822 395 LINE",
"787 396 LINE",
"764 395 LINE",
"746 393 LINE",
"691 397 LINE",
"666 405 LINE",
"653 452 LINE",
"658 475 LINE",
"658 505 LINE",
"665 533 LINE",
"657 582 LINE",
"663 600 LINE",
"692 602 LINE",
"732 602 LINE",
"788 611 LINE",
"794 612 LINE",
"829 597 LINE",
"864 603 LINE",
"886 598 LINE",
"917 597 LINE",
"937 600 LINE",
"963 607 LINE",
"996 662 LINE",
"924 676 LINE",
"906 673 LINE",
"900 673 LINE",
"868 685 LINE",
"837 676 LINE",
"803 688 LINE",
"753 682 LINE",
"718 686 LINE",
"673 687 LINE",
"644 689 LINE",
"623 687 LINE",
"569 630 LINE",
"573 603 LINE",
"588 543 LINE",
"588 543 LINE",
"580 480 LINE",
"571 451 LINE",
"580 422 LINE",
"573 379 LINE",
"576 362 LINE",
"580 338 LINE",
"576 314 LINE",
"575 288 LINE",
"585 271 LINE",
"579 225 LINE",
"574 198 LINE",
"579 164 LINE",
"578 136 LINE",
"583 110 LINE",
"586 69 LINE",
"598 24 LINE",
"623 1 LINE",
"682 -5 LINE",
"716 2 LINE",
"760 14 LINE",
"772 14 LINE"
);
}
);
width = 1038;
}
);
unicode = 0152;
},
{
glyphname = P;
layers = (
{
layerId = "44398CD6-F961-4ECB-B01A-EEBF1DAB2450";
paths = (
{
closed = 1;
nodes = (
"182 430 LINE",
"180 445 LINE",
"187 465 LINE",
"184 489 LINE",
"180 509 LINE",
"191 542 LINE",
"190 571 LINE",
"193 572 LINE",
"238 572 LINE",
"299 589 LINE",
"323 592 LINE",
"341 591 LINE",
"351 588 LINE",
"388 571 LINE",
"410 555 LINE",
"419 545 LINE",
"434 507 LINE",
"437 499 LINE",
"412 466 LINE",
"401 451 LINE",
"378 441 LINE",
"364 418 LINE",
"342 413 LINE",
"294 410 LINE",
"240 394 LINE",
"224 390 LINE",
"186 396 LINE"
);
},
{
closed = 1;
nodes = (
"367 333 LINE",
"378 335 LINE",
"413 348 LINE",
"437 375 LINE",
"466 398 LINE",
"501 429 LINE",
"512 447 LINE",
"522 473 LINE",
"526 499 LINE",
"507 551 LINE",
"489 601 LINE",
"476 612 LINE",
"452 627 LINE",
"413 655 LINE",
"376 680 LINE",
"352 674 LINE",
"328 677 LINE",
"272 668 LINE",
"258 665 LINE",
"205 661 LINE",
"182 661 LINE",
"99 645 LINE",
"70 596 LINE",
"84 568 LINE",
"94 556 LINE",
"103 543 LINE",
"92 513 LINE",
"103 476 LINE",
"98 435 LINE",
"103 410 LINE",
"103 404 LINE",
"102 387 LINE",
"108 340 LINE",
"105 324 LINE",
"105 291 LINE",
"117 263 LINE",
"122 223 LINE",
"114 162 LINE",
"123 111 LINE",
"126 86 LINE",
"127 75 LINE",
"132 39 LINE",
"190 2 LINE",
"216 28 LINE",
"210 70 LINE",
"209 101 LINE",
"208 111 LINE",
"200 151 LINE",
"198 182 LINE",
"210 217 LINE",
"204 250 LINE",
"188 311 LINE",
"190 313 LINE",
"204 301 LINE",
"223 297 LINE",
"263 313 LINE",
"290 324 LINE",
"324 329 LINE",
"353 325 LINE"
);
}
);
width = 570;
}
);
note = P;
unicode = 0050;
},
{
glyphname = Thorn;
layers = (
{
layerId = "44398CD6-F961-4ECB-B01A-EEBF1DAB2450";
paths = (
{
closed = 1;
nodes = (
"470 383 LINE",
"453 442 LINE",
"371 505 LINE",
"327 530 LINE",
"222 538 LINE",
"183 540 LINE",
"163 545 LINE",
"159 644 LINE",
"81 664 LINE",
"82 618 LINE",
"81 582 LINE",
"86 523 LINE",
"80 471 LINE",
"84 407 LINE",
"87 320 LINE",
"90 260 LINE",
"90 234 LINE",
"97 175 LINE",
"93 127 LINE",
"95 86 LINE",
"108 25 LINE",
"172 -3 LINE",
"175 72 LINE",
"175 104 LINE",
"179 148 LINE",
"181 185 LINE",
"251 166 LINE",
"325 144 LINE",
"384 177 LINE",
"456 262 LINE",
"460 283 LINE",
"485 353 LINE"
);
},
{
closed = 1;
nodes = (
"173 253 LINE",
"165 294 LINE",
"163 355 LINE",
"162 378 LINE",
"163 433 LINE",
"163 455 LINE",
"203 457 LINE",
"277 466 LINE",
"309 448 LINE",
"366 421 LINE",
"388 381 LINE",
"400 337 LINE",
"371 268 LINE",
"343 248 LINE",
"309 231 LINE",
"275 245 LINE",
"246 248 LINE",
"176 247 LINE"
);
}
);
width = 600;
}
);
unicode = 00DE;
},
{
glyphname = Q;
layers = (
{
layerId = "44398CD6-F961-4ECB-B01A-EEBF1DAB2450";
paths = (
{
closed = 1;
nodes = (
"296 73 LINE",
"285 76 LINE",
"275 78 LINE",
"240 87 LINE",
"202 116 LINE",
"200 116 LINE",
"188 148 LINE",
"175 166 LINE",
"169 189 LINE",
"151 227 LINE",
"155 268 LINE",
"141 305 LINE",
"143 332 LINE",
"153 368 LINE",
"153 387 LINE",
"154 413 LINE",
"163 435 LINE",
"178 490 LINE",
"197 514 LINE",
"197 555 LINE",
"197 557 LINE",
"237 588 LINE",
"263 597 LINE",
"279 604 LINE",
"296 602 LINE",
"323 601 LINE",
"355 609 LINE",
"368 584 LINE",
"390 558 LINE",
"401 549 LINE",
"418 514 LINE",
"448 476 LINE",
"459 407 LINE",
"469 380 LINE",
"471 351 LINE",
"488 317 LINE",
"487 312 LINE",
"465 291 LINE",
"463 256 LINE",
"458 236 LINE",
"454 204 LINE",
"445 177 LINE",
"440 159 LINE",
"423 127 LINE",
"415 121 LINE",
"382 143 LINE",
"344 73 LINE",
"333 65 LINE",
"315 73 LINE"
);
},
{
closed = 1;
nodes = (
"512 19 LINE",
"484 51 LINE",
"480 59 LINE",
"481 68 LINE",
"499 98 LINE",
"521 161 LINE",
"533 186 LINE",
"533 214 LINE",
"538 234 LINE",
"543 257 LINE",
"560 285 LINE",
"567 329 LINE",
"548 368 LINE",
"551 405 LINE",
"534 426 LINE",
"525 450 LINE",
"534 482 LINE",
"526 507 LINE",
"496 545 LINE",
"477 573 LINE",
"454 607 LINE",
"437 620 LINE",
"435 623 LINE",
"409 668 LINE",
"400 678 LINE",
"362 690 LINE",
"320 679 LINE",
"307 680 LINE",
"263 695 LINE",
"233 670 LINE",
"191 663 LINE",
"179 648 LINE",
"166 628 LINE",
"143 617 LINE",
"128 593 LINE",
"120 561 LINE",
"117 542 LINE",
"98 514 LINE",
"97 479 LINE",
"89 459 LINE",
"84 445 LINE",
"76 408 LINE",
"75 372 LINE",
"62 331 LINE",
"62 296 LINE",
"76 256 LINE",
"69 207 LINE",
"94 167 LINE",
"87 149 LINE",
"91 124 LINE",
"105 110 LINE",
"123 103 LINE",
"137 68 LINE",
"175 40 LINE",
"186 25 LINE",
"202 9 LINE",
"248 4 LINE",
"292 -5 LINE",
"315 -19 LINE",
"329 -19 LINE",
"341 -25 LINE",
"388 -2 LINE",
"411 10 LINE",
"437 -21 LINE",
"468 -50 LINE",
"515 -76 LINE",
"530 2 LINE"
);
}
);
width = 627;
}
);
note = Q;
unicode = 0051;
},
{
glyphname = R;
layers = (
{
layerId = "44398CD6-F961-4ECB-B01A-EEBF1DAB2450";
paths = (
{
closed = 1;
nodes = (
"574 79 LINE",
"552 123 LINE",
"536 154 LINE",
"499 185 LINE",
"487 213 LINE",
"452 270 LINE",
"441 298 LINE",
"418 326 LINE",
"417 331 LINE",
"423 337 LINE",
"469 357 LINE",
"509 397 LINE",
"535 429 LINE",
"546 470 LINE",
"552 512 LINE",
"555 537 LINE",
"548 564 LINE",
"503 619 LINE",
"480 633 LINE",
"472 637 LINE",
"435 655 LINE",
"399 673 LINE",
"357 681 LINE",
"312 668 LINE",
"245 681 LINE",
"213 682 LINE",
"195 681 LINE",
"161 690 LINE",
"100 683 LINE",
"96 601 LINE",
"97 572 LINE",
"103 527 LINE",
"99 480 LINE",
"103 460 LINE",
"104 450 LINE",
"104 423 LINE",
"99 379 LINE",
"111 323 LINE",
"112 305 LINE",
"102 286 LINE",
"105 259 LINE",
"99 233 LINE",
"107 189 LINE",
"107 168 LINE",
"106 145 LINE",
"103 107 LINE",
"107 52 LINE",
"189 52 LINE",
"198 95 LINE",
"188 148 LINE",
"188 165 LINE",
"186 227 LINE",
"192 280 LINE",
"194 320 LINE",
"188 364 LINE",
"185 398 LINE",
"186 435 LINE",
"185 445 LINE",
"184 474 LINE",
"180 495 LINE",
"184 527 LINE",
"178 563 LINE",
"178 590 LINE",
"179 594 LINE",
"219 600 LINE",
"269 597 LINE",
"324 587 LINE",
"364 597 LINE",
"388 582 LINE",
"420 575 LINE",
"446 559 LINE",
"458 552 LINE",
"467 544 LINE",
"472 535 LINE",
"472 533 LINE",
"469 510 LINE",
"458 466 LINE",
"455 464 LINE",
"436 444 LINE",
"401 419 LINE",
"367 398 LINE",
"365 398 LINE",
"335 389 LINE",
"314 390 LINE",
"268 377 LINE",
"252 384 LINE",
"230 384 LINE",
"202 361 LINE",
"237 302 LINE",
"272 294 LINE",
"314 308 LINE",
"326 307 LINE",
"339 296 LINE",
"370 259 LINE",
"393 213 LINE",
"400 204 LINE",
"421 159 LINE",
"436 128 LINE",
"466 109 LINE",
"495 52 LINE",
"506 34 LINE",
"581 71 LINE"
);
}
);
width = 635;
}
);
note = R;
unicode = 0052;
},
{
glyphname = S;
layers = (
{
layerId = "44398CD6-F961-4ECB-B01A-EEBF1DAB2450";
paths = (
{
closed = 1;
nodes = (
"525 252 LINE",
"519 285 LINE",
"500 310 LINE",
"497 353 LINE",
"457 381 LINE",
"436 391 LINE",
"394 422 LINE",
"370 431 LINE",
"344 433 LINE",
"306 440 LINE",
"277 437 LINE",
"255 442 LINE",
"230 446 LINE",
"199 455 LINE",
"195 456 LINE",
"172 469 LINE",
"165 476 LINE",
"172 504 LINE",
"186 528 LINE",
"213 563 LINE",
"216 566 LINE",
"239 579 LINE",
"278 596 LINE",
"327 609 LINE",
"350 613 LINE",
"367 601 LINE",
"400 587 LINE",
"426 571 LINE",
"429 562 LINE",
"436 536 LINE",
"447 524 LINE",
"502 485 LINE",
"525 544 LINE",
"509 578 LINE",
"499 634 LINE",
"447 656 LINE",
"413 667 LINE",
"376 700 LINE",
"331 692 LINE",
"322 690 LINE",
"286 682 LINE",
"224 664 LINE",
"194 657 LINE",
"179 638 LINE",
"135 608 LINE",
"125 586 LINE",
"112 562 LINE",
"88 519 LINE",
"72 480 LINE",
"82 459 LINE",
"90 434 LINE",
"105 420 LINE",
"114 404 LINE",
"133 390 LINE",
"153 388 LINE",
"178 377 LINE",
"242 361 LINE",
"307 359 LINE",
"347 352 LINE",
"353 351 LINE",
"365 345 LINE",
"384 317 LINE",
"418 311 LINE",
"420 309 LINE",
"437 255 LINE",
"450 205 LINE",
"449 204 LINE",
"431 181 LINE",
"428 149 LINE",
"393 119 LINE",
"388 116 LINE",
"357 103 LINE",
"323 88 LINE",
"295 97 LINE",
"256 116 LINE",
"213 120 LINE",
"168 155 LINE",
"151 168 LINE",
"99 201 LINE",
"82 121 LINE",
"111 95 LINE",
"141 73 LINE",
"169 50 LINE",
"206 40 LINE",
"243 36 LINE",
"261 20 LINE",
"283 16 LINE",
"300 4 LINE",
"329 4 LINE",
"353 8 LINE",
"371 23 LINE",
"397 28 LINE",
"417 41 LINE",
"446 59 LINE",
"464 75 LINE",
"491 88 LINE",
"506 109 LINE",
"510 147 LINE",
"522 168 LINE",
"531 190 LINE",
"534 212 LINE",
"535 235 LINE"
);
}
);
width = 593;
}
);
note = S;
unicode = 0053;
},
{
glyphname = Germandbls;
layers = (
{
annotations = (
{
position = "{251.705, 757.712}";
text = "Too bold";
type = Text;
}
);
layerId = "44398CD6-F961-4ECB-B01A-EEBF1DAB2450";
paths = (
{
closed = 1;
nodes = (
"685 268 LINE",
"671 331 LINE",
"658 340 LINE",
"649 352 LINE",
"618 366 LINE",
"602 372 LINE",
"590 378 LINE",
"573 399 LINE",
"512 405 LINE",
"471 410 LINE",
"455 424 LINE",
"436 437 LINE",
"431 450 LINE",
"435 464 LINE",
"467 479 LINE",
"477 493 LINE",
"483 508 LINE",
"534 532 LINE",
"561 539 LINE",
"598 539 LINE",
"628 561 LINE",
"686 618 LINE",
"623 669 LINE",
"598 685 LINE",
"571 695 LINE",
"542 695 LINE",
"528 688 LINE",
"513 683 LINE",
"492 682 LINE",
"473 675 LINE",
"440 677 LINE",
"370 688 LINE",
"337 691 LINE",
"309 678 LINE",
"280 679 LINE",
"248 677 LINE",
"233 670 LINE",
"216 663 LINE",
"194 648 LINE",
"157 608 LINE",
"138 592 LINE",
"125 563 LINE",
"101 487 LINE",
"94 444 LINE",
"83 396 LINE",
"69 361 LINE",
"69 343 LINE",
"75 326 LINE",
"78 268 LINE",
"96 203 LINE",
"98 179 LINE",
"92 116 LINE",
"93 63 LINE",
"155 11 LINE",
"199 85 LINE",
"203 144 LINE",
"205 198 LINE",
"196 253 LINE",
"183 313 LINE",
"180 349 LINE",
"188 389 LINE",
"200 444 LINE",
"201 451 LINE",
"211 491 LINE",
"230 529 LINE",
"258 562 LINE",
"278 573 LINE",
"279 574 LINE",
"316 571 LINE",
"353 581 LINE",
"393 580 LINE",
"398 577 LINE",
"391 564 LINE",
"366 548 LINE",
"343 530 LINE",
"325 476 LINE",
"324 418 LINE",
"328 404 LINE",
"332 387 LINE",
"350 361 LINE",
"375 335 LINE",
"392 330 LINE",
"407 320 LINE",
"435 297 LINE",
"481 298 LINE",
"521 290 LINE",
"555 275 LINE",
"568 268 LINE",
"582 216 LINE",
"588 175 LINE",
"588 170 LINE",
"586 167 LINE",
"566 154 LINE",
"549 138 LINE",
"512 129 LINE",
"483 132 LINE",
"453 130 LINE",
"430 146 LINE",
"403 161 LINE",
"385 185 LINE",
"367 204 LINE",
"282 222 LINE",
"285 137 LINE",
"300 117 LINE",
"315 102 LINE",
"351 67 LINE",
"374 54 LINE",
"395 40 LINE",
"433 22 LINE",
"456 22 LINE",
"481 24 LINE",
"564 26 LINE",
"620 44 LINE",
"633 68 LINE",
"657 84 LINE",
"664 94 LINE",
"675 106 LINE",
"688 135 LINE",
"691 149 LINE",
"697 166 LINE",
"690 199 LINE",
"700 237 LINE",
"700 237 LINE"
);
}
);
width = 756;
}
);
unicode = 1E9E;
},
{
glyphname = Schwa;
layers = (
{
layerId = "44398CD6-F961-4ECB-B01A-EEBF1DAB2450";
paths = (
{
closed = 1;
nodes = (
"554 376 LINE",
"552 416 LINE",
"516 477 LINE",
"494 549 LINE",
"471 581 LINE",
"436 613 LINE",
"402 641 LINE",
"343 678 LINE",
"262 696 LINE",
"172 697 LINE",
"106 674 LINE",
"55 653 LINE",
"114 595 LINE",
"163 620 LINE",
"218 630 LINE",
"276 616 LINE",
"338 595 LINE",
"367 568 LINE",
"403 542 LINE",
"419 515 LINE",
"437 478 LINE",
"441 454 LINE",
"470 404 LINE",
"477 344 LINE",
"467 340 LINE",
"453 339 LINE",
"390 336 LINE",
"362 335 LINE",
"298 345 LINE",
"231 351 LINE",
"165 333 LINE",
"117 327 LINE",
"72 274 LINE",
"52 246 LINE",
"41 197 LINE",
"52 160 LINE",
"76 125 LINE",
"102 87 LINE",
"161 45 LINE",
"211 18 LINE",
"291 14 LINE",
"369 36 LINE",
"438 80 LINE",
"477 117 LINE",
"515 154 LINE",
"528 196 LINE",
"549 280 LINE",
"556 334 LINE"
);
},
{
closed = 1;
nodes = (
"220 96 LINE",
"174 126 LINE",
"154 150 LINE",
"137 178 LINE",
"131 219 LINE",
"145 244 LINE",
"158 252 LINE",
"220 271 LINE",
"266 272 LINE",
"321 269 LINE",
"421 263 LINE",
"469 262 LINE",
"472 257 LINE",
"446 202 LINE",
"439 186 LINE",
"410 158 LINE",
"374 127 LINE",
"345 111 LINE",
"338 106 LINE",
"308 92 LINE",
"268 92 LINE",
"258 98 LINE"
);
}
);
width = 600;
}
);
unicode = 018F;
},
{
glyphname = T;
layers = (
{
layerId = "44398CD6-F961-4ECB-B01A-EEBF1DAB2450";
paths = (
{
closed = 1;
nodes = (
"447 678 LINE",
"400 680 LINE",
"372 681 LINE",
"311 674 LINE",
"217 683 LINE",
"190 674 LINE",
"166 675 LINE",
"74 671 LINE",
"49 610 LINE",
"119 607 LINE",
"129 607 LINE",
"171 598 LINE",
"209 598 LINE",
"214 578 LINE",
"218 537 LINE",
"225 496 LINE",
"229 464 LINE",
"236 436 LINE",
"241 364 LINE",
"251 327 LINE",
"248 269 LINE",
"253 224 LINE",
"255 179 LINE",
"269 113 LINE",
"272 60 LINE",
"297 16 LINE",
"346 88 LINE",
"333 157 LINE",
"338 207 LINE",
"327 254 LINE",
"330 302 LINE",
"321 360 LINE",
"309 404 LINE",
"308 486 LINE",
"307 526 LINE",
"304 566 LINE",
"304 596 LINE",
"349 605 LINE",
"381 604 LINE",
"422 601 LINE",
"494 620 LINE",
"460 680 LINE"
);
}
);
width = 546;
}
);
note = T;
unicode = 0054;
},
{
glyphname = U;
layers = (
{
layerId = "44398CD6-F961-4ECB-B01A-EEBF1DAB2450";
paths = (
{
closed = 1;
nodes = (
"399 33 LINE",
"434 47 LINE",
"480 62 LINE",
"501 111 LINE",
"532 153 LINE",
"553 184 LINE",
"566 227 LINE",
"572 246 LINE",
"577 271 LINE",
"581 288 LINE",
"594 325 LINE",
"597 352 LINE",
"608 393 LINE",
"608 412 LINE",
"615 491 LINE",
"615 516 LINE",
"609 546 LINE",
"604 564 LINE",
"592 590 LINE",
"589 618 LINE",
"588 663 LINE",
"509 643 LINE",
"507 594 LINE",
"508 561 LINE",
"527 540 LINE",
"534 520 LINE",
"536 511 LINE",
"535 497 LINE",
"537 466 LINE",
"537 458 LINE",
"518 426 LINE",
"528 394 LINE",
"516 351 LINE",
"516 343 LINE",
"502 305 LINE",
"498 283 LINE",
"497 279 LINE",
"480 221 LINE",
"448 174 LINE",
"418 129 LINE",
"384 112 LINE",
"350 96 LINE",
"343 93 LINE",
"328 88 LINE",
"325 88 LINE",
"296 90 LINE",
"268 101 LINE",
"249 117 LINE",
"220 164 LINE",
"215 170 LINE",
"191 197 LINE",
"175 222 LINE",
"178 285 LINE",
"174 306 LINE",
"160 344 LINE",
"170 376 LINE",
"164 409 LINE",
"161 464 LINE",
"158 509 LINE",
"159 531 LINE",
"155 569 LINE",
"157 586 LINE",
"158 615 LINE",
"159 623 LINE",
"81 640 LINE",
"78 609 LINE",
"78 599 LINE",
"75 576 LINE",
"79 535 LINE",
"78 482 LINE",
"85 433 LINE",
"86 377 LINE",
"76 331 LINE",
"96 288 LINE",
"100 270 LINE",
"94 219 LINE",
"113 173 LINE",
"117 147 LINE",
"148 126 LINE",
"166 105 LINE",
"169 101 LINE",
"198 48 LINE",
"253 19 LINE",
"311 9 LINE",
"346 11 LINE"
);
}
);
width = 682;
}
);
note = U;
unicode = 0055;
},
{
glyphname = Uhorn;
layers = (
{
layerId = "44398CD6-F961-4ECB-B01A-EEBF1DAB2450";
paths = (
{
closed = 1;
nodes = (
"702 718 LINE",
"682 698 LINE",
"668 670 LINE",
"645 635 LINE",
"633 624 LINE",
"624 623 LINE",
"587 614 LINE",
"583 620 LINE",
"583 622 LINE",
"584 643 LINE",
"583 669 LINE",
"583 712 LINE",
"558 733 LINE",
"507 693 LINE",
"506 647 LINE",
"505 628 LINE",
"507 597 LINE",
"486 580 LINE",
"480 554 LINE",
"520 517 LINE",
"528 472 LINE",
"532 444 LINE",
"538 422 LINE",
"537 391 LINE",
"528 366 LINE",
"532 322 LINE",
"529 314 LINE",
"505 289 LINE",
"506 254 LINE",
"503 246 LINE",
"493 234 LINE",
"479 216 LINE",
"465 182 LINE",
"431 142 LINE",
"425 129 LINE",
"414 124 LINE",
"387 110 LINE",
"366 94 LINE",
"339 81 LINE",
"325 89 LINE",
"302 91 LINE",
"261 100 LINE",
"252 106 LINE",
"222 142 LINE",
"216 174 LINE",
"202 223 LINE",
"196 249 LINE",
"188 299 LINE",
"190 343 LINE",
"186 387 LINE",
"182 421 LINE",
"176 465 LINE",
"170 500 LINE",
"164 517 LINE",
"163 522 LINE",
"162 547 LINE",
"165 585 LINE",
"148 607 LINE",
"141 660 LINE",
"131 693 LINE",
"72 720 LINE",
"52 694 LINE",
"62 655 LINE",
"67 625 LINE",
"66 592 LINE",
"82 562 LINE",
"84 537 LINE",
"85 524 LINE",
"90 491 LINE",
"94 476 LINE",
"95 434 LINE",
"99 394 LINE",
"108 350 LINE",
"112 322 LINE",
"110 285 LINE",
"116 263 LINE",
"124 212 LINE",
"130 185 LINE",
"140 137 LINE",
"170 80 LINE",
"192 40 LINE",
"212 36 LINE",
"228 29 LINE",
"265 21 LINE",
"301 12 LINE",
"318 3 LINE",
"345 1 LINE",
"388 19 LINE",
"390 20 LINE",
"419 31 LINE",
"441 50 LINE",
"462 59 LINE",
"483 71 LINE",
"494 89 LINE",
"504 112 LINE",
"524 125 LINE",
"537 135 LINE",
"545 172 LINE",
"552 182 LINE",
"579 219 LINE",
"592 263 LINE",
"600 281 LINE",
"609 308 LINE",
"605 349 LINE",
"617 404 LINE",
"608 462 LINE",
"607 505 LINE",
"611 525 LINE",
"631 542 LINE",
"689 556 LINE",
"694 569 LINE",
"704 578 LINE",
"723 606 LINE",
"747 652 LINE",
"775 690 LINE",
"755 729 LINE"
);
}
);
width = 808;
}
);
note = Uhorn;
unicode = 01AF;
},
{
glyphname = V;
layers = (
{
layerId = "44398CD6-F961-4ECB-B01A-EEBF1DAB2450";
paths = (
{
closed = 1;
nodes = (
"439 598 LINE",
"429 565 LINE",
"430 537 LINE",
"411 501 LINE",
"406 466 LINE",
"398 428 LINE",
"389 408 LINE",
"382 388 LINE",
"377 354 LINE",
"378 335 LINE",
"368 318 LINE",
"358 285 LINE",
"359 240 LINE",
"359 238 LINE",
"341 166 LINE",
"333 156 LINE",
"326 169 LINE",
"292 224 LINE",
"290 229 LINE",
"283 250 LINE",
"278 295 LINE",
"254 343 LINE",
"239 394 LINE",
"222 428 LINE",
"207 480 LINE",
"187 527 LINE",
"163 559 LINE",
"158 572 LINE",
"133 646 LINE",
"115 678 LINE",
"51 689 LINE",
"38 659 LINE",
"58 622 LINE",
"79 584 LINE",
"87 535 LINE",
"96 514 LINE",
"115 495 LINE",
"126 475 LINE",
"142 432 LINE",
"145 411 LINE",
"158 381 LINE",
"168 345 LINE",
"192 293 LINE",
"201 254 LINE",
"210 219 LINE",
"214 206 LINE",
"238 165 LINE",
"260 118 LINE",
"270 96 LINE",
"275 66 LINE",
"289 40 LINE",
"317 12 LINE",
"338 7 LINE",
"357 1 LINE",
"401 54 LINE",
"399 107 LINE",
"420 138 LINE",
"419 185 LINE",
"430 205 LINE",
"436 276 LINE",
"438 282 LINE",
"465 312 LINE",
"456 357 LINE",
"456 362 LINE",
"463 379 LINE",
"485 428 LINE",
"488 480 LINE",
"503 505 LINE",
"508 559 LINE",
"509 563 LINE",
"487 630 LINE"
);
}
);
width = 565;
}
);
note = V;
unicode = 0056;
},
{
glyphname = W;
layers = (
{
layerId = "44398CD6-F961-4ECB-B01A-EEBF1DAB2450";
paths = (
{
closed = 1;
nodes = (
"651 21 LINE",
"655 33 LINE",
"661 46 LINE",
"685 92 LINE",
"685 95 LINE",
"694 128 LINE",
"696 139 LINE",
"704 201 LINE",
"719 237 LINE",
"727 273 LINE",
"726 309 LINE",
"730 331 LINE",
"747 376 LINE",
"748 428 LINE",
"759 441 LINE",
"764 466 LINE",
"778 495 LINE",
"772 533 LINE",
"777 582 LINE",
"790 610 LINE",
"795 676 LINE",
"729 661 LINE",
"715 632 LINE",
"699 587 LINE",
"698 564 LINE",
"696 514 LINE",
"679 468 LINE",
"668 413 LINE",
"659 375 LINE",
"652 339 LINE",
"649 286 LINE",
"642 249 LINE",
"626 224 LINE",
"624 175 LINE",
"621 160 LINE",
"617 151 LINE",
"602 172 LINE",
"597 186 LINE",
"580 247 LINE",
"566 282 LINE",
"560 323 LINE",
"544 358 LINE",
"519 418 LINE",
"513 443 LINE",
"501 501 LINE",
"492 522 LINE",
"490 554 LINE",
"478 583 LINE",
"456 617 LINE",
"453 637 LINE",
"439 656 LINE",
"377 633 LINE",
"366 606 LINE",
"364 573 LINE",
"357 559 LINE",
"348 492 LINE",
"342 474 LINE",
"320 440 LINE",
"320 400 LINE",
"306 356 LINE",
"297 343 LINE",
"294 323 LINE",
"290 308 LINE",
"287 279 LINE",
"264 230 LINE",
"264 204 LINE",
"255 190 LINE",
"254 215 LINE",
"234 259 LINE",
"233 266 LINE",
"229 319 LINE",
"211 348 LINE",
"203 398 LINE",
"197 425 LINE",
"192 444 LINE",
"180 470 LINE",
"177 493 LINE",
"159 531 LINE",
"152 554 LINE",
"147 596 LINE",
"129 623 LINE",
"116 665 LINE",
"81 682 LINE",
"49 622 LINE",
"70 568 LINE",
"81 514 LINE",
"100 479 LINE",
"100 449 LINE",
"118 420 LINE",
"122 402 LINE",
"130 356 LINE",
"133 327 LINE",
"156 290 LINE",
"154 264 LINE",
"161 232 LINE",
"176 205 LINE",
"167 185 LINE",
"170 160 LINE",
"185 114 LINE",
"186 91 LINE",
"207 42 LINE",
"269 17 LINE",
"291 49 LINE",
"311 90 LINE",
"318 113 LINE",
"326 153 LINE",
"348 183 LINE",
"342 221 LINE",
"357 237 LINE",
"367 251 LINE",
"367 288 LINE",
"371 312 LINE",
"383 351 LINE",
"403 380 LINE",
"399 420 LINE",
"418 452 LINE",
"423 471 LINE",
"426 477 LINE",
"427 476 LINE",
"436 453 LINE",
"439 420 LINE",
"442 407 LINE",
"462 360 LINE",
"471 321 LINE",
"487 288 LINE",
"494 248 LINE",
"509 215 LINE",
"516 197 LINE",
"522 160 LINE",
"530 142 LINE",
"536 125 LINE",
"542 84 LINE",
"553 63 LINE",
"586 15 LINE",
"628 3 LINE"
);
}
);
width = 854;
}
);
note = W;
unicode = 0057;
},
{
glyphname = X;
layers = (
{
layerId = "44398CD6-F961-4ECB-B01A-EEBF1DAB2450";
paths = (
{
closed = 1;
nodes = (
"483 105 LINE",
"448 150 LINE",
"443 186 LINE",
"417 210 LINE",
"407 229 LINE",
"395 268 LINE",
"365 289 LINE",
"354 311 LINE",
"325 360 LINE",
"326 372 LINE",
"368 427 LINE",
"386 444 LINE",
"406 476 LINE",
"411 488 LINE",
"420 507 LINE",
"429 527 LINE",
"443 548 LINE",
"476 593 LINE",
"496 630 LINE",
"419 649 LINE",
"401 617 LINE",
"385 601 LINE",
"356 556 LINE",
"349 541 LINE",
"342 526 LINE",
"331 501 LINE",
"330 500 LINE",
"296 459 LINE",
"289 444 LINE",
"277 438 LINE",
"254 487 LINE",
"252 489 LINE",
"236 525 LINE",
"227 545 LINE",
"178 597 LINE",
"172 607 LINE",
"163 622 LINE",
"126 677 LINE",
"86 627 LINE",
"93 586 LINE",
"104 567 LINE",
"120 545 LINE",
"156 513 LINE",
"162 497 LINE",
"179 462 LINE",
"196 433 LINE",
"207 392 LINE",
"232 369 LINE",
"230 351 LINE",
"215 323 LINE",
"191 274 LINE",
"184 262 LINE",
"156 243 LINE",
"138 219 LINE",
"138 192 LINE",
"133 183 LINE",
"104 160 LINE",
"86 131 LINE",
"83 128 LINE",
"61 76 LINE",
"107 10 LINE",
"142 75 LINE",
"159 103 LINE",
"162 107 LINE",
"196 136 LINE",
"210 160 LINE",
"218 191 LINE",
"253 222 LINE",
"262 242 LINE",
"271 265 LINE",
"278 271 LINE",
"293 259 LINE",
"324 221 LINE",
"343 180 LINE",
"368 144 LINE",
"375 109 LINE",
"406 81 LINE",
"423 50 LINE",
"452 10 LINE",
"503 72 LINE"
);
}
);
width = 566;
}
);
note = X;
unicode = 0058;
},
{
glyphname = Y;
layers = (
{
layerId = "44398CD6-F961-4ECB-B01A-EEBF1DAB2450";
paths = (
{
closed = 1;
nodes = (
"461 651 LINE",
"441 635 LINE",
"428 623 LINE",
"409 580 LINE",
"350 515 LINE",
"331 469 LINE",
"325 461 LINE",
"284 411 LINE",
"281 407 LINE",
"270 401 LINE",
"261 417 LINE",
"244 450 LINE",
"218 480 LINE",
"210 494 LINE",
"196 523 LINE",
"172 545 LINE",
"159 563 LINE",
"142 596 LINE",
"135 622 LINE",
"133 622 LINE",
"91 670 LINE",
"43 619 LINE",
"67 572 LINE",
"81 549 LINE",
"99 516 LINE",
"107 502 LINE",
"133 475 LINE",
"140 463 LINE",
"150 444 LINE",
"176 411 LINE",
"194 382 LINE",
"199 369 LINE",
"210 327 LINE",
"210 287 LINE",
"224 256 LINE",
"222 214 LINE",
"227 164 LINE",
"226 152 LINE",
"234 109 LINE",
"222 80 LINE",
"232 49 LINE",
"309 53 LINE",
"306 78 LINE",
"311 103 LINE",
"304 143 LINE",
"305 162 LINE",
"301 196 LINE",
"298 231 LINE",
"303 257 LINE",
"296 293 LINE",
"307 316 LINE",
"329 346 LINE",
"347 366 LINE",
"362 390 LINE",
"381 407 LINE",
"396 425 LINE",
"410 453 LINE",
"429 499 LINE",
"445 509 LINE",
"467 525 LINE",
"488 571 LINE",
"495 580 LINE",
"530 617 LINE",
"515 658 LINE"
);
}
);
width = 569;
}
);
note = Y;
unicode = 0059;
},
{
glyphname = Z;
layers = (
{
layerId = "44398CD6-F961-4ECB-B01A-EEBF1DAB2450";
paths = (
{
closed = 1;
nodes = (
"184 12 LINE",
"201 21 LINE",
"251 10 LINE",
"264 11 LINE",
"311 23 LINE",
"323 25 LINE",
"347 15 LINE",
"376 24 LINE",
"403 24 LINE",
"441 16 LINE",
"480 28 LINE",
"520 21 LINE",
"548 26 LINE",
"549 26 LINE",
"565 104 LINE",
"527 103 LINE",
"516 101 LINE",
"483 110 LINE",
"437 98 LINE",
"392 104 LINE",
"385 104 LINE",
"350 101 LINE",
"319 105 LINE",
"292 101 LINE",
"261 91 LINE",
"242 91 LINE",
"201 101 LINE",
"183 101 LINE",
"186 121 LINE",
"220 155 LINE",
"229 169 LINE",
"260 182 LINE",
"280 211 LINE",
"304 237 LINE",
"314 253 LINE",
"326 277 LINE",
"349 302 LINE",
"359 317 LINE",
"387 338 LINE",
"426 386 LINE",
"459 420 LINE",
"487 457 LINE",
"524 479 LINE",
"535 491 LINE",
"576 544 LINE",
"609 579 LINE",
"634 611 LINE",
"672 677 LINE",
"634 698 LINE",
"610 698 LINE",
"589 689 LINE",
"558 685 LINE",
"543 682 LINE",
"495 682 LINE",
"450 672 LINE",
"424 669 LINE",
"400 663 LINE",
"395 662 LINE",
"370 661 LINE",
"306 658 LINE",
"297 658 LINE",
"265 654 LINE",
"220 651 LINE",
"158 648 LINE",
"126 644 LINE",
"97 629 LINE",
"76 565 LINE",
"108 549 LINE",
"128 553 LINE",
"141 563 LINE",
"202 571 LINE",
"249 572 LINE",
"276 570 LINE",
"292 578 LINE",
"322 580 LINE",
"337 582 LINE",
"365 572 LINE",
"391 582 LINE",
"425 587 LINE",
"439 590 LINE",
"489 593 LINE",
"510 593 LINE",
"509 589 LINE",
"497 568 LINE",
"481 549 LINE",
"466 535 LINE",
"426 510 LINE",
"412 491 LINE",
"382 455 LINE",
"364 438 LINE",
"347 412 LINE",
"324 388 LINE",
"292 362 LINE",
"281 344 LINE",
"258 327 LINE",
"246 296 LINE",
"239 286 LINE",
"199 244 LINE",
"168 230 LINE",
"151 195 LINE",
"129 177 LINE",
"108 143 LINE",
"84 120 LINE",
"71 91 LINE",
"49 24 LINE",
"85 10 LINE",
"134 7 LINE",
"157 14 LINE"
);
}
);
width = 712;
}
);
note = Z;
unicode = 005A;
},
{
glyphname = a;
layers = (
{
layerId = "44398CD6-F961-4ECB-B01A-EEBF1DAB2450";
paths = (
{
closed = 1;
nodes = (
"272 101 LINE",
"265 96 LINE",
"229 96 LINE",
"221 94 LINE",
"179 109 LINE",
"168 112 LINE",
"158 133 LINE",
"148 157 LINE",
"148 174 LINE",
"149 178 LINE",
"189 225 LINE",
"203 234 LINE",
"216 238 LINE",
"261 245 LINE",
"273 249 LINE",
"284 249 LINE",
"337 253 LINE",
"355 257 LINE",
"359 238 LINE",
"355 169 LINE",
"351 151 LINE",
"346 143 LINE",
"304 123 LINE",
"297 118 LINE",
"282 110 LINE"
);
},
{
closed = 1;
nodes = (
"112 360 LINE",
"141 399 LINE",
"152 409 LINE",
"167 418 LINE",
"200 434 LINE",
"224 436 LINE",
"271 427 LINE",
"295 405 LINE",
"311 395 LINE",
"316 369 LINE",
"332 353 LINE",
"333 345 LINE",
"333 340 LINE",
"321 337 LINE",
"290 333 LINE",
"258 332 LINE",
"233 324 LINE",
"164 310 LINE",
"141 296 LINE",
"98 246 LINE",
"76 226 LINE",
"54 206 LINE",
"50 180 LINE",
"63 153 LINE",
"82 99 LINE",
"113 41 LINE",
"142 30 LINE",
"168 24 LINE",
"205 11 LINE",
"246 13 LINE",
"265 6 LINE",
"296 15 LINE",
"336 42 LINE",
"362 60 LINE",
"370 60 LINE",
"446 104 LINE",
"454 125 LINE",
"448 153 LINE",
"440 202 LINE",
"443 251 LINE",
"440 270 LINE",
"434 298 LINE",
"420 353 LINE",
"405 400 LINE",
"357 466 LINE",
"347 473 LINE",
"301 515 LINE",
"247 519 LINE",
"199 519 LINE",
"175 519 LINE",
"155 508 LINE",
"132 503 LINE",
"116 488 LINE",
"102 478 LINE",
"81 460 LINE",
"62 428 LINE",
"107 355 LINE"
);
}
);
width = 517;
}
);
note = a;
unicode = 0061;
},
{
glyphname = ae;
layers = (
{
layerId = "44398CD6-F961-4ECB-B01A-EEBF1DAB2450";
paths = (
{
closed = 1;
nodes = (
"280 99 LINE",
"273 94 LINE",
"235 94 LINE",
"227 93 LINE",
"183 108 LINE",
"173 110 LINE",
"163 133 LINE",
"151 158 LINE",
"151 175 LINE",
"153 179 LINE",
"195 228 LINE",
"209 237 LINE",
"222 242 LINE",
"268 248 LINE",
"282 252 LINE",
"293 253 LINE",
"348 257 LINE",
"366 261 LINE",
"370 242 LINE",
"366 170 LINE",
"362 151 LINE",
"356 144 LINE",
"356 144 LINE",
"313 122 LINE",
"306 117 LINE",
"290 109 LINE",
"290 109 LINE"
);
},
{
closed = 1;
nodes = (
"114 367 LINE",
"145 408 LINE",
"156 418 LINE",
"171 428 LINE",
"205 444 LINE",
"231 446 LINE",
"279 437 LINE",
"304 415 LINE",
"320 403 LINE",
"326 377 LINE",
"342 361 LINE",
"343 352 LINE",
"343 347 LINE",
"331 344 LINE",
"299 340 LINE",
"266 338 LINE",
"240 331 LINE",
"168 315 LINE",
"145 301 LINE",
"100 249 LINE",
"78 229 LINE",
"55 209 LINE",
"50 181 LINE",
"63 153 LINE",
"83 97 LINE",
"115 38 LINE",
"146 26 LINE",
"173 20 LINE",
"211 7 LINE",
"253 8 LINE",
"273 1 LINE",
"305 10 LINE",
"347 39 LINE",
"373 57 LINE",
"382 58 LINE",
"460 103 LINE",
"469 125 LINE",
"462 153 LINE",
"454 204 LINE",
"457 255 LINE",
"454 275 LINE",
"448 303 LINE",
"433 361 LINE",
"418 409 LINE",
"369 477 LINE",
"357 485 LINE",
"310 528 LINE",
"254 532 LINE",
"204 532 LINE",
"180 532 LINE",
"159 520 LINE",
"135 516 LINE",
"118 500 LINE",
"104 489 LINE",
"82 471 LINE",
"62 438 LINE",
"110 363 LINE",
"110 363 LINE"
);
},
{
closed = 1;
nodes = (
"654 447 LINE",
"667 449 LINE",
"667 449 LINE",
"709 416 LINE",
"734 388 LINE",
"754 350 LINE",
"756 339 LINE",
"748 332 LINE",
"739 329 LINE",
"704 330 LINE",
"669 335 LINE",
"634 324 LINE",
"610 323 LINE",
"563 328 LINE",
"529 313 LINE",
"519 313 LINE",
"511 314 LINE",
"501 320 LINE",
"512 352 LINE",
"545 386 LINE",
"566 420 LINE",
"600 439 LINE",
"601 439 LINE",
"635 442 LINE",
"635 442 LINE"
);
},
{
closed = 1;
nodes = (
"393 205 LINE",
"400 152 LINE",
"429 106 LINE",
"454 75 LINE",
"463 66 LINE",
"479 50 LINE",
"496 34 LINE",
"512 16 LINE",
"566 19 LINE",
"576 19 LINE",
"639 12 LINE",
"683 22 LINE",
"694 29 LINE",
"708 33 LINE",
"762 57 LINE",
"780 106 LINE",
"737 133 LINE",
"688 110 LINE",
"663 102 LINE",
"644 93 LINE",
"619 93 LINE",
"581 100 LINE",
"562 97 LINE",
"544 97 LINE",
"533 107 LINE",
"521 119 LINE",
"503 137 LINE",
"479 169 LINE",
"475 192 LINE",
"470 222 LINE",
"470 229 LINE",
"491 237 LINE",
"514 233 LINE",
"543 236 LINE",
"575 247 LINE",
"626 241 LINE",
"675 252 LINE",
"722 249 LINE",
"775 256 LINE",
"835 269 LINE",
"843 297 LINE",
"840 333 LINE",
"835 352 LINE",
"820 408 LINE",
"794 447 LINE",
"765 473 LINE",
"736 493 LINE",
"716 513 LINE",
"692 528 LINE",
"663 528 LINE",
"634 523 LINE",
"614 519 LINE",
"566 511 LINE",
"534 493 LINE",
"498 465 LINE",
"475 424 LINE",
"446 403 LINE",
"433 362 LINE",
"401 331 LINE",
"393 294 LINE",
"378 251 LINE",
"378 251 LINE"
);
}
);
width = 875;
}
);
unicode = 00E6;
},
{
glyphname = b;
layers = (
{
layerId = "44398CD6-F961-4ECB-B01A-EEBF1DAB2450";
paths = (
{
closed = 1;
nodes = (
"166 79 LINE",
"165 106 LINE",
"152 162 LINE",
"152 165 LINE",
"162 221 LINE",
"163 264 LINE",
"169 284 LINE",
"181 308 LINE",
"205 337 LINE",
"216 342 LINE",
"263 351 LINE",
"278 350 LINE",
"319 340 LINE",
"319 339 LINE",
"327 329 LINE",
"351 304 LINE",
"367 281 LINE",
"369 252 LINE",
"374 232 LINE",
"375 186 LINE",
"372 167 LINE",
"370 163 LINE",
"335 123 LINE",
"324 114 LINE",
"308 101 LINE",
"257 94 LINE",
"232 83 LINE",
"207 82 LINE",
"169 68 LINE"
);
},
{
closed = 1;
nodes = (
"84 634 LINE",
"82 611 LINE",
"70 566 LINE",
"73 542 LINE",
"83 530 LINE",
"79 469 LINE",
"79 431 LINE",
"69 411 LINE",
"71 385 LINE",
"86 350 LINE",
"77 319 LINE",
"77 282 LINE",
"77 247 LINE",
"77 199 LINE",
"74 182 LINE",
"73 145 LINE",
"85 116 LINE",
"86 71 LINE",
"86 64 LINE",
"82 43 LINE",
"79 19 LINE",
"116 -36 LINE",
"159 12 LINE",
"161 27 LINE",
"161 28 LINE",
"215 3 LINE",
"229 3 LINE",
"281 17 LINE",
"306 20 LINE",
"372 49 LINE",
"387 61 LINE",
"412 87 LINE",
"448 136 LINE",
"457 153 LINE",
"466 174 LINE",
"461 219 LINE",
"448 268 LINE",
"448 277 LINE",
"450 290 LINE",
"424 344 LINE",
"394 375 LINE",
"393 375 LINE",
"378 395 LINE",
"333 421 LINE",
"311 426 LINE",
"287 431 LINE",
"269 432 LINE",
"229 429 LINE",
"194 428 LINE",
"161 421 LINE",
"159 431 LINE",
"160 479 LINE",
"161 504 LINE",
"163 531 LINE",
"152 569 LINE",
"163 614 LINE",
"163 622 LINE",
"164 653 LINE",
"151 683 LINE",
"72 703 LINE",
"77 649 LINE"
);
}
);
width = 511;
}
);
note = b;
unicode = 0062;
},
{
glyphname = c;
layers = (
{
layerId = "44398CD6-F961-4ECB-B01A-EEBF1DAB2450";
paths = (
{
closed = 1;
nodes = (
"423 140 LINE",
"377 126 LINE",
"338 105 LINE",
"319 99 LINE",
"266 87 LINE",
"227 93 LINE",
"206 106 LINE",
"144 177 LINE",
"136 197 LINE",
"130 237 LINE",
"132 290 LINE",
"165 378 LINE",
"195 394 LINE",
"239 427 LINE",
"261 440 LINE",
"281 444 LINE",
"325 438 LINE",
"357 423 LINE",
"388 371 LINE",
"448 362 LINE",
"454 426 LINE",
"441 445 LINE",
"427 475 LINE",
"373 509 LINE",
"334 524 LINE",
"316 521 LINE",
"297 533 LINE",
"265 531 LINE",
"224 520 LINE",
"170 477 LINE",
"138 456 LINE",
"95 440 LINE",
"80 358 LINE",
"49 291 LINE",
"46 249 LINE",
"50 206 LINE",
"58 162 LINE",
"67 114 LINE",
"103 102 LINE",
"124 74 LINE",
"166 22 LINE",
"179 23 LINE",
"193 12 LINE",
"234 10 LINE",
"297 9 LINE",
"357 22 LINE",
"394 36 LINE",
"435 57 LINE",
"474 117 LINE"
);
}
);
width = 518;
}
);
note = c;
unicode = 0063;
},
{
glyphname = d;
layers = (
{
layerId = "44398CD6-F961-4ECB-B01A-EEBF1DAB2450";
paths = (
{
closed = 1;
nodes = (
"226 394 LINE",
"234 394 LINE",
"248 392 LINE",
"274 387 LINE",
"305 362 LINE",
"315 343 LINE",
"317 337 LINE",
"319 283 LINE",
"324 260 LINE",
"336 245 LINE",
"336 233 LINE",
"342 197 LINE",
"322 163 LINE",
"318 154 LINE",
"307 130 LINE",
"292 122 LINE",
"247 109 LINE",
"219 103 LINE",
"166 124 LINE",
"142 159 LINE",
"127 199 LINE",
"138 235 LINE",
"131 280 LINE",
"132 290 LINE",
"139 327 LINE",
"179 364 LINE",
"195 370 LINE"
);
},
{
closed = 1;
nodes = (
"59 150 LINE",
"56 112 LINE",
"81 85 LINE",
"111 53 LINE",
"133 47 LINE",
"160 41 LINE",
"206 13 LINE",
"258 26 LINE",
"295 39 LINE",
"331 51 LINE",
"347 60 LINE",
"347 57 LINE",
"427 42 LINE",
"428 74 LINE",
"435 92 LINE",
"431 119 LINE",
"423 144 LINE",
"425 170 LINE",
"430 210 LINE",
"422 249 LINE",
"429 301 LINE",
"431 330 LINE",
"424 363 LINE",
"420 401 LINE",
"424 422 LINE",
"424 455 LINE",
"431 481 LINE",
"417 533 LINE",
"426 560 LINE",
"430 580 LINE",
"428 620 LINE",
"424 672 LINE",
"351 707 LINE",
"343 659 LINE",
"347 640 LINE",
"349 593 LINE",
"346 576 LINE",
"333 525 LINE",
"347 486 LINE",
"342 439 LINE",
"340 438 LINE",
"326 455 LINE",
"310 472 LINE",
"266 471 LINE",
"242 475 LINE",
"219 477 LINE",
"194 471 LINE",
"161 446 LINE",
"127 439 LINE",
"109 410 LINE",
"67 363 LINE",
"57 329 LINE",
"50 300 LINE",
"56 241 LINE",
"45 214 LINE"
);
}
);
width = 507;
}
);
note = d;
unicode = 0064;
},
{
glyphname = eth;
layers = (
{
layerId = "44398CD6-F961-4ECB-B01A-EEBF1DAB2450";
paths = (
{
closed = 1;
nodes = (
"528 357 LINE",
"500 428 LINE",
"485 494 LINE",
"458 556 LINE",
"446 587 LINE",
"438 624 LINE",
"436 630 LINE",
"529 708 LINE",
"460 723 LINE",
"384 693 LINE",
"358 726 LINE",
"329 768 LINE",
"273 708 LINE",
"294 667 LINE",
"227 633 LINE",
"287 580 LINE",
"360 596 LINE",
"361 595 LINE",
"365 589 LINE",
"379 542 LINE",
"381 538 LINE",
"401 501 LINE",
"396 488 LINE",
"395 488 LINE",
"294 524 LINE",
"244 514 LINE",
"222 501 LINE",
"188 483 LINE",
"144 441 LINE",
"105 423 LINE",
"98 368 LINE",
"92 310 LINE",
"89 290 LINE",
"79 211 LINE",
"126 131 LINE",
"250 24 LINE",
"338 7 LINE",
"429 48 LINE",
"464 92 LINE",
"506 149 LINE",
"532 177 LINE",
"519 225 LINE",
"539 305 LINE",
"539 305 LINE"
);
},
{
closed = 1;
nodes = (
"302 91 LINE",
"261 111 LINE",
"232 113 LINE",
"227 116 LINE",
"207 132 LINE",
"199 174 LINE",
"166 206 LINE",
"156 243 LINE",
"176 329 LINE",
"180 367 LINE",
"218 405 LINE",
"242 420 LINE",
"281 440 LINE",
"313 443 LINE",
"325 442 LINE",
"364 406 LINE",
"385 380 LINE",
"456 309 LINE",
"449 283 LINE",
"441 200 LINE",
"427 165 LINE",
"384 118 LINE",
"354 87 LINE",
"335 88 LINE",
"335 88 LINE"
);
},
{
closed = 1;
nodes = (
"308 660 LINE",
"308 660 LINE",
"304 662 LINE",
"306 661 LINE",
"306 661 LINE"
);
}
);
width = 600;
}
);
unicode = 00F0;
},
{
glyphname = dcaron;
layers = (
{
layerId = "44398CD6-F961-4ECB-B01A-EEBF1DAB2450";
paths = (
{
closed = 1;
nodes = (
"638 477 LINE",
"567 482 LINE",
"567 489 LINE",
"553 518 LINE",
"560 551 LINE",
"559 557 LINE",
"555 582 LINE",
"556 620 LINE",
"559 642 LINE",
"561 655 LINE",
"560 666 LINE",
"548 699 LINE",
"554 733 LINE",
"623 755 LINE",
"620 704 LINE",
"630 675 LINE",
"631 651 LINE",
"628 628 LINE",
"626 616 LINE",
"626 584 LINE",
"627 575 LINE",
"630 546 LINE",
"629 527 LINE",
"635 505 LINE",
"635 505 LINE"
);
},
{
closed = 1;
nodes = (
"226 400 LINE",
"234 400 LINE",
"248 398 LINE",
"274 393 LINE",
"305 368 LINE",
"315 349 LINE",
"317 343 LINE",
"319 289 LINE",
"324 266 LINE",
"336 251 LINE",
"336 239 LINE",
"342 203 LINE",
"322 169 LINE",
"318 160 LINE",
"307 136 LINE",
"292 128 LINE",
"247 115 LINE",
"219 109 LINE",
"166 130 LINE",
"166 130 LINE",
"142 165 LINE",
"127 205 LINE",
"138 241 LINE",
"131 286 LINE",
"132 296 LINE",
"139 333 LINE",
"179 370 LINE",
"195 376 LINE",
"195 376 LINE"
);
},
{
closed = 1;
nodes = (
"59 156 LINE",
"56 118 LINE",
"81 91 LINE",
"111 59 LINE",
"133 53 LINE",
"160 47 LINE",
"206 19 LINE",
"258 32 LINE",
"295 45 LINE",
"331 57 LINE",
"347 66 LINE",
"347 63 LINE",
"427 48 LINE",
"428 80 LINE",
"435 98 LINE",
"431 125 LINE",
"423 150 LINE",
"425 176 LINE",
"430 216 LINE",
"422 255 LINE",
"429 307 LINE",
"431 336 LINE",
"424 369 LINE",
"420 407 LINE",
"424 428 LINE",
"424 461 LINE",
"431 487 LINE",
"417 539 LINE",
"426 566 LINE",
"430 586 LINE",
"428 626 LINE",
"424 678 LINE",
"351 713 LINE",
"343 665 LINE",
"347 646 LINE",
"349 599 LINE",
"346 582 LINE",
"333 531 LINE",
"347 492 LINE",
"342 445 LINE",
"340 444 LINE",
"326 461 LINE",
"310 478 LINE",
"266 477 LINE",
"242 481 LINE",
"219 483 LINE",
"194 477 LINE",
"161 452 LINE",
"127 445 LINE",
"109 416 LINE",
"67 369 LINE",
"57 335 LINE",
"50 306 LINE",
"56 247 LINE",
"45 220 LINE",
"45 220 LINE"
);
}
);
width = 600;
}
);
unicode = 010F;
},
{
glyphname = dzcaron;
layers = (
{
layerId = "44398CD6-F961-4ECB-B01A-EEBF1DAB2450";
paths = (
{
closed = 1;
nodes = (
"281 104 LINE",
"271 191 LINE",
"266 266 LINE",
"275 339 LINE",
"268 418 LINE",
"268 439 LINE",
"262 500 LINE",
"259 552 LINE",
"264 635 LINE",
"268 699 LINE",
"192 716 LINE",
"194 671 LINE",
"179 638 LINE",
"189 599 LINE",
"186 522 LINE",
"186 473 LINE",
"145 501 LINE",
"85 522 LINE",
"44 523 LINE",
"-17 521 LINE",
"-68 477 LINE",
"-99 449 LINE",
"-135 395 LINE",
"-144 365 LINE",
"-140 238 LINE",
"-128 175 LINE",
"-80 120 LINE",
"-43 96 LINE",
"-8 62 LINE",
"12 60 LINE",
"29 48 LINE",
"100 62 LINE",
"156 66 LINE",
"195 81 LINE",
"203 85 LINE",
"210 58 LINE",
"269 15 LINE",
"284 99 LINE"
);
},
{
closed = 1;
nodes = (
"52 126 LINE",
"25 137 LINE",
"-13 173 LINE",
"-55 197 LINE",
"-57 200 LINE",
"-73 306 LINE",
"-72 317 LINE",
"-58 356 LINE",
"-46 389 LINE",
"-34 403 LINE",
"5 445 LINE",
"16 446 LINE",
"68 440 LINE",
"96 439 LINE",
"126 420 LINE",
"194 386 LINE",
"199 380 LINE",
"201 312 LINE",
"194 233 LINE",
"192 218 LINE",
"179 186 LINE",
"143 141 LINE",
"123 138 LINE"
);
},
{
closed = 1;
nodes = (
"683 45 LINE",
"654 54 LINE",
"588 40 LINE",
"548 31 LINE",
"459 25 LINE",
"403 21 LINE",
"365 82 LINE",
"395 128 LINE",
"428 187 LINE",
"471 228 LINE",
"497 277 LINE",
"508 309 LINE",
"535 330 LINE",
"549 361 LINE",
"579 374 LINE",
"594 396 LINE",
"597 417 LINE",
"558 421 LINE",
"506 412 LINE",
"452 402 LINE",
"387 406 LINE",
"348 407 LINE",
"368 481 LINE",
"426 482 LINE",
"466 484 LINE",
"526 493 LINE",
"553 507 LINE",
"585 495 LINE",
"611 506 LINE",
"641 496 LINE",
"729 478 LINE",
"711 426 LINE",
"671 380 LINE",
"609 301 LINE",
"576 261 LINE",
"549 212 LINE",
"501 156 LINE",
"476 105 LINE",
"492 96 LINE",
"550 112 LINE",
"605 117 LINE",
"696 123 LINE",
"716 47 LINE"
);
},
{
closed = 1;
nodes = (
"453 723 LINE",
"491 661 LINE",
"543 655 LINE",
"586 680 LINE",
"611 707 LINE",
"684 677 LINE",
"656 636 LINE",
"584 586 LINE",
"551 566 LINE",
"506 584 LINE",
"435 599 LINE",
"409 660 LINE",
"387 680 LINE"
);
}
);
width = 600;
}
);
unicode = 01C6;
},
{
glyphname = e;
layers = (
{
layerId = "44398CD6-F961-4ECB-B01A-EEBF1DAB2450";
paths = (
{
closed = 1;
nodes = (
"312 447 LINE",
"325 449 LINE",
"367 416 LINE",
"392 388 LINE",
"412 350 LINE",
"414 339 LINE",
"406 332 LINE",
"397 329 LINE",
"362 330 LINE",
"327 335 LINE",
"292 324 LINE",
"268 323 LINE",
"221 328 LINE",
"187 313 LINE",
"177 313 LINE",
"169 314 LINE",
"159 320 LINE",
"170 352 LINE",
"203 386 LINE",
"224 420 LINE",
"258 439 LINE",
"259 439 LINE",
"293 442 LINE"
);
},
{
closed = 1;
nodes = (
"51 205 LINE",
"58 152 LINE",
"87 106 LINE",
"112 75 LINE",
"121 66 LINE",
"137 50 LINE",
"154 34 LINE",
"170 16 LINE",
"224 19 LINE",
"234 19 LINE",
"297 12 LINE",
"341 22 LINE",
"352 29 LINE",
"366 33 LINE",
"420 57 LINE",
"438 106 LINE",
"395 133 LINE",
"346 110 LINE",
"321 102 LINE",
"302 93 LINE",
"277 93 LINE",
"239 100 LINE",
"220 97 LINE",
"202 97 LINE",
"191 107 LINE",
"179 119 LINE",
"161 137 LINE",
"137 169 LINE",
"133 192 LINE",
"128 222 LINE",
"128 229 LINE",
"149 237 LINE",
"172 233 LINE",
"201 236 LINE",
"233 247 LINE",
"284 241 LINE",
"333 252 LINE",
"380 249 LINE",
"433 256 LINE",
"493 269 LINE",
"501 297 LINE",
"498 333 LINE",
"493 352 LINE",
"478 408 LINE",
"452 447 LINE",
"423 473 LINE",
"394 493 LINE",
"374 513 LINE",
"350 528 LINE",
"321 528 LINE",
"292 523 LINE",
"272 519 LINE",
"224 511 LINE",
"192 493 LINE",
"156 465 LINE",
"133 424 LINE",
"104 403 LINE",
"91 362 LINE",
"59 331 LINE",
"51 294 LINE",
"36 251 LINE"
);
}
);
width = 533;
}
);
note = e;
unicode = 0065;
},
{
glyphname = schwa;
layers = (
{
layerId = "44398CD6-F961-4ECB-B01A-EEBF1DAB2450";
paths = (
{
closed = 1;
nodes = (
"509 296 LINE",
"496 360 LINE",
"456 407 LINE",
"396 467 LINE",
"320 494 LINE",
"277 514 LINE",
"211 508 LINE",
"145 495 LINE",
"55 445 LINE",
"135 411 LINE",
"194 428 LINE",
"251 432 LINE",
"264 431 LINE",
"340 406 LINE",
"377 381 LINE",
"412 338 LINE",
"422 320 LINE",
"425 276 LINE",
"420 275 LINE",
"354 273 LINE",
"289 276 LINE",
"223 283 LINE",
"164 275 LINE",
"96 252 LINE",
"98 213 LINE",
"121 174 LINE",
"129 122 LINE",
"195 54 LINE",
"218 36 LINE",
"327 11 LINE",
"367 31 LINE",
"428 51 LINE",
"463 91 LINE",
"492 134 LINE",
"513 161 LINE",
"516 199 LINE"
);
},
{
closed = 1;
nodes = (
"393 134 LINE",
"369 117 LINE",
"313 93 LINE",
"288 85 LINE",
"256 111 LINE",
"211 137 LINE",
"203 161 LINE",
"200 196 LINE",
"251 200 LINE",
"316 197 LINE",
"390 199 LINE",
"430 194 LINE"
);
}
);
width = 600;
}
);
unicode = 0259;
},
{
glyphname = f;
layers = (
{
layerId = "44398CD6-F961-4ECB-B01A-EEBF1DAB2450";
paths = (
{
closed = 1;
nodes = (
"71 434 LINE",
"98 432 LINE",
"99 401 LINE",
"102 385 LINE",
"105 323 LINE",
"101 283 LINE",
"106 260 LINE",
"116 247 LINE",
"111 213 LINE",
"111 187 LINE",
"119 130 LINE",
"120 111 LINE",
"119 97 LINE",
"127 49 LINE",
"186 6 LINE",
"210 39 LINE",
"200 86 LINE",
"201 112 LINE",
"202 129 LINE",
"193 169 LINE",
"192 195 LINE",
"192 208 LINE",
"197 255 LINE",
"184 291 LINE",
"195 324 LINE",
"182 354 LINE",
"178 417 LINE",
"178 422 LINE",
"182 430 LINE",
"201 432 LINE",
"249 439 LINE",
"279 517 LINE",
"211 515 LINE",
"200 514 LINE",
"181 528 LINE",
"170 546 LINE",
"169 548 LINE",
"195 592 LINE",
"208 613 LINE",
"220 630 LINE",
"257 637 LINE",
"307 633 LINE",
"374 638 LINE",
"352 700 LINE",
"314 713 LINE",
"287 713 LINE",
"212 712 LINE",
"152 674 LINE",
"131 649 LINE",
"106 610 LINE",
"87 581 LINE",
"87 541 LINE",
"88 525 LINE",
"86 524 LINE",
"29 508 LINE",
"48 427 LINE"
);
}
);
width = 327;
}
);
note = f;
unicode = 0066;
},
{
glyphname = g;
layers = (
{
layerId = "44398CD6-F961-4ECB-B01A-EEBF1DAB2450";
paths = (
{
closed = 1;
nodes = (
"462 50 LINE",
"477 80 LINE",
"464 127 LINE",
"460 164 LINE",
"463 205 LINE",
"463 271 LINE",
"453 337 LINE",
"464 394 LINE",
"438 451 LINE",
"405 498 LINE",
"365 509 LINE",
"333 524 LINE",
"279 523 LINE",
"196 519 LINE",
"138 493 LINE",
"78 434 LINE",
"41 354 LINE",
"39 316 LINE",
"29 288 LINE",
"36 222 LINE",
"82 120 LINE",
"154 42 LINE",
"194 14 LINE",
"254 6 LINE",
"337 17 LINE",
"362 18 LINE",
"380 15 LINE",
"381 11 LINE",
"382 -48 LINE",
"382 -78 LINE",
"370 -102 LINE",
"355 -172 LINE",
"333 -206 LINE",
"313 -215 LINE",
"279 -225 LINE",
"252 -217 LINE",
"161 -183 LINE",
"178 -264 LINE",
"243 -305 LINE",
"319 -301 LINE",
"355 -292 LINE",
"389 -283 LINE",
"414 -234 LINE",
"455 -125 LINE",
"466 -15 LINE"
);
},
{
closed = 1;
nodes = (
"289 86 LINE",
"261 95 LINE",
"235 91 LINE",
"168 132 LINE",
"124 204 LINE",
"115 261 LINE",
"115 278 LINE",
"126 308 LINE",
"122 331 LINE",
"134 367 LINE",
"161 411 LINE",
"198 432 LINE",
"242 445 LINE",
"304 442 LINE",
"339 426 LINE",
"363 379 LINE",
"369 351 LINE",
"378 293 LINE",
"382 240 LINE",
"375 183 LINE",
"377 127 LINE",
"344 102 LINE",
"343 102 LINE"
);
}
);
width = 523;
}
);
note = g;
unicode = 0067;
},
{
glyphname = h;
layers = (
{
layerId = "44398CD6-F961-4ECB-B01A-EEBF1DAB2450";
paths = (
{
closed = 1;
nodes = (
"72 615 LINE",
"70 580 LINE",
"77 544 LINE",
"65 501 LINE",
"65 478 LINE",
"69 455 LINE",
"78 428 LINE",
"83 394 LINE",
"70 363 LINE",
"81 330 LINE",
"88 264 LINE",
"85 240 LINE",
"78 203 LINE",
"81 174 LINE",
"75 152 LINE",
"85 128 LINE",
"95 82 LINE",
"97 69 LINE",
"162 31 LINE",
"173 77 LINE",
"169 96 LINE",
"167 114 LINE",
"158 167 LINE",
"154 190 LINE",
"154 198 LINE",
"160 237 LINE",
"156 303 LINE",
"161 327 LINE",
"166 332 LINE",
"184 348 LINE",
"189 366 LINE",
"219 377 LINE",
"244 401 LINE",
"267 415 LINE",
"278 418 LINE",
"308 428 LINE",
"315 428 LINE",
"316 428 LINE",
"317 426 LINE",
"328 402 LINE",
"351 375 LINE",
"351 346 LINE",
"357 325 LINE",
"363 281 LINE",
"363 268 LINE",
"365 239 LINE",
"367 228 LINE",
"365 219 LINE",
"362 191 LINE",
"365 133 LINE",
"358 93 LINE",
"366 65 LINE",
"400 12 LINE",
"441 56 LINE",
"435 100 LINE",
"444 132 LINE",
"438 167 LINE",
"439 196 LINE",
"439 202 LINE",
"442 228 LINE",
"439 255 LINE",
"438 288 LINE",
"437 308 LINE",
"426 364 LINE",
"430 388 LINE",
"419 411 LINE",
"393 441 LINE",
"389 451 LINE",
"389 456 LINE",
"344 500 LINE",
"328 503 LINE",
"263 492 LINE",
"253 491 LINE",
"210 475 LINE",
"180 442 LINE",
"156 443 LINE",
"143 470 LINE",
"142 498 LINE",
"157 539 LINE",
"147 576 LINE",
"146 594 LINE",
"154 629 LINE",
"139 654 LINE",
"142 696 LINE",
"67 682 LINE",
"63 638 LINE"
);
}
);
width = 503;
}
);
note = h;
unicode = 0068;
},
{
glyphname = i;
layers = (
{
layerId = "44398CD6-F961-4ECB-B01A-EEBF1DAB2450";
paths = (
{
closed = 1;
nodes = (
"87 462 LINE",
"68 433 LINE",
"73 396 LINE",
"73 359 LINE",
"82 301 LINE",
"75 248 LINE",
"70 214 LINE",
"85 169 LINE",
"85 154 LINE",
"83 114 LINE",
"86 74 LINE",
"170 46 LINE",
"171 101 LINE",
"172 146 LINE",
"175 183 LINE",
"158 217 LINE",
"163 259 LINE",
"175 303 LINE",
"168 337 LINE",
"166 379 LINE",
"166 418 LINE",
"173 444 LINE",
"132 509 LINE"
);
},
{
closed = 1;
nodes = (
"77 677 LINE",
"147 704 LINE",
"191 648 LINE",
"122 622 LINE"
);
}
);
width = 248;
}
);
note = i;
unicode = 0069;
},
{
glyphname = idotless;
layers = (
{
layerId = "44398CD6-F961-4ECB-B01A-EEBF1DAB2450";
paths = (
{
closed = 1;
nodes = (
"261 462 LINE",
"242 433 LINE",
"247 396 LINE",
"247 359 LINE",
"256 301 LINE",
"249 248 LINE",
"244 214 LINE",
"259 169 LINE",
"259 154 LINE",
"257 114 LINE",
"260 74 LINE",
"344 46 LINE",
"345 101 LINE",
"346 146 LINE",
"349 183 LINE",
"332 217 LINE",
"337 259 LINE",
"349 303 LINE",
"342 337 LINE",
"340 379 LINE",
"340 418 LINE",
"347 444 LINE",
"306 509 LINE",
"306 509 LINE"
);
}
);
width = 600;
}
);
unicode = 0131;
},
{
glyphname = iacute;
layers = (
{
layerId = "44398CD6-F961-4ECB-B01A-EEBF1DAB2450";
paths = (
{
closed = 1;
nodes = (
"274 578 LINE",
"306 581 LINE",
"318 592 LINE",
"323 606 LINE",
"345 643 LINE",
"378 673 LINE",
"401 708 LINE",
"383 776 LINE",
"344 754 LINE",
"331 730 LINE",
"313 707 LINE",
"294 694 LINE",
"274 658 LINE",
"259 635 LINE",
"259 635 LINE"
);
},
{
closed = 1;
nodes = (
"267 462 LINE",
"248 433 LINE",
"253 396 LINE",
"253 359 LINE",
"262 301 LINE",
"255 248 LINE",
"250 214 LINE",
"265 169 LINE",
"265 154 LINE",
"263 114 LINE",
"266 74 LINE",
"350 46 LINE",
"351 101 LINE",
"352 146 LINE",
"355 183 LINE",
"338 217 LINE",
"343 259 LINE",
"355 303 LINE",
"348 337 LINE",
"346 379 LINE",
"346 418 LINE",
"353 444 LINE",
"312 509 LINE",
"312 509 LINE"
);
}
);
width = 600;
}
);
unicode = 00ED;
},
{
glyphname = icircumflex;
layers = (
{
layerId = "44398CD6-F961-4ECB-B01A-EEBF1DAB2450";
paths = (
{
closed = 1;
nodes = (
"261 462 LINE",
"242 433 LINE",
"247 396 LINE",
"247 359 LINE",
"256 301 LINE",
"249 248 LINE",
"244 214 LINE",
"259 169 LINE",
"259 154 LINE",
"257 114 LINE",
"260 74 LINE",
"344 46 LINE",
"345 101 LINE",
"346 146 LINE",
"349 183 LINE",
"332 217 LINE",
"337 259 LINE",
"349 303 LINE",
"342 337 LINE",
"340 379 LINE",
"340 418 LINE",
"347 444 LINE",
"306 509 LINE",
"306 509 LINE"
);
},
{
closed = 1;
nodes = (
"344 777 LINE",
"295 779 LINE",
"276 760 LINE",
"262 732 LINE",
"248 718 LINE",
"215 690 LINE",
"207 676 LINE",
"182 650 LINE",
"216 588 LINE",
"244 611 LINE",
"266 625 LINE",
"275 652 LINE",
"301 671 LINE",
"318 682 LINE",
"330 669 LINE",
"360 630 LINE",
"406 590 LINE",
"430 645 LINE",
"422 677 LINE",
"399 696 LINE",
"381 719 LINE",
"378 722 LINE",
"364 743 LINE",
"357 766 LINE",
"357 766 LINE"
);
}
);
width = 600;
}
);
unicode = 00EE;
},
{
glyphname = idieresis;
layers = (
{
layerId = "44398CD6-F961-4ECB-B01A-EEBF1DAB2450";
paths = (
{
closed = 1;
nodes = (
"377 695 LINE",
"359 672 LINE",
"351 657 LINE",
"361 601 LINE",
"413 623 LINE",
"422 639 LINE",
"444 673 LINE",
"425 708 LINE",
"425 708 LINE"
);
},
{
closed = 1;
nodes = (
"245 654 LINE",
"199 621 LINE",
"178 675 LINE",
"234 704 LINE",
"234 704 LINE"
);
},
{
closed = 1;
nodes = (
"257 462 LINE",
"238 433 LINE",
"243 396 LINE",
"243 359 LINE",
"252 301 LINE",
"245 248 LINE",
"240 214 LINE",
"255 169 LINE",
"255 154 LINE",
"253 114 LINE",
"256 74 LINE",
"340 46 LINE",
"341 101 LINE",
"342 146 LINE",
"345 183 LINE",
"328 217 LINE",
"333 259 LINE",
"345 303 LINE",
"338 337 LINE",
"336 379 LINE",
"336 418 LINE",
"343 444 LINE",
"302 509 LINE",
"302 509 LINE"
);
}
);
width = 600;
}
);
unicode = 00EF;
},
{
glyphname = igrave;
layers = (
{
layerId = "44398CD6-F961-4ECB-B01A-EEBF1DAB2450";
paths = (
{
closed = 1;
nodes = (
"267 462 LINE",
"248 433 LINE",
"253 396 LINE",
"253 359 LINE",
"262 301 LINE",
"255 248 LINE",
"250 214 LINE",
"265 169 LINE",
"265 154 LINE",
"263 114 LINE",
"266 74 LINE",
"350 46 LINE",
"351 101 LINE",
"352 146 LINE",
"355 183 LINE",
"338 217 LINE",
"343 259 LINE",
"355 303 LINE",
"348 337 LINE",
"346 379 LINE",
"346 418 LINE",
"353 444 LINE",
"312 509 LINE",
"312 509 LINE"
);
},
{
closed = 1;
nodes = (
"326 658 LINE",
"313 676 LINE",
"289 716 LINE",
"275 735 LINE",
"260 766 LINE",
"202 725 LINE",
"208 695 LINE",
"228 680 LINE",
"240 662 LINE",
"266 621 LINE",
"319 601 LINE"
);
}
);
width = 600;
}
);
unicode = 00EC;
},
{
glyphname = ihookabove;
layers = (
{
layerId = "44398CD6-F961-4ECB-B01A-EEBF1DAB2450";
paths = (
{
closed = 1;
nodes = (
"296 707 LINE",
"319 690 LINE",
"308 659 LINE",
"290 630 LINE",
"354 600 LINE",
"388 655 LINE",
"393 707 LINE",
"363 751 LINE",
"320 779 LINE",
"271 727 LINE",
"271 727 LINE"
);
},
{
closed = 1;
nodes = (
"291 462 LINE",
"272 433 LINE",
"277 396 LINE",
"277 359 LINE",
"286 301 LINE",
"279 248 LINE",
"274 214 LINE",
"289 169 LINE",
"289 154 LINE",
"287 114 LINE",
"290 74 LINE",
"374 46 LINE",
"375 101 LINE",
"376 146 LINE",
"379 183 LINE",
"362 217 LINE",
"367 259 LINE",
"379 303 LINE",
"372 337 LINE",
"370 379 LINE",
"370 418 LINE",
"377 444 LINE",
"336 509 LINE",
"336 509 LINE"
);
}
);
width = 600;
}
);
unicode = 1EC9;
},
{
glyphname = imacron;
layers = (
{
layerId = "44398CD6-F961-4ECB-B01A-EEBF1DAB2450";
paths = (
{
closed = 1;
nodes = (
"257 462 LINE",
"238 433 LINE",
"243 396 LINE",
"243 359 LINE",
"252 301 LINE",
"245 248 LINE",
"240 214 LINE",
"255 169 LINE",
"255 154 LINE",
"253 114 LINE",
"256 74 LINE",
"340 46 LINE",
"341 101 LINE",
"342 146 LINE",
"345 183 LINE",
"328 217 LINE",
"333 259 LINE",
"345 303 LINE",
"338 337 LINE",
"336 379 LINE",
"336 418 LINE",
"343 444 LINE",
"302 509 LINE",
"302 509 LINE"
);
},
{
closed = 1;
nodes = (
"397 705 LINE",
"387 704 LINE",
"346 712 LINE",
"336 712 LINE",
"306 707 LINE",
"270 704 LINE",
"223 709 LINE",
"195 713 LINE",
"178 712 LINE",
"146 704 LINE",
"136 633 LINE",
"180 641 LINE",
"194 641 LINE",
"244 636 LINE",
"260 634 LINE",
"286 634 LINE",
"337 640 LINE",
"351 641 LINE",
"393 632 LINE",
"411 636 LINE",
"423 637 LINE",
"461 698 LINE",
"461 698 LINE"
);
}
);
width = 600;
}
);
unicode = 012B;
},
{
glyphname = iogonek;
layers = (
{
layerId = "44398CD6-F961-4ECB-B01A-EEBF1DAB2450";
paths = (
{
closed = 1;
nodes = (
"166 -112 LINE",
"182 -138 LINE",
"190 -147 LINE",
"205 -166 LINE",
"224 -182 LINE",
"273 -189 LINE",
"340 -190 LINE",
"318 -132 LINE",
"290 -115 LINE",
"259 -119 LINE",
"256 -117 LINE",
"248 -108 LINE",
"234 -90 LINE",
"232 -86 LINE",
"232 -85 LINE",
"237 -65 LINE",
"254 -27 LINE",
"260 -19 LINE",
"261 -18 LINE",
"284 -11 LINE",
"297 -7 LINE",
"278 61 LINE",
"257 54 LINE",
"247 51 LINE",
"202 24 LINE",
"176 -22 LINE",
"167 -52 LINE",
"165 -65 LINE",
"161 -80 LINE",
"165 -111 LINE",
"165 -111 LINE"
);
},
{
closed = 1;
nodes = (
"257 462 LINE",
"238 433 LINE",
"243 396 LINE",
"243 359 LINE",
"252 301 LINE",
"245 248 LINE",
"240 214 LINE",
"255 169 LINE",
"255 154 LINE",
"253 114 LINE",
"256 74 LINE",
"340 46 LINE",
"341 101 LINE",
"342 146 LINE",
"345 183 LINE",
"328 217 LINE",
"333 259 LINE",
"345 303 LINE",
"338 337 LINE",
"336 379 LINE",
"336 418 LINE",
"343 444 LINE",
"302 509 LINE",
"302 509 LINE"
);
},
{
closed = 1;
nodes = (
"247 677 LINE",
"317 704 LINE",
"361 648 LINE",
"292 622 LINE",
"292 622 LINE"
);
}
);
width = 600;
}
);
unicode = 012F;
},
{
glyphname = itilde;
layers = (
{
layerId = "44398CD6-F961-4ECB-B01A-EEBF1DAB2450";
paths = (
{
closed = 1;
nodes = (
"267 462 LINE",
"248 433 LINE",
"253 396 LINE",
"253 359 LINE",
"262 301 LINE",
"255 248 LINE",
"250 214 LINE",
"265 169 LINE",
"265 154 LINE",
"263 114 LINE",
"266 74 LINE",
"350 46 LINE",
"351 101 LINE",
"352 146 LINE",
"355 183 LINE",
"338 217 LINE",
"343 259 LINE",
"355 303 LINE",
"348 337 LINE",
"346 379 LINE",
"346 418 LINE",
"353 444 LINE",
"312 509 LINE",
"312 509 LINE"
);
},
{
closed = 1;
nodes = (
"435 730 LINE",
"431 713 LINE",
"418 698 LINE",
"415 697 LINE",
"383 689 LINE",
"373 695 LINE",
"349 701 LINE",
"341 713 LINE",
"326 721 LINE",
"302 737 LINE",
"295 736 LINE",
"288 736 LINE",
"273 737 LINE",
"242 742 LINE",
"233 740 LINE",
"173 708 LINE",
"159 690 LINE",
"148 667 LINE",
"154 626 LINE",
"193 642 LINE",
"203 662 LINE",
"225 682 LINE",
"251 690 LINE",
"270 684 LINE",
"283 680 LINE",
"309 667 LINE",
"349 648 LINE",
"357 641 LINE",
"362 636 LINE",
"379 628 LINE",
"396 633 LINE",
"412 645 LINE",
"427 647 LINE",
"455 661 LINE",
"473 682 LINE",
"484 714 LINE",
"486 718 LINE"
);
}
);
width = 600;
}
);
unicode = 0129;
},
{
glyphname = j;
layers = (
{
layerId = "44398CD6-F961-4ECB-B01A-EEBF1DAB2450";
paths = (
{
closed = 1;
nodes = (
"20 -197 LINE",
"22 -197 LINE",
"103 -162 LINE",
"120 -149 LINE",
"133 -123 LINE",
"146 -110 LINE",
"152 -79 LINE",
"168 -13 LINE",
"174 16 LINE",
"171 71 LINE",
"169 84 LINE",
"169 100 LINE",
"160 146 LINE",
"156 211 LINE",
"151 270 LINE",
"147 291 LINE",
"147 304 LINE",
"160 352 LINE",
"160 367 LINE",
"161 384 LINE",
"159 418 LINE",
"147 448 LINE",
"81 475 LINE",
"78 398 LINE",
"79 393 LINE",
"76 369 LINE",
"76 348 LINE",
"62 315 LINE",
"66 281 LINE",
"68 261 LINE",
"72 236 LINE",
"78 176 LINE",
"76 132 LINE",
"87 104 LINE",
"87 80 LINE",
"90 52 LINE",
"93 26 LINE",
"76 4 LINE",
"79 -31 LINE",
"65 -74 LINE",
"53 -93 LINE",
"39 -110 LINE",
"34 -114 LINE",
"32 -115 LINE"
);
},
{
closed = 1;
nodes = (
"60 619 LINE",
"62 648 LINE",
"70 678 LINE",
"128 711 LINE",
"147 645 LINE",
"143 634 LINE",
"143 622 LINE",
"60 618 LINE"
);
}
);
width = 230;
}
);
note = j;
unicode = 006A;
},
{
glyphname = jdotless;
layers = (
{
layerId = "44398CD6-F961-4ECB-B01A-EEBF1DAB2450";
paths = (
{
closed = 1;
nodes = (
"313 522 LINE",
"280 457 LINE",
"263 426 LINE",
"277 384 LINE",
"272 364 LINE",
"268 292 LINE",
"271 259 LINE",
"273 162 LINE",
"271 150 LINE",
"264 92 LINE",
"272 27 LINE",
"244 -27 LINE",
"229 -50 LINE",
"181 -90 LINE",
"132 -132 LINE",
"202 -174 LINE",
"255 -128 LINE",
"306 -80 LINE",
"325 -40 LINE",
"344 65 LINE",
"342 109 LINE",
"343 199 LINE",
"343 220 LINE",
"343 324 LINE",
"351 418 LINE",
"360 470 LINE",
"360 470 LINE"
);
}
);
width = 600;
}
);
unicode = 0237;
},
{
glyphname = k;
layers = (
{
layerId = "44398CD6-F961-4ECB-B01A-EEBF1DAB2450";
paths = (
{
closed = 1;
nodes = (
"59 618 LINE",
"61 596 LINE",
"60 549 LINE",
"58 524 LINE",
"62 493 LINE",
"75 457 LINE",
"76 448 LINE",
"75 386 LINE",
"79 361 LINE",
"80 354 LINE",
"82 322 LINE",
"79 294 LINE",
"81 265 LINE",
"85 247 LINE",
"80 206 LINE",
"88 157 LINE",
"87 145 LINE",
"85 116 LINE",
"94 78 LINE",
"94 61 LINE",
"136 11 LINE",
"173 62 LINE",
"171 83 LINE",
"164 122 LINE",
"164 131 LINE",
"167 155 LINE",
"162 190 LINE",
"178 227 LINE",
"196 243 LINE",
"210 255 LINE",
"229 231 LINE",
"253 196 LINE",
"269 168 LINE",
"295 128 LINE",
"322 98 LINE",
"333 61 LINE",
"364 39 LINE",
"408 -19 LINE",
"444 39 LINE",
"441 60 LINE",
"437 81 LINE",
"401 110 LINE",
"376 164 LINE",
"351 198 LINE",
"329 226 LINE",
"307 257 LINE",
"290 287 LINE",
"279 294 LINE",
"266 313 LINE",
"280 348 LINE",
"298 367 LINE",
"307 378 LINE",
"346 403 LINE",
"362 432 LINE",
"379 453 LINE",
"377 515 LINE",
"315 497 LINE",
"308 490 LINE",
"286 455 LINE",
"247 431 LINE",
"236 415 LINE",
"228 406 LINE",
"198 362 LINE",
"180 349 LINE",
"161 334 LINE",
"158 342 LINE",
"158 347 LINE",
"156 379 LINE",
"160 399 LINE",
"152 422 LINE",
"155 450 LINE",
"151 475 LINE",
"137 515 LINE",
"136 523 LINE",
"148 544 LINE",
"142 574 LINE",
"138 623 LINE",
"134 649 LINE",
"136 683 LINE",
"90 728 LINE",
"58 673 LINE",
"50 645 LINE"
);
}
);
width = 467;
}
);
note = k;
unicode = 006B;
},
{
glyphname = kgreenlandic;
layers = (
{
layerId = "44398CD6-F961-4ECB-B01A-EEBF1DAB2450";
paths = (
{
closed = 1;
nodes = (
"427 147 LINE",
"406 170 LINE",
"386 186 LINE",
"338 213 LINE",
"295 269 LINE",
"295 271 LINE",
"310 306 LINE",
"335 322 LINE",
"386 357 LINE",
"427 372 LINE",
"449 399 LINE",
"505 465 LINE",
"370 445 LINE",
"313 411 LINE",
"224 333 LINE",
"193 331 LINE",
"180 364 LINE",
"181 375 LINE",
"181 491 LINE",
"185 551 LINE",
"99 529 LINE",
"103 446 LINE",
"100 414 LINE",
"95 392 LINE",
"104 321 LINE",
"106 289 LINE",
"98 223 LINE",
"96 146 LINE",
"105 81 LINE",
"180 34 LINE",
"193 120 LINE",
"184 191 LINE",
"195 224 LINE",
"222 217 LINE",
"250 191 LINE",
"320 125 LINE",
"354 95 LINE",
"398 63 LINE",
"431 11 LINE",
"491 78 LINE",
"479 99 LINE"
);
}
);
width = 600;
}
);
unicode = 0138;
},
{
glyphname = l;
layers = (
{
layerId = "44398CD6-F961-4ECB-B01A-EEBF1DAB2450";
paths = (
{
closed = 1;
nodes = (
"74 584 LINE",
"77 540 LINE",
"79 502 LINE",
"79 466 LINE",
"74 429 LINE",
"85 394 LINE",
"85 369 LINE",
"89 341 LINE",
"91 335 LINE",
"88 321 LINE",
"84 300 LINE",
"79 278 LINE",
"92 228 LINE",
"92 217 LINE",
"88 196 LINE",
"86 168 LINE",
"89 143 LINE",
"88 99 LINE",
"85 68 LINE",
"103 23 LINE",
"171 71 LINE",
"176 122 LINE",
"169 172 LINE",
"170 185 LINE",
"172 203 LINE",
"174 233 LINE",
"163 271 LINE",
"164 283 LINE",
"169 302 LINE",
"172 329 LINE",
"169 363 LINE",
"166 376 LINE",
"174 406 LINE",
"163 433 LINE",
"163 493 LINE",
"159 525 LINE",
"161 560 LINE",
"156 615 LINE",
"169 653 LINE",
"86 659 LINE",
"70 613 LINE",
"68 603 LINE"
);
}
);
width = 247;
}
);
note = l;
unicode = 006C;
},
{
glyphname = lcaron;
layers = (
{
layerId = "44398CD6-F961-4ECB-B01A-EEBF1DAB2450";
paths = (
{
closed = 1;
nodes = (
"294 239 LINE",
"296 179 LINE",
"285 120 LINE",
"285 115 LINE",
"304 39 LINE",
"246 3 LINE",
"216 70 LINE",
"210 155 LINE",
"220 206 LINE",
"217 263 LINE",
"223 324 LINE",
"220 393 LINE",
"222 491 LINE",
"215 537 LINE",
"210 579 LINE",
"220 629 LINE",
"220 681 LINE",
"287 719 LINE",
"304 657 LINE",
"290 591 LINE",
"293 523 LINE",
"286 445 LINE",
"286 437 LINE",
"293 363 LINE",
"300 306 LINE"
);
},
{
closed = 1;
nodes = (
"454 723 LINE",
"381 690 LINE",
"386 646 LINE",
"384 575 LINE",
"376 516 LINE",
"453 534 LINE",
"463 598 LINE",
"464 668 LINE"
);
}
);
width = 600;
}
);
unicode = 013E;
},
{
glyphname = lslash;
layers = (
{
layerId = "44398CD6-F961-4ECB-B01A-EEBF1DAB2450";
paths = (
{
closed = 1;
nodes = (
"380 472 LINE",
"349 462 LINE",
"349 500 LINE",
"339 566 LINE",
"345 631 LINE",
"349 673 LINE",
"278 714 LINE",
"267 661 LINE",
"262 601 LINE",
"266 525 LINE",
"267 475 LINE",
"255 422 LINE",
"251 414 LINE",
"233 396 LINE",
"196 366 LINE",
"119 274 LINE",
"186 279 LINE",
"246 293 LINE",
"256 272 LINE",
"259 242 LINE",
"254 216 LINE",
"252 136 LINE",
"251 106 LINE",
"254 51 LINE",
"313 2 LINE",
"336 78 LINE",
"334 125 LINE",
"327 170 LINE",
"344 214 LINE",
"339 259 LINE",
"339 297 LINE",
"347 354 LINE",
"396 392 LINE",
"435 453 LINE"
);
}
);
width = 600;
}
);
unicode = 0142;
},
{
glyphname = m;
layers = (
{
layerId = "44398CD6-F961-4ECB-B01A-EEBF1DAB2450";
paths = (
{
closed = 1;
nodes = (
"749 188 LINE",
"756 265 LINE",
"749 323 LINE",
"741 375 LINE",
"734 409 LINE",
"722 439 LINE",
"694 463 LINE",
"675 478 LINE",
"645 501 LINE",
"612 501 LINE",
"574 508 LINE",
"542 481 LINE",
"492 481 LINE",
"470 435 LINE",
"426 362 LINE",
"422 364 LINE",
"398 430 LINE",
"326 475 LINE",
"237 460 LINE",
"179 426 LINE",
"175 451 LINE",
"168 500 LINE",
"93 472 LINE",
"92 431 LINE",
"95 388 LINE",
"101 335 LINE",
"107 277 LINE",
"108 239 LINE",
"118 207 LINE",
"122 128 LINE",
"154 11 LINE",
"203 39 LINE",
"197 100 LINE",
"204 142 LINE",
"193 181 LINE",
"189 257 LINE",
"192 298 LINE",
"220 357 LINE",
"257 380 LINE",
"295 401 LINE",
"316 395 LINE",
"332 378 LINE",
"357 317 LINE",
"368 281 LINE",
"376 217 LINE",
"382 167 LINE",
"385 97 LINE",
"393 54 LINE",
"473 46 LINE",
"478 131 LINE",
"479 206 LINE",
"490 256 LINE",
"505 303 LINE",
"510 358 LINE",
"549 402 LINE",
"596 422 LINE",
"619 418 LINE",
"650 392 LINE",
"657 378 LINE",
"670 332 LINE",
"670 290 LINE",
"680 239 LINE",
"680 228 LINE",
"668 180 LINE",
"680 128 LINE",
"676 64 LINE",
"696 8 LINE",
"754 23 LINE",
"751 92 LINE",
"761 117 LINE"
);
}
);
width = 831;
}
);
note = m;
unicode = 006D;
},
{
glyphname = n;
layers = (
{
layerId = "44398CD6-F961-4ECB-B01A-EEBF1DAB2450";
paths = (
{
closed = 1;
nodes = (
"494 177 LINE",
"493 201 LINE",
"491 258 LINE",
"488 289 LINE",
"489 334 LINE",
"484 388 LINE",
"463 429 LINE",
"450 467 LINE",
"420 491 LINE",
"410 508 LINE",
"338 523 LINE",
"251 505 LINE",
"187 462 LINE",
"180 462 LINE",
"166 501 LINE",
"107 551 LINE",
"84 469 LINE",
"90 416 LINE",
"92 343 LINE",
"93 331 LINE",
"79 299 LINE",
"84 256 LINE",
"83 221 LINE",
"91 172 LINE",
"90 135 LINE",
"87 88 LINE",
"115 5 LINE",
"171 60 LINE",
"178 105 LINE",
"177 159 LINE",
"168 238 LINE",
"189 305 LINE",
"219 374 LINE",
"258 410 LINE",
"306 433 LINE",
"354 434 LINE",
"376 417 LINE",
"390 374 LINE",
"401 345 LINE",
"404 312 LINE",
"404 269 LINE",
"406 223 LINE",
"407 188 LINE",
"420 132 LINE",
"414 40 LINE",
"477 -1 LINE",
"495 75 LINE",
"507 131 LINE"
);
}
);
width = 576;
}
);
note = n;
unicode = 006E;
},
{
glyphname = eng;
layers = (
{
layerId = "44398CD6-F961-4ECB-B01A-EEBF1DAB2450";
paths = (
{
closed = 1;
nodes = (
"529 30 LINE",
"535 104 LINE",
"526 179 LINE",
"525 248 LINE",
"515 306 LINE",
"507 355 LINE",
"496 404 LINE",
"468 457 LINE",
"432 509 LINE",
"367 532 LINE",
"268 508 LINE",
"233 489 LINE",
"188 450 LINE",
"174 439 LINE",
"172 438 LINE",
"169 481 LINE",
"170 511 LINE",
"155 595 LINE",
"91 549 LINE",
"83 496 LINE",
"89 450 LINE",
"90 364 LINE",
"89 306 LINE",
"91 243 LINE",
"87 187 LINE",
"83 130 LINE",
"94 81 LINE",
"98 48 LINE",
"168 10 LINE",
"182 90 LINE",
"168 122 LINE",
"164 151 LINE",
"173 217 LINE",
"170 278 LINE",
"180 310 LINE",
"227 374 LINE",
"272 414 LINE",
"331 450 LINE",
"371 447 LINE",
"392 426 LINE",
"412 395 LINE",
"421 359 LINE",
"428 314 LINE",
"437 251 LINE",
"445 200 LINE",
"448 126 LINE",
"453 67 LINE",
"454 -9 LINE",
"448 -28 LINE",
"426 -81 LINE",
"404 -102 LINE",
"378 -107 LINE",
"371 -107 LINE",
"306 -160 LINE",
"354 -192 LINE",
"414 -190 LINE",
"479 -146 LINE",
"510 -96 LINE",
"536 -55 LINE",
"538 -4 LINE"
);
}
);
width = 600;
}
);
unicode = 014B;
},
{
glyphname = o;
layers = (
{
layerId = "44398CD6-F961-4ECB-B01A-EEBF1DAB2450";
paths = (
{
closed = 1;
nodes = (
"187 108 LINE",
"171 131 LINE",
"147 147 LINE",
"143 155 LINE",
"138 209 LINE",
"130 245 LINE",
"148 297 LINE",
"163 328 LINE",
"174 349 LINE",
"204 381 LINE",
"214 405 LINE",
"220 419 LINE",
"226 425 LINE",
"260 440 LINE",
"313 439 LINE",
"326 436 LINE",
"336 425 LINE",
"376 400 LINE",
"389 376 LINE",
"399 353 LINE",
"415 301 LINE",
"407 271 LINE",
"420 243 LINE",
"420 232 LINE",
"399 199 LINE",
"383 174 LINE",
"379 140 LINE",
"372 127 LINE",
"356 123 LINE",
"316 99 LINE",
"263 87 LINE"
);
},
{
closed = 1;
nodes = (
"307 13 LINE",
"349 20 LINE",
"378 40 LINE",
"399 46 LINE",
"416 54 LINE",
"448 87 LINE",
"457 109 LINE",
"465 143 LINE",
"479 171 LINE",
"499 190 LINE",
"505 223 LINE",
"505 247 LINE",
"498 280 LINE",
"501 316 LINE",
"490 350 LINE",
"487 387 LINE",
"469 404 LINE",
"445 451 LINE",
"400 483 LINE",
"374 509 LINE",
"348 529 LINE",
"281 527 LINE",
"256 532 LINE",
"233 537 LINE",
"194 510 LINE",
"156 478 LINE",
"134 434 LINE",
"130 425 LINE",
"100 408 LINE",
"90 372 LINE",
"69 327 LINE",
"61 304 LINE",
"33 264 LINE",
"41 239 LINE",
"49 213 LINE",
"56 170 LINE",
"68 110 LINE",
"84 87 LINE",
"110 68 LINE",
"139 36 LINE",
"182 22 LINE",
"204 23 LINE",
"223 13 LINE",
"249 1 LINE",
"281 1 LINE"
);
}
);
width = 547;
}
);
note = o;
unicode = 006F;
},
{
glyphname = ohorn;
layers = (
{
layerId = "44398CD6-F961-4ECB-B01A-EEBF1DAB2450";
paths = (
{
closed = 1;
nodes = (
"346 120 LINE",
"332 104 LINE",
"330 102 LINE",
"325 101 LINE",
"295 95 LINE",
"270 95 LINE",
"250 84 LINE",
"221 96 LINE",
"202 114 LINE",
"173 126 LINE",
"152 145 LINE",
"145 161 LINE",
"149 190 LINE",
"138 211 LINE",
"136 230 LINE",
"141 270 LINE",
"128 303 LINE",
"129 313 LINE",
"128 354 LINE",
"144 389 LINE",
"163 432 LINE",
"172 442 LINE",
"185 458 LINE",
"192 463 LINE",
"238 484 LINE",
"249 496 LINE",
"259 498 LINE",
"297 487 LINE",
"318 477 LINE",
"336 456 LINE",
"354 435 LINE",
"372 388 LINE",
"392 355 LINE",
"408 301 LINE",
"408 293 LINE",
"393 259 LINE",
"389 234 LINE",
"390 209 LINE",
"381 185 LINE",
"389 160 LINE",
"374 141 LINE",
"374 140 LINE"
);
},
{
closed = 1;
nodes = (
"467 586 LINE",
"459 542 LINE",
"446 512 LINE",
"418 490 LINE",
"386 530 LINE",
"344 555 LINE",
"292 574 LINE",
"261 579 LINE",
"228 579 LINE",
"183 544 LINE",
"142 525 LINE",
"127 510 LINE",
"114 495 LINE",
"98 474 LINE",
"84 447 LINE",
"63 400 LINE",
"53 380 LINE",
"53 332 LINE",
"46 308 LINE",
"43 289 LINE",
"62 259 LINE",
"59 224 LINE",
"60 204 LINE",
"67 175 LINE",
"70 139 LINE",
"82 110 LINE",
"112 76 LINE",
"158 46 LINE",
"208 17 LINE",
"251 2 LINE",
"294 15 LINE",
"322 22 LINE",
"394 55 LINE",
"404 68 LINE",
"432 86 LINE",
"456 112 LINE",
"473 137 LINE",
"471 156 LINE",
"465 181 LINE",
"467 230 LINE",
"469 243 LINE",
"483 257 LINE",
"487 285 LINE",
"486 319 LINE",
"472 352 LINE",
"468 374 LINE",
"450 408 LINE",
"445 428 LINE",
"486 442 LINE",
"522 467 LINE",
"529 487 LINE",
"542 505 LINE",
"546 548 LINE",
"545 602 LINE",
"511 636 LINE"
);
}
);
width = 567;
}
);
note = ohorn;
unicode = 01A1;
},
{
glyphname = oslash;
layers = (
{
layerId = "44398CD6-F961-4ECB-B01A-EEBF1DAB2450";
paths = (
{
closed = 1;
nodes = (
"265 87 LINE",
"189 108 LINE",
"173 131 LINE",
"149 147 LINE",
"145 155 LINE",
"140 209 LINE",
"132 245 LINE",
"150 297 LINE",
"165 328 LINE",
"176 349 LINE",
"206 381 LINE",
"216 405 LINE",
"222 419 LINE",
"228 425 LINE",
"262 440 LINE",
"315 439 LINE",
"328 436 LINE",
"328 436 LINE",
"338 425 LINE",
"378 400 LINE",
"391 376 LINE",
"401 353 LINE",
"417 301 LINE",
"409 271 LINE",
"422 243 LINE",
"422 232 LINE",
"401 199 LINE",
"385 174 LINE",
"381 140 LINE",
"374 127 LINE",
"358 123 LINE",
"318 99 LINE",
"265 87 LINE",
"265 87 LINE"
);
},
{
closed = 1;
nodes = (
"309 13 LINE",
"351 20 LINE",
"380 40 LINE",
"401 46 LINE",
"418 54 LINE",
"450 87 LINE",
"459 109 LINE",
"467 143 LINE",
"481 171 LINE",
"501 190 LINE",
"507 223 LINE",
"507 247 LINE",
"500 280 LINE",
"503 316 LINE",
"492 350 LINE",
"489 387 LINE",
"471 404 LINE",
"447 451 LINE",
"402 483 LINE",
"376 509 LINE",
"350 529 LINE",
"283 527 LINE",
"258 532 LINE",
"235 537 LINE",
"196 510 LINE",
"158 478 LINE",
"136 434 LINE",
"132 425 LINE",
"102 408 LINE",
"92 372 LINE",
"71 327 LINE",
"63 304 LINE",
"35 264 LINE",
"43 239 LINE",
"51 213 LINE",
"58 170 LINE",
"70 110 LINE",
"86 87 LINE",
"112 68 LINE",
"141 36 LINE",
"184 22 LINE",
"206 23 LINE",
"225 13 LINE",
"251 1 LINE",
"283 1 LINE"
);
},
{
closed = 1;
nodes = (
"483 585 LINE",
"416 579 LINE",
"388 555 LINE",
"378 520 LINE",
"364 485 LINE",
"348 465 LINE",
"338 449 LINE",
"307 393 LINE",
"286 382 LINE",
"274 352 LINE",
"256 293 LINE",
"254 290 LINE",
"220 244 LINE",
"198 202 LINE",
"185 185 LINE",
"176 172 LINE",
"158 141 LINE",
"151 127 LINE",
"125 68 LINE",
"85 26 LINE",
"80 -47 LINE",
"159 -21 LINE",
"158 -13 LINE",
"199 28 LINE",
"213 61 LINE",
"236 113 LINE",
"238 118 LINE",
"253 136 LINE",
"264 151 LINE",
"281 182 LINE",
"303 220 LINE",
"318 237 LINE",
"334 263 LINE",
"340 297 LINE",
"355 325 LINE",
"374 343 LINE",
"393 384 LINE",
"406 402 LINE",
"418 419 LINE",
"448 464 LINE",
"467 512 LINE",
"472 518 LINE",
"472 518 LINE"
);
}
);
width = 555;
}
);
unicode = 00F8;
},
{
glyphname = oe;
layers = (
{
layerId = "44398CD6-F961-4ECB-B01A-EEBF1DAB2450";
paths = (
{
closed = 1;
nodes = (
"263 87 LINE",
"187 108 LINE",
"171 131 LINE",
"147 147 LINE",
"143 155 LINE",
"138 209 LINE",
"130 245 LINE",
"148 297 LINE",
"163 328 LINE",
"174 349 LINE",
"204 381 LINE",
"214 405 LINE",
"220 419 LINE",
"226 425 LINE",
"260 440 LINE",
"313 439 LINE",
"326 436 LINE",
"326 436 LINE",
"336 425 LINE",
"376 400 LINE",
"389 376 LINE",
"399 353 LINE",
"415 301 LINE",
"407 271 LINE",
"420 243 LINE",
"420 232 LINE",
"399 199 LINE",
"383 174 LINE",
"379 140 LINE",
"372 127 LINE",
"356 123 LINE",
"316 99 LINE",
"263 87 LINE",
"263 87 LINE"
);
},
{
closed = 1;
nodes = (
"307 13 LINE",
"349 20 LINE",
"378 40 LINE",
"399 46 LINE",
"416 54 LINE",
"448 87 LINE",
"457 109 LINE",
"465 143 LINE",
"479 171 LINE",
"499 190 LINE",
"505 223 LINE",
"505 247 LINE",
"498 280 LINE",
"501 316 LINE",
"490 350 LINE",
"487 387 LINE",
"469 404 LINE",
"445 451 LINE",
"400 483 LINE",
"374 509 LINE",
"348 529 LINE",
"281 527 LINE",
"256 532 LINE",
"233 537 LINE",
"194 510 LINE",
"156 478 LINE",
"134 434 LINE",
"130 425 LINE",
"100 408 LINE",
"90 372 LINE",
"69 327 LINE",
"61 304 LINE",
"33 264 LINE",
"41 239 LINE",
"49 213 LINE",
"56 170 LINE",
"68 110 LINE",
"84 87 LINE",
"110 68 LINE",
"139 36 LINE",
"182 22 LINE",
"204 23 LINE",
"223 13 LINE",
"249 1 LINE",
"281 1 LINE"
);
},
{
closed = 1;
nodes = (
"731 447 LINE",
"744 449 LINE",
"744 449 LINE",
"786 416 LINE",
"811 388 LINE",
"831 350 LINE",
"833 339 LINE",
"825 332 LINE",
"816 329 LINE",
"781 330 LINE",
"746 335 LINE",
"711 324 LINE",
"687 323 LINE",
"640 328 LINE",
"606 313 LINE",
"596 313 LINE",
"588 314 LINE",
"578 320 LINE",
"589 352 LINE",
"622 386 LINE",
"643 420 LINE",
"677 439 LINE",
"678 439 LINE",
"712 442 LINE",
"712 442 LINE"
);
},
{
closed = 1;
nodes = (
"470 205 LINE",
"477 152 LINE",
"506 106 LINE",
"531 75 LINE",
"540 66 LINE",
"556 50 LINE",
"573 34 LINE",
"589 16 LINE",
"643 19 LINE",
"653 19 LINE",
"716 12 LINE",
"760 22 LINE",
"771 29 LINE",
"785 33 LINE",
"839 57 LINE",
"857 106 LINE",
"814 133 LINE",
"765 110 LINE",
"740 102 LINE",
"721 93 LINE",
"696 93 LINE",
"658 100 LINE",
"639 97 LINE",
"621 97 LINE",
"610 107 LINE",
"598 119 LINE",
"580 137 LINE",
"556 169 LINE",
"552 192 LINE",
"547 222 LINE",
"547 229 LINE",
"568 237 LINE",
"591 233 LINE",
"620 236 LINE",
"652 247 LINE",
"703 241 LINE",
"752 252 LINE",
"799 249 LINE",
"852 256 LINE",
"912 269 LINE",
"920 297 LINE",
"917 333 LINE",
"912 352 LINE",
"897 408 LINE",
"871 447 LINE",
"842 473 LINE",
"813 493 LINE",
"793 513 LINE",
"769 528 LINE",
"740 528 LINE",
"711 523 LINE",
"691 519 LINE",
"643 511 LINE",
"611 493 LINE",
"575 465 LINE",
"552 424 LINE",
"523 403 LINE",
"510 362 LINE",
"478 331 LINE",
"470 294 LINE",
"455 251 LINE",
"455 251 LINE"
);
}
);
width = 951;
}
);
unicode = 0153;
},
{
glyphname = p;
layers = (
{
layerId = "44398CD6-F961-4ECB-B01A-EEBF1DAB2450";
paths = (
{
closed = 1;
nodes = (
"418 313 LINE",
"402 369 LINE",
"366 434 LINE",
"311 485 LINE",
"163 464 LINE",
"140 498 LINE",
"78 444 LINE",
"79 428 LINE",
"73 334 LINE",
"80 268 LINE",
"83 235 LINE",
"74 207 LINE",
"95 145 LINE",
"94 86 LINE",
"97 30 LINE",
"94 -32 LINE",
"102 -75 LINE",
"103 -102 LINE",
"110 -198 LINE",
"183 -217 LINE",
"179 -136 LINE",
"185 -86 LINE",
"183 -47 LINE",
"176 4 LINE",
"178 14 LINE",
"227 10 LINE",
"295 15 LINE",
"356 42 LINE",
"421 136 LINE",
"423 183 LINE",
"431 251 LINE"
);
},
{
closed = 1;
nodes = (
"191 372 LINE",
"229 405 LINE",
"250 412 LINE",
"281 405 LINE",
"318 364 LINE",
"333 313 LINE",
"347 265 LINE",
"348 222 LINE",
"336 168 LINE",
"335 124 LINE",
"284 93 LINE",
"272 89 LINE",
"214 93 LINE",
"179 113 LINE",
"177 117 LINE",
"160 199 LINE",
"164 255 LINE",
"163 324 LINE",
"184 342 LINE"
);
}
);
width = 478;
}
);
note = p;
unicode = 0070;
},
{
glyphname = thorn;
layers = (
{
layerId = "44398CD6-F961-4ECB-B01A-EEBF1DAB2450";
paths = (
{
closed = 1;
nodes = (
"510 342 LINE",
"480 415 LINE",
"424 465 LINE",
"362 496 LINE",
"324 505 LINE",
"286 494 LINE",
"189 477 LINE",
"183 497 LINE",
"184 555 LINE",
"187 618 LINE",
"186 671 LINE",
"189 720 LINE",
"106 701 LINE",
"105 645 LINE",
"101 590 LINE",
"104 531 LINE",
"99 481 LINE",
"99 403 LINE",
"85 374 LINE",
"84 326 LINE",
"91 282 LINE",
"95 195 LINE",
"93 117 LINE",
"85 64 LINE",
"79 -14 LINE",
"78 -98 LINE",
"87 -149 LINE",
"167 -120 LINE",
"156 -63 LINE",
"167 3 LINE",
"165 39 LINE",
"170 78 LINE",
"175 84 LINE",
"179 79 LINE",
"255 28 LINE",
"271 30 LINE",
"291 18 LINE",
"337 16 LINE",
"376 42 LINE",
"396 49 LINE",
"422 73 LINE",
"450 102 LINE",
"486 146 LINE",
"515 199 LINE",
"536 281 LINE"
);
},
{
closed = 1;
nodes = (
"323 418 LINE",
"355 414 LINE",
"403 383 LINE",
"424 349 LINE",
"451 281 LINE",
"452 269 LINE",
"447 253 LINE",
"422 203 LINE",
"404 174 LINE",
"357 124 LINE",
"310 106 LINE",
"259 118 LINE",
"180 183 LINE",
"169 237 LINE",
"171 252 LINE",
"173 319 LINE",
"184 353 LINE",
"195 375 LINE",
"223 398 LINE",
"253 415 LINE",
"284 407 LINE"
);
}
);
width = 600;
}
);
unicode = 00FE;
},
{
glyphname = q;
layers = (
{
layerId = "44398CD6-F961-4ECB-B01A-EEBF1DAB2450";
paths = (
{
closed = 1;
nodes = (
"249 433 LINE",
"272 443 LINE",
"295 443 LINE",
"332 414 LINE",
"341 387 LINE",
"340 373 LINE",
"337 340 LINE",
"337 333 LINE",
"337 278 LINE",
"330 251 LINE",
"330 223 LINE",
"341 206 LINE",
"336 158 LINE",
"332 134 LINE",
"328 112 LINE",
"327 111 LINE",
"320 107 LINE",
"291 90 LINE",
"258 90 LINE",
"228 102 LINE",
"195 120 LINE",
"186 132 LINE",
"158 156 LINE",
"136 178 LINE",
"134 191 LINE",
"133 206 LINE",
"137 248 LINE",
"129 283 LINE",
"125 317 LINE",
"125 319 LINE",
"127 329 LINE",
"135 341 LINE",
"143 351 LINE",
"177 385 LINE",
"183 391 LINE",
"205 432 LINE",
"232 426 LINE"
);
},
{
closed = 1;
nodes = (
"57 240 LINE",
"53 207 LINE",
"54 183 LINE",
"61 149 LINE",
"77 122 LINE",
"122 81 LINE",
"178 37 LINE",
"210 24 LINE",
"234 9 LINE",
"262 11 LINE",
"288 8 LINE",
"322 15 LINE",
"327 0 LINE",
"329 -42 LINE",
"333 -83 LINE",
"333 -116 LINE",
"412 -102 LINE",
"412 -99 LINE",
"412 -59 LINE",
"410 -17 LINE",
"405 24 LINE",
"424 51 LINE",
"419 79 LINE",
"422 87 LINE",
"434 103 LINE",
"441 111 LINE",
"421 189 LINE",
"412 243 LINE",
"415 306 LINE",
"416 316 LINE",
"417 350 LINE",
"418 356 LINE",
"426 411 LINE",
"432 437 LINE",
"424 459 LINE",
"426 477 LINE",
"349 506 LINE",
"325 524 LINE",
"291 524 LINE",
"258 533 LINE",
"229 516 LINE",
"178 515 LINE",
"140 482 LINE",
"126 449 LINE",
"110 428 LINE",
"86 408 LINE",
"69 387 LINE",
"57 368 LINE",
"46 344 LINE",
"45 299 LINE",
"37 269 LINE"
);
}
);
width = 507;
}
);
note = q;
unicode = 0071;
},
{
glyphname = r;
layers = (
{
layerId = "44398CD6-F961-4ECB-B01A-EEBF1DAB2450";
paths = (
{
closed = 1;
nodes = (
"165 56 LINE",
"157 122 LINE",
"161 167 LINE",
"161 173 LINE",
"161 206 LINE",
"160 221 LINE",
"165 270 LINE",
"162 287 LINE",
"159 312 LINE",
"159 323 LINE",
"157 353 LINE",
"163 370 LINE",
"180 393 LINE",
"190 406 LINE",
"212 425 LINE",
"234 433 LINE",
"237 433 LINE",
"281 415 LINE",
"314 413 LINE",
"379 459 LINE",
"293 499 LINE",
"251 517 LINE",
"230 519 LINE",
"186 515 LINE",
"145 492 LINE",
"143 495 LINE",
"143 506 LINE",
"60 517 LINE",
"57 498 LINE",
"73 444 LINE",
"74 431 LINE",
"65 372 LINE",
"74 324 LINE",
"77 296 LINE",
"79 279 LINE",
"83 255 LINE",
"79 194 LINE",
"78 186 LINE",
"78 154 LINE",
"77 81 LINE",
"80 44 LINE"
);
}
);
width = 390;
}
);
note = r;
unicode = 0072;
},
{
glyphname = s;
layers = (
{
layerId = "44398CD6-F961-4ECB-B01A-EEBF1DAB2450";
paths = (
{
closed = 1;
nodes = (
"375 254 LINE",
"348 276 LINE",
"305 297 LINE",
"256 305 LINE",
"221 333 LINE",
"192 336 LINE",
"174 344 LINE",
"143 382 LINE",
"162 416 LINE",
"183 442 LINE",
"195 448 LINE",
"260 463 LINE",
"337 472 LINE",
"357 536 LINE",
"290 536 LINE",
"208 528 LINE",
"112 482 LINE",
"84 447 LINE",
"71 416 LINE",
"80 333 LINE",
"103 308 LINE",
"118 277 LINE",
"187 257 LINE",
"264 225 LINE",
"288 215 LINE",
"311 195 LINE",
"316 158 LINE",
"300 118 LINE",
"293 108 LINE",
"233 90 LINE",
"190 110 LINE",
"110 119 LINE",
"47 108 LINE",
"155 37 LINE",
"176 30 LINE",
"239 2 LINE",
"286 29 LINE",
"349 51 LINE",
"382 112 LINE",
"395 171 LINE"
);
}
);
width = 447;
}
);
note = s;
unicode = 0073;
},
{
glyphname = germandbls;
layers = (
{
layerId = "44398CD6-F961-4ECB-B01A-EEBF1DAB2450";
paths = (
{
closed = 1;
nodes = (
"509 195 LINE",
"497 228 LINE",
"488 267 LINE",
"484 287 LINE",
"464 303 LINE",
"444 322 LINE",
"426 331 LINE",
"412 345 LINE",
"390 350 LINE",
"378 359 LINE",
"391 371 LINE",
"426 423 LINE",
"443 445 LINE",
"452 473 LINE",
"467 505 LINE",
"457 533 LINE",
"453 554 LINE",
"447 571 LINE",
"428 624 LINE",
"426 639 LINE",
"427 659 LINE",
"398 682 LINE",
"383 686 LINE",
"367 699 LINE",
"346 710 LINE",
"328 714 LINE",
"319 722 LINE",
"292 724 LINE",
"269 717 LINE",
"245 715 LINE",
"238 715 LINE",
"220 715 LINE",
"192 706 LINE",
"169 695 LINE",
"140 667 LINE",
"104 625 LINE",
"92 591 LINE",
"81 551 LINE",
"71 512 LINE",
"70 487 LINE",
"79 459 LINE",
"70 438 LINE",
"67 416 LINE",
"75 385 LINE",
"75 372 LINE",
"76 350 LINE",
"72 328 LINE",
"81 310 LINE",
"77 272 LINE",
"78 264 LINE",
"72 253 LINE",
"71 234 LINE",
"82 204 LINE",
"86 183 LINE",
"83 162 LINE",
"90 147 LINE",
"88 109 LINE",
"91 72 LINE",
"95 47 LINE",
"99 33 LINE",
"106 15 LINE",
"167 8 LINE",
"157 50 LINE",
"152 66 LINE",
"155 78 LINE",
"152 93 LINE",
"150 128 LINE",
"152 146 LINE",
"148 170 LINE",
"147 200 LINE",
"135 241 LINE",
"138 285 LINE",
"143 313 LINE",
"137 337 LINE",
"136 361 LINE",
"136 368 LINE",
"137 380 LINE",
"128 417 LINE",
"129 421 LINE",
"141 465 LINE",
"131 494 LINE",
"131 499 LINE",
"134 514 LINE",
"143 556 LINE",
"155 568 LINE",
"157 592 LINE",
"164 607 LINE",
"184 623 LINE",
"196 639 LINE",
"209 646 LINE",
"223 654 LINE",
"235 654 LINE",
"259 656 LINE",
"292 659 LINE",
"327 652 LINE",
"332 649 LINE",
"365 625 LINE",
"365 624 LINE",
"369 610 LINE",
"383 580 LINE",
"381 554 LINE",
"395 537 LINE",
"396 528 LINE",
"399 510 LINE",
"388 475 LINE",
"361 434 LINE",
"345 421 LINE",
"320 407 LINE",
"318 406 LINE",
"283 392 LINE",
"269 348 LINE",
"302 322 LINE",
"338 311 LINE",
"362 295 LINE",
"381 288 LINE",
"404 274 LINE",
"430 240 LINE",
"434 234 LINE",
"447 189 LINE",
"447 185 LINE",
"442 169 LINE",
"425 131 LINE",
"416 113 LINE",
"408 98 LINE",
"408 97 LINE",
"353 78 LINE",
"339 73 LINE",
"337 72 LINE",
"291 69 LINE",
"259 74 LINE",
"241 57 LINE",
"266 13 LINE",
"291 5 LINE",
"320 12 LINE",
"334 11 LINE",
"362 16 LINE",
"396 33 LINE",
"431 41 LINE",
"459 62 LINE",
"474 92 LINE",
"487 105 LINE",
"490 128 LINE",
"499 147 LINE",
"507 175 LINE",
"507 175 LINE"
);
}
);
width = 545;
}
);
unicode = 00DF;
},
{
glyphname = t;
layers = (
{
layerId = "44398CD6-F961-4ECB-B01A-EEBF1DAB2450";
paths = (
{
closed = 1;
nodes = (
"35 486 LINE",
"72 500 LINE",
"114 481 LINE",
"134 480 LINE",
"134 475 LINE",
"136 440 LINE",
"131 415 LINE",
"132 383 LINE",
"147 353 LINE",
"134 328 LINE",
"138 298 LINE",
"149 239 LINE",
"151 198 LINE",
"157 164 LINE",
"166 134 LINE",
"171 98 LINE",
"196 76 LINE",
"206 59 LINE",
"216 42 LINE",
"222 27 LINE",
"254 9 LINE",
"272 2 LINE",
"298 -11 LINE",
"333 -11 LINE",
"389 0 LINE",
"348 71 LINE",
"322 70 LINE",
"300 79 LINE",
"285 84 LINE",
"275 102 LINE",
"266 118 LINE",
"248 141 LINE",
"237 176 LINE",
"231 222 LINE",
"223 273 LINE",
"225 325 LINE",
"228 345 LINE",
"228 376 LINE",
"213 405 LINE",
"214 460 LINE",
"214 464 LINE",
"216 475 LINE",
"221 483 LINE",
"225 485 LINE",
"228 485 LINE",
"256 481 LINE",
"309 477 LINE",
"334 556 LINE",
"290 564 LINE",
"244 564 LINE",
"220 568 LINE",
"213 584 LINE",
"213 586 LINE",
"212 616 LINE",
"210 629 LINE",
"143 675 LINE",
"131 602 LINE",
"132 592 LINE",
"134 563 LINE",
"132 563 LINE",
"122 563 LINE",
"89 580 LINE",
"31 572 LINE",
"-3 498 LINE"
);
}
);
width = 423;
}
);
note = t;
unicode = 0074;
},
{
glyphname = tcaron;
layers = (
{
layerId = "44398CD6-F961-4ECB-B01A-EEBF1DAB2450";
paths = (
{
closed = 1;
nodes = (
"397 7 LINE",
"344 34 LINE",
"312 58 LINE",
"278 105 LINE",
"247 175 LINE",
"240 250 LINE",
"245 301 LINE",
"232 382 LINE",
"238 434 LINE",
"228 449 LINE",
"202 459 LINE",
"178 451 LINE",
"132 458 LINE",
"164 529 LINE",
"226 537 LINE",
"232 570 LINE",
"229 621 LINE",
"309 608 LINE",
"309 543 LINE",
"312 535 LINE",
"335 529 LINE",
"375 526 LINE",
"428 472 LINE",
"350 450 LINE",
"322 447 LINE",
"315 411 LINE",
"308 352 LINE",
"324 316 LINE",
"318 271 LINE",
"314 222 LINE",
"333 161 LINE",
"358 125 LINE",
"374 108 LINE",
"404 86 LINE",
"422 83 LINE",
"453 10 LINE"
);
},
{
closed = 1;
nodes = (
"377 725 LINE",
"392 688 LINE",
"399 609 LINE",
"464 651 LINE",
"461 735 LINE",
"447 817 LINE",
"380 841 LINE",
"385 764 LINE"
);
}
);
width = 600;
}
);
unicode = 0165;
},
{
glyphname = u;
layers = (
{
layerId = "44398CD6-F961-4ECB-B01A-EEBF1DAB2450";
paths = (
{
closed = 1;
nodes = (
"61 421 LINE",
"65 379 LINE",
"64 354 LINE",
"74 337 LINE",
"81 272 LINE",
"75 247 LINE",
"77 210 LINE",
"82 198 LINE",
"83 182 LINE",
"78 141 LINE",
"91 110 LINE",
"129 55 LINE",
"154 42 LINE",
"185 14 LINE",
"235 14 LINE",
"270 22 LINE",
"308 21 LINE",
"340 36 LINE",
"343 38 LINE",
"350 27 LINE",
"354 -4 LINE",
"409 -41 LINE",
"433 -17 LINE",
"428 19 LINE",
"421 64 LINE",
"425 136 LINE",
"426 159 LINE",
"431 178 LINE",
"435 193 LINE",
"436 236 LINE",
"441 257 LINE",
"440 290 LINE",
"446 313 LINE",
"451 333 LINE",
"442 399 LINE",
"447 449 LINE",
"383 496 LINE",
"337 480 LINE",
"341 422 LINE",
"344 405 LINE",
"338 368 LINE",
"344 339 LINE",
"334 306 LINE",
"346 275 LINE",
"337 235 LINE",
"337 220 LINE",
"342 184 LINE",
"340 168 LINE",
"332 157 LINE",
"318 135 LINE",
"291 100 LINE",
"290 100 LINE",
"249 97 LINE",
"218 93 LINE",
"176 118 LINE",
"170 123 LINE",
"164 137 LINE",
"158 153 LINE",
"160 183 LINE",
"160 203 LINE",
"153 237 LINE",
"160 280 LINE",
"154 312 LINE",
"154 343 LINE",
"146 369 LINE",
"142 409 LINE",
"137 445 LINE",
"140 465 LINE",
"105 520 LINE",
"63 476 LINE",
"55 439 LINE"
);
}
);
width = 517;
}
);
note = u;
unicode = 0075;
},
{
glyphname = uhorn;
layers = (
{
layerId = "44398CD6-F961-4ECB-B01A-EEBF1DAB2450";
paths = (
{
closed = 1;
nodes = (
"529 527 LINE",
"513 490 LINE",
"502 474 LINE",
"482 450 LINE",
"469 445 LINE",
"456 442 LINE",
"426 446 LINE",
"413 483 LINE",
"348 452 LINE",
"348 421 LINE",
"352 376 LINE",
"351 364 LINE",
"359 315 LINE",
"344 250 LINE",
"323 199 LINE",
"317 176 LINE",
"314 161 LINE",
"306 153 LINE",
"299 138 LINE",
"291 126 LINE",
"265 99 LINE",
"243 78 LINE",
"235 77 LINE",
"188 77 LINE",
"166 112 LINE",
"152 149 LINE",
"148 170 LINE",
"148 173 LINE",
"143 212 LINE",
"146 251 LINE",
"145 268 LINE",
"146 279 LINE",
"143 311 LINE",
"142 321 LINE",
"135 372 LINE",
"134 390 LINE",
"131 411 LINE",
"131 417 LINE",
"133 436 LINE",
"132 463 LINE",
"137 480 LINE",
"134 499 LINE",
"112 518 LINE",
"65 484 LINE",
"63 450 LINE",
"63 443 LINE",
"61 427 LINE",
"62 398 LINE",
"63 385 LINE",
"70 333 LINE",
"71 316 LINE",
"76 291 LINE",
"76 289 LINE",
"75 264 LINE",
"76 247 LINE",
"77 181 LINE",
"80 152 LINE",
"87 110 LINE",
"93 72 LINE",
"119 57 LINE",
"154 9 LINE",
"183 4 LINE",
"214 7 LINE",
"257 7 LINE",
"298 29 LINE",
"306 37 LINE",
"317 43 LINE",
"331 65 LINE",
"350 82 LINE",
"352 80 LINE",
"422 71 LINE",
"418 108 LINE",
"418 132 LINE",
"416 151 LINE",
"414 197 LINE",
"414 262 LINE",
"423 282 LINE",
"434 306 LINE",
"421 353 LINE",
"422 358 LINE",
"436 372 LINE",
"476 373 LINE",
"492 378 LINE",
"503 381 LINE",
"554 423 LINE",
"563 438 LINE",
"570 449 LINE",
"584 481 LINE",
"576 543 LINE"
);
}
);
width = 617;
}
);
note = uhorn;
unicode = 01B0;
},
{
glyphname = v;
layers = (
{
layerId = "44398CD6-F961-4ECB-B01A-EEBF1DAB2450";
paths = (
{
closed = 1;
nodes = (
"314 47 LINE",
"330 100 LINE",
"336 112 LINE",
"339 163 LINE",
"340 172 LINE",
"352 190 LINE",
"357 208 LINE",
"372 236 LINE",
"373 285 LINE",
"376 302 LINE",
"378 312 LINE",
"398 344 LINE",
"406 378 LINE",
"416 400 LINE",
"412 424 LINE",
"339 443 LINE",
"336 415 LINE",
"328 373 LINE",
"310 342 LINE",
"302 316 LINE",
"298 304 LINE",
"300 261 LINE",
"284 232 LINE",
"270 197 LINE",
"263 170 LINE",
"265 141 LINE",
"263 137 LINE",
"253 143 LINE",
"244 182 LINE",
"227 210 LINE",
"223 226 LINE",
"207 259 LINE",
"197 287 LINE",
"177 308 LINE",
"169 333 LINE",
"163 346 LINE",
"167 377 LINE",
"151 399 LINE",
"146 415 LINE",
"130 447 LINE",
"118 478 LINE",
"106 494 LINE",
"100 505 LINE",
"32 472 LINE",
"45 450 LINE",
"55 437 LINE",
"74 396 LINE",
"79 378 LINE",
"86 358 LINE",
"94 312 LINE",
"101 301 LINE",
"109 268 LINE",
"127 249 LINE",
"150 204 LINE",
"156 173 LINE",
"174 155 LINE",
"180 124 LINE",
"192 94 LINE",
"213 52 LINE",
"229 24 LINE",
"300 20 LINE"
);
}
);
width = 450;
}
);
note = v;
unicode = 0076;
},
{
glyphname = w;
layers = (
{
layerId = "44398CD6-F961-4ECB-B01A-EEBF1DAB2450";
paths = (
{
closed = 1;
nodes = (
"46 442 LINE",
"65 397 LINE",
"74 371 LINE",
"84 335 LINE",
"81 311 LINE",
"87 297 LINE",
"97 245 LINE",
"113 208 LINE",
"106 174 LINE",
"123 147 LINE",
"131 119 LINE",
"136 80 LINE",
"155 50 LINE",
"255 48 LINE",
"274 86 LINE",
"287 132 LINE",
"295 146 LINE",
"308 173 LINE",
"306 220 LINE",
"309 234 LINE",
"325 250 LINE",
"331 278 LINE",
"346 304 LINE",
"353 348 LINE",
"355 351 LINE",
"355 350 LINE",
"362 329 LINE",
"367 315 LINE",
"369 303 LINE",
"384 256 LINE",
"385 249 LINE",
"376 201 LINE",
"393 160 LINE",
"393 121 LINE",
"413 98 LINE",
"409 79 LINE",
"416 58 LINE",
"431 45 LINE",
"449 26 LINE",
"509 66 LINE",
"511 76 LINE",
"540 159 LINE",
"560 190 LINE",
"585 265 LINE",
"605 321 LINE",
"624 348 LINE",
"636 396 LINE",
"643 418 LINE",
"663 449 LINE",
"662 497 LINE",
"582 478 LINE",
"560 454 LINE",
"560 422 LINE",
"554 390 LINE",
"529 358 LINE",
"517 319 LINE",
"506 287 LINE",
"502 252 LINE",
"478 212 LINE",
"471 204 LINE",
"462 213 LINE",
"465 245 LINE",
"461 279 LINE",
"450 309 LINE",
"446 335 LINE",
"438 359 LINE",
"432 376 LINE",
"431 381 LINE",
"427 414 LINE",
"426 457 LINE",
"391 478 LINE",
"386 483 LINE",
"313 446 LINE",
"286 399 LINE",
"285 396 LINE",
"276 371 LINE",
"271 334 LINE",
"247 289 LINE",
"232 260 LINE",
"227 241 LINE",
"229 194 LINE",
"227 188 LINE",
"204 170 LINE",
"193 190 LINE",
"192 219 LINE",
"180 253 LINE",
"168 290 LINE",
"163 320 LINE",
"159 367 LINE",
"147 404 LINE",
"145 410 LINE",
"137 442 LINE",
"111 496 LINE",
"34 469 LINE"
);
}
);
width = 697;
}
);
note = w;
unicode = 0077;
},
{
glyphname = x;
layers = (
{
layerId = "44398CD6-F961-4ECB-B01A-EEBF1DAB2450";
paths = (
{
closed = 1;
nodes = (
"255 157 LINE",
"267 168 LINE",
"280 164 LINE",
"287 153 LINE",
"303 109 LINE",
"342 84 LINE",
"353 70 LINE",
"370 31 LINE",
"403 22 LINE",
"434 84 LINE",
"419 118 LINE",
"370 167 LINE",
"359 192 LINE",
"350 209 LINE",
"313 241 LINE",
"310 247 LINE",
"313 255 LINE",
"341 294 LINE",
"362 348 LINE",
"365 351 LINE",
"380 369 LINE",
"395 389 LINE",
"404 403 LINE",
"439 451 LINE",
"455 485 LINE",
"429 546 LINE",
"376 507 LINE",
"356 472 LINE",
"339 452 LINE",
"326 433 LINE",
"317 421 LINE",
"305 408 LINE",
"286 377 LINE",
"278 353 LINE",
"259 321 LINE",
"257 320 LINE",
"254 323 LINE",
"241 359 LINE",
"206 387 LINE",
"182 431 LINE",
"162 446 LINE",
"133 493 LINE",
"98 530 LINE",
"30 483 LINE",
"51 460 LINE",
"80 424 LINE",
"121 373 LINE",
"137 334 LINE",
"170 309 LINE",
"194 265 LINE",
"198 260 LINE",
"203 250 LINE",
"202 223 LINE",
"171 181 LINE",
"155 155 LINE",
"149 147 LINE",
"126 119 LINE",
"109 87 LINE",
"112 7 LINE",
"155 11 LINE",
"184 54 LINE",
"211 94 LINE",
"228 119 LINE",
"249 136 LINE"
);
}
);
width = 490;
}
);
note = x;
unicode = 0078;
},
{
glyphname = y;
layers = (
{
layerId = "44398CD6-F961-4ECB-B01A-EEBF1DAB2450";
paths = (
{
closed = 1;
nodes = (
"351 238 LINE",
"358 260 LINE",
"363 292 LINE",
"363 310 LINE",
"359 344 LINE",
"364 366 LINE",
"375 425 LINE",
"376 455 LINE",
"377 467 LINE",
"380 486 LINE",
"348 544 LINE",
"299 499 LINE",
"296 479 LINE",
"294 452 LINE",
"287 407 LINE",
"281 373 LINE",
"280 369 LINE",
"272 339 LINE",
"282 314 LINE",
"281 292 LINE",
"280 283 LINE",
"258 250 LINE",
"254 217 LINE",
"249 209 LINE",
"234 190 LINE",
"229 185 LINE",
"215 211 LINE",
"202 247 LINE",
"193 282 LINE",
"188 293 LINE",
"163 330 LINE",
"160 343 LINE",
"150 372 LINE",
"134 432 LINE",
"105 490 LINE",
"36 446 LINE",
"50 426 LINE",
"61 393 LINE",
"67 368 LINE",
"76 338 LINE",
"79 328 LINE",
"83 308 LINE",
"110 267 LINE",
"118 247 LINE",
"126 203 LINE",
"135 165 LINE",
"151 119 LINE",
"162 88 LINE",
"164 82 LINE",
"166 67 LINE",
"151 39 LINE",
"145 10 LINE",
"117 -21 LINE",
"90 -47 LINE",
"84 -54 LINE",
"65 -60 LINE",
"7 -76 LINE",
"55 -146 LINE",
"97 -136 LINE",
"134 -124 LINE",
"156 -96 LINE",
"193 -58 LINE",
"219 -31 LINE",
"227 -14 LINE",
"227 5 LINE",
"258 40 LINE",
"267 71 LINE",
"280 92 LINE",
"290 127 LINE",
"301 143 LINE",
"311 157 LINE",
"324 172 LINE",
"337 225 LINE"
);
}
);
width = 427;
}
);
note = y;
unicode = 0079;
},
{
glyphname = z;
layers = (
{
layerId = "44398CD6-F961-4ECB-B01A-EEBF1DAB2450";
paths = (
{
closed = 1;
nodes = (
"110 423 LINE",
"151 433 LINE",
"186 426 LINE",
"221 433 LINE",
"253 436 LINE",
"278 431 LINE",
"308 431 LINE",
"326 433 LINE",
"319 420 LINE",
"288 389 LINE",
"275 354 LINE",
"242 323 LINE",
"232 309 LINE",
"194 282 LINE",
"184 268 LINE",
"167 244 LINE",
"138 213 LINE",
"132 203 LINE",
"120 191 LINE",
"97 150 LINE",
"59 124 LINE",
"43 81 LINE",
"76 12 LINE",
"111 0 LINE",
"139 11 LINE",
"174 17 LINE",
"189 23 LINE",
"234 28 LINE",
"304 43 LINE",
"336 39 LINE",
"388 46 LINE",
"398 48 LINE",
"429 56 LINE",
"440 144 LINE",
"392 137 LINE",
"364 131 LINE",
"336 128 LINE",
"296 134 LINE",
"253 117 LINE",
"227 124 LINE",
"202 115 LINE",
"177 116 LINE",
"178 126 LINE",
"190 141 LINE",
"206 162 LINE",
"232 178 LINE",
"243 207 LINE",
"255 221 LINE",
"297 254 LINE",
"305 268 LINE",
"333 293 LINE",
"349 313 LINE",
"353 335 LINE",
"382 352 LINE",
"394 381 LINE",
"432 413 LINE",
"471 451 LINE",
"488 502 LINE",
"453 535 LINE",
"428 529 LINE",
"401 526 LINE",
"348 524 LINE",
"313 522 LINE",
"298 519 LINE",
"289 519 LINE",
"258 530 LINE",
"226 522 LINE",
"183 515 LINE",
"138 521 LINE",
"104 513 LINE",
"39 503 LINE",
"64 436 LINE"
);
}
);
width = 521;
}
);
note = z;
unicode = 007A;
},
{
glyphname = "Be-cy";
layers = (
{
layerId = "44398CD6-F961-4ECB-B01A-EEBF1DAB2450";
paths = (
{
closed = 1;
nodes = (
"541 288 LINE",
"500 353 LINE",
"381 400 LINE",
"311 420 LINE",
"288 435 LINE",
"249 430 LINE",
"198 415 LINE",
"146 390 LINE",
"140 414 LINE",
"136 490 LINE",
"135 527 LINE",
"136 566 LINE",
"143 605 LINE",
"167 622 LINE",
"211 621 LINE",
"286 616 LINE",
"330 618 LINE",
"416 631 LINE",
"472 634 LINE",
"445 710 LINE",
"385 706 LINE",
"345 697 LINE",
"308 698 LINE",
"259 694 LINE",
"245 695 LINE",
"190 700 LINE",
"121 688 LINE",
"65 691 LINE",
"59 637 LINE",
"58 551 LINE",
"56 506 LINE",
"60 463 LINE",
"59 438 LINE",
"63 380 LINE",
"58 317 LINE",
"64 244 LINE",
"52 174 LINE",
"54 101 LINE",
"83 22 LINE",
"145 -8 LINE",
"170 5 LINE",
"206 17 LINE",
"266 35 LINE",
"345 48 LINE",
"412 61 LINE",
"473 104 LINE",
"538 215 LINE"
);
},
{
closed = 1;
nodes = (
"403 145 LINE",
"370 130 LINE",
"352 129 LINE",
"295 111 LINE",
"216 96 LINE",
"162 85 LINE",
"133 79 LINE",
"130 129 LINE",
"135 177 LINE",
"134 198 LINE",
"143 222 LINE",
"131 284 LINE",
"144 309 LINE",
"220 337 LINE",
"270 351 LINE",
"335 334 LINE",
"359 319 LINE",
"407 324 LINE",
"419 317 LINE",
"430 311 LINE",
"455 278 LINE",
"457 247 LINE",
"457 203 LINE",
"454 194 LINE",
"423 169 LINE"
);
}
);
width = 600;
}
);
unicode = 0411;
},
{
glyphname = "Ge-cy";
layers = (
{
layerId = "44398CD6-F961-4ECB-B01A-EEBF1DAB2450";
paths = (
{
closed = 1;
nodes = (
"522 697 LINE",
"496 686 LINE",
"456 694 LINE",
"369 681 LINE",
"316 691 LINE",
"273 690 LINE",
"182 684 LINE",
"110 681 LINE",
"105 614 LINE",
"103 578 LINE",
"111 524 LINE",
"105 467 LINE",
"101 407 LINE",
"97 366 LINE",
"110 336 LINE",
"107 269 LINE",
"111 224 LINE",
"111 167 LINE",
"110 156 LINE",
"107 97 LINE",
"109 64 LINE",
"182 36 LINE",
"186 85 LINE",
"183 124 LINE",
"189 194 LINE",
"186 251 LINE",
"183 296 LINE",
"179 373 LINE",
"176 437 LINE",
"187 501 LINE",
"181 564 LINE",
"182 599 LINE",
"216 613 LINE",
"240 618 LINE",
"294 608 LINE",
"336 609 LINE",
"395 608 LINE",
"441 616 LINE",
"527 616 LINE",
"541 693 LINE"
);
}
);
width = 600;
}
);
unicode = 0413;
},
{
glyphname = "Gheupturn-cy";
layers = (
{
layerId = "44398CD6-F961-4ECB-B01A-EEBF1DAB2450";
paths = (
{
closed = 1;
nodes = (
"460 837 LINE",
"452 770 LINE",
"447 710 LINE",
"426 698 LINE",
"373 695 LINE",
"305 703 LINE",
"224 688 LINE",
"169 699 LINE",
"125 663 LINE",
"115 598 LINE",
"114 539 LINE",
"113 482 LINE",
"116 400 LINE",
"121 360 LINE",
"121 333 LINE",
"117 243 LINE",
"120 209 LINE",
"120 167 LINE",
"119 97 LINE",
"118 54 LINE",
"194 31 LINE",
"199 71 LINE",
"199 116 LINE",
"201 172 LINE",
"198 228 LINE",
"190 279 LINE",
"190 292 LINE",
"200 340 LINE",
"196 396 LINE",
"190 428 LINE",
"189 461 LINE",
"195 482 LINE",
"189 507 LINE",
"191 572 LINE",
"196 613 LINE",
"224 604 LINE",
"257 613 LINE",
"316 624 LINE",
"359 614 LINE",
"407 620 LINE",
"463 621 LINE",
"523 623 LINE",
"525 675 LINE",
"531 707 LINE",
"525 732 LINE",
"529 796 LINE",
"539 834 LINE"
);
}
);
width = 600;
}
);
unicode = 0490;
},
{
glyphname = "De-cy";
layers = (
{
layerId = "44398CD6-F961-4ECB-B01A-EEBF1DAB2450";
paths = (
{
closed = 1;
nodes = (
"581 -9 LINE",
"588 38 LINE",
"540 56 LINE",
"477 88 LINE",
"495 149 LINE",
"490 178 LINE",
"486 217 LINE",
"488 241 LINE",
"488 304 LINE",
"488 327 LINE",
"490 389 LINE",
"488 418 LINE",
"495 444 LINE",
"491 499 LINE",
"499 543 LINE",
"492 622 LINE",
"527 654 LINE",
"503 700 LINE",
"454 690 LINE",
"403 687 LINE",
"307 683 LINE",
"247 695 LINE",
"202 690 LINE",
"187 691 LINE",
"132 652 LINE",
"121 599 LINE",
"118 572 LINE",
"110 530 LINE",
"115 460 LINE",
"109 404 LINE",
"96 352 LINE",
"85 319 LINE",
"72 280 LINE",
"56 208 LINE",
"18 141 LINE",
"10 81 LINE",
"-43 65 LINE",
"-41 6 LINE",
"-53 -46 LINE",
"-3 -121 LINE",
"35 -52 LINE",
"29 -28 LINE",
"33 -9 LINE",
"33 -8 LINE",
"65 7 LINE",
"127 -2 LINE",
"178 6 LINE",
"227 6 LINE",
"300 5 LINE",
"357 11 LINE",
"433 9 LINE",
"506 9 LINE",
"513 -47 LINE",
"512 -86 LINE",
"510 -131 LINE",
"581 -116 LINE",
"591 -45 LINE"
);
},
{
closed = 1;
nodes = (
"271 78 LINE",
"199 83 LINE",
"144 78 LINE",
"105 75 LINE",
"86 83 LINE",
"86 98 LINE",
"99 133 LINE",
"132 203 LINE",
"138 237 LINE",
"151 270 LINE",
"165 316 LINE",
"174 355 LINE",
"187 408 LINE",
"187 498 LINE",
"194 547 LINE",
"194 580 LINE",
"198 613 LINE",
"227 615 LINE",
"268 616 LINE",
"354 621 LINE",
"362 621 LINE",
"388 606 LINE",
"420 612 LINE",
"427 575 LINE",
"421 533 LINE",
"421 469 LINE",
"411 416 LINE",
"417 360 LINE",
"415 277 LINE",
"409 232 LINE",
"415 188 LINE",
"417 156 LINE",
"412 138 LINE",
"406 84 LINE",
"400 79 LINE",
"356 92 LINE",
"323 81 LINE",
"316 82 LINE"
);
}
);
width = 600;
}
);
unicode = 0414;
},
{
glyphname = "Zhe-cy";
layers = (
{
layerId = "44398CD6-F961-4ECB-B01A-EEBF1DAB2450";
paths = (
{
closed = 1;
nodes = (
"717 60 LINE",
"700 77 LINE",
"653 122 LINE",
"615 163 LINE",
"589 199 LINE",
"570 222 LINE",
"544 235 LINE",
"536 252 LINE",
"505 273 LINE",
"472 307 LINE",
"426 350 LINE",
"407 378 LINE",
"407 383 LINE",
"433 417 LINE",
"455 437 LINE",
"483 462 LINE",
"510 504 LINE",
"614 592 LINE",
"649 713 LINE",
"547 623 LINE",
"443 531 LINE",
"415 502 LINE",
"392 476 LINE",
"368 446 LINE",
"330 423 LINE",
"328 427 LINE",
"323 478 LINE",
"325 514 LINE",
"327 548 LINE",
"323 576 LINE",
"315 611 LINE",
"312 639 LINE",
"311 678 LINE",
"256 705 LINE",
"239 648 LINE",
"250 579 LINE",
"256 539 LINE",
"255 500 LINE",
"256 447 LINE",
"253 441 LINE",
"235 449 LINE",
"174 498 LINE",
"160 526 LINE",
"135 546 LINE",
"78 590 LINE",
"20 641 LINE",
"-33 683 LINE",
"-67 703 LINE",
"-101 668 LINE",
"-59 615 LINE",
"2 570 LINE",
"24 538 LINE",
"54 523 LINE",
"105 480 LINE",
"144 431 LINE",
"168 418 LINE",
"184 396 LINE",
"178 384 LINE",
"133 333 LINE",
"82 275 LINE",
"66 255 LINE",
"26 213 LINE",
"4 181 LINE",
"-15 155 LINE",
"-46 126 LINE",
"-70 88 LINE",
"-97 66 LINE",
"-87 10 LINE",
"-11 45 LINE",
"-2 67 LINE",
"16 81 LINE",
"27 97 LINE",
"48 119 LINE",
"79 155 LINE",
"96 190 LINE",
"120 204 LINE",
"128 219 LINE",
"143 230 LINE",
"152 259 LINE",
"159 265 LINE",
"208 317 LINE",
"242 346 LINE",
"267 353 LINE",
"260 320 LINE",
"260 290 LINE",
"274 262 LINE",
"275 211 LINE",
"276 155 LINE",
"281 100 LINE",
"282 88 LINE",
"278 35 LINE",
"350 18 LINE",
"353 67 LINE",
"348 138 LINE",
"345 189 LINE",
"343 237 LINE",
"330 311 LINE",
"332 316 LINE",
"338 322 LINE",
"350 325 LINE",
"361 318 LINE",
"404 280 LINE",
"432 245 LINE",
"475 206 LINE",
"530 163 LINE",
"547 141 LINE",
"550 128 LINE",
"580 98 LINE",
"632 51 LINE",
"690 -6 LINE",
"738 49 LINE"
);
}
);
width = 600;
}
);
unicode = 0416;
},
{
glyphname = "Ze-cy";
layers = (
{
layerId = "44398CD6-F961-4ECB-B01A-EEBF1DAB2450";
paths = (
{
closed = 1;
nodes = (
"522 245 LINE",
"515 296 LINE",
"471 329 LINE",
"462 334 LINE",
"436 374 LINE",
"478 411 LINE",
"494 465 LINE",
"503 551 LINE",
"494 563 LINE",
"444 652 LINE",
"339 687 LINE",
"303 697 LINE",
"272 699 LINE",
"208 653 LINE",
"166 618 LINE",
"127 583 LINE",
"162 516 LINE",
"201 551 LINE",
"230 577 LINE",
"237 584 LINE",
"274 617 LINE",
"282 621 LINE",
"305 620 LINE",
"361 616 LINE",
"411 578 LINE",
"436 514 LINE",
"418 462 LINE",
"408 452 LINE",
"375 430 LINE",
"346 421 LINE",
"308 429 LINE",
"233 416 LINE",
"277 353 LINE",
"331 325 LINE",
"370 307 LINE",
"395 306 LINE",
"444 259 LINE",
"448 250 LINE",
"455 210 LINE",
"443 186 LINE",
"442 155 LINE",
"401 110 LINE",
"391 104 LINE",
"328 93 LINE",
"304 92 LINE",
"246 111 LINE",
"231 140 LINE",
"241 180 LINE",
"171 210 LINE",
"166 179 LINE",
"154 168 LINE",
"160 115 LINE",
"194 54 LINE",
"267 25 LINE",
"317 4 LINE",
"369 25 LINE",
"386 28 LINE",
"420 27 LINE",
"439 46 LINE",
"471 82 LINE",
"510 115 LINE",
"516 166 LINE",
"531 230 LINE"
);
}
);
width = 600;
}
);
unicode = 0417;
},
{
glyphname = "Ii-cy";
layers = (
{
layerId = "44398CD6-F961-4ECB-B01A-EEBF1DAB2450";
paths = (
{
closed = 1;
nodes = (
"581 660 LINE",
"518 675 LINE",
"509 671 LINE",
"456 617 LINE",
"419 577 LINE",
"396 527 LINE",
"389 520 LINE",
"346 494 LINE",
"321 447 LINE",
"274 406 LINE",
"238 360 LINE",
"203 304 LINE",
"171 260 LINE",
"147 225 LINE",
"130 188 LINE",
"117 170 LINE",
"110 167 LINE",
"104 195 LINE",
"107 222 LINE",
"116 245 LINE",
"108 294 LINE",
"105 344 LINE",
"104 423 LINE",
"103 433 LINE",
"102 490 LINE",
"103 498 LINE",
"109 571 LINE",
"105 610 LINE",
"105 688 LINE",
"44 662 LINE",
"34 587 LINE",
"41 540 LINE",
"31 464 LINE",
"37 388 LINE",
"34 315 LINE",
"41 251 LINE",
"32 214 LINE",
"32 169 LINE",
"32 142 LINE",
"36 93 LINE",
"41 62 LINE",
"83 4 LINE",
"113 35 LINE",
"147 78 LINE",
"166 111 LINE",
"182 135 LINE",
"206 166 LINE",
"226 208 LINE",
"243 239 LINE",
"277 290 LINE",
"281 297 LINE",
"315 344 LINE",
"342 376 LINE",
"382 406 LINE",
"410 448 LINE",
"432 461 LINE",
"444 470 LINE",
"453 455 LINE",
"449 407 LINE",
"453 297 LINE",
"437 271 LINE",
"451 237 LINE",
"439 185 LINE",
"439 140 LINE",
"446 31 LINE",
"520 -19 LINE",
"514 68 LINE",
"513 167 LINE",
"523 268 LINE",
"519 345 LINE",
"519 373 LINE",
"523 427 LINE",
"527 476 LINE",
"524 526 LINE",
"529 574 LINE",
"547 600 LINE"
);
}
);
width = 600;
}
);
unicode = 0418;
},
{
glyphname = "Iishort-cy";
layers = (
{
layerId = "44398CD6-F961-4ECB-B01A-EEBF1DAB2450";
paths = (
{
closed = 1;
nodes = (
"505 9 LINE",
"496 72 LINE",
"491 149 LINE",
"486 204 LINE",
"483 266 LINE",
"485 322 LINE",
"471 377 LINE",
"473 433 LINE",
"480 495 LINE",
"474 570 LINE",
"464 560 LINE",
"444 525 LINE",
"425 493 LINE",
"396 451 LINE",
"364 386 LINE",
"349 363 LINE",
"322 345 LINE",
"311 330 LINE",
"249 222 LINE",
"227 184 LINE",
"206 145 LINE",
"181 111 LINE",
"156 68 LINE",
"112 24 LINE",
"55 77 LINE",
"50 134 LINE",
"54 175 LINE",
"63 221 LINE",
"61 264 LINE",
"57 305 LINE",
"58 378 LINE",
"50 449 LINE",
"47 491 LINE",
"47 602 LINE",
"71 694 LINE",
"123 677 LINE",
"121 623 LINE",
"124 572 LINE",
"121 519 LINE",
"127 468 LINE",
"130 410 LINE",
"127 341 LINE",
"131 322 LINE",
"138 258 LINE",
"136 194 LINE",
"152 206 LINE",
"173 240 LINE",
"191 275 LINE",
"217 300 LINE",
"234 333 LINE",
"236 356 LINE",
"252 379 LINE",
"292 416 LINE",
"319 458 LINE",
"324 490 LINE",
"345 510 LINE",
"366 553 LINE",
"390 585 LINE",
"418 623 LINE",
"453 665 LINE",
"529 674 LINE",
"545 611 LINE",
"552 568 LINE",
"555 509 LINE",
"551 467 LINE",
"547 418 LINE",
"553 360 LINE",
"558 285 LINE",
"556 239 LINE",
"561 179 LINE",
"564 111 LINE",
"562 36 LINE"
);
},
{
closed = 1;
nodes = (
"181 802 LINE",
"240 743 LINE",
"266 734 LINE",
"320 734 LINE",
"368 742 LINE",
"419 817 LINE",
"395 890 LINE",
"363 863 LINE",
"350 817 LINE",
"342 804 LINE",
"297 798 LINE",
"276 801 LINE",
"247 812 LINE",
"221 856 LINE",
"157 838 LINE",
"162 817 LINE"
);
}
);
width = 600;
}
);
unicode = 0419;
},
{
glyphname = "Ka-cy";
layers = (
{
layerId = "44398CD6-F961-4ECB-B01A-EEBF1DAB2450";
paths = (
{
closed = 1;
nodes = (
"508 83 LINE",
"469 124 LINE",
"457 157 LINE",
"430 171 LINE",
"372 247 LINE",
"351 272 LINE",
"322 302 LINE",
"306 322 LINE",
"270 356 LINE",
"262 385 LINE",
"275 409 LINE",
"317 435 LINE",
"343 466 LINE",
"364 488 LINE",
"422 530 LINE",
"463 555 LINE",
"492 583 LINE",
"516 617 LINE",
"510 684 LINE",
"448 645 LINE",
"432 629 LINE",
"395 599 LINE",
"357 560 LINE",
"309 535 LINE",
"281 504 LINE",
"250 481 LINE",
"208 432 LINE",
"152 386 LINE",
"151 386 LINE",
"144 397 LINE",
"146 439 LINE",
"151 506 LINE",
"145 559 LINE",
"146 573 LINE",
"158 673 LINE",
"93 695 LINE",
"88 656 LINE",
"87 614 LINE",
"80 528 LINE",
"84 476 LINE",
"71 454 LINE",
"76 424 LINE",
"74 372 LINE",
"74 342 LINE",
"70 286 LINE",
"69 252 LINE",
"78 192 LINE",
"77 172 LINE",
"67 152 LINE",
"68 110 LINE",
"70 75 LINE",
"92 -9 LINE",
"141 52 LINE",
"144 95 LINE",
"139 137 LINE",
"148 176 LINE",
"142 221 LINE",
"142 259 LINE",
"142 312 LINE",
"144 315 LINE",
"202 333 LINE",
"239 289 LINE",
"256 269 LINE",
"280 237 LINE",
"309 207 LINE",
"336 184 LINE",
"359 156 LINE",
"398 105 LINE",
"437 59 LINE",
"463 22 LINE",
"529 51 LINE",
"529 51 LINE"
);
}
);
width = 600;
}
);
unicode = 041A;
},
{
glyphname = "El-cy";
layers = (
{
layerId = "44398CD6-F961-4ECB-B01A-EEBF1DAB2450";
paths = (
{
closed = 1;
nodes = (
"477 696 LINE",
"431 701 LINE",
"370 698 LINE",
"311 693 LINE",
"257 691 LINE",
"208 691 LINE",
"163 695 LINE",
"137 637 LINE",
"150 609 LINE",
"153 583 LINE",
"140 522 LINE",
"144 464 LINE",
"142 423 LINE",
"143 347 LINE",
"128 312 LINE",
"132 275 LINE",
"111 232 LINE",
"90 152 LINE",
"38 95 LINE",
"0 79 LINE",
"-19 7 LINE",
"48 20 LINE",
"109 71 LINE",
"147 97 LINE",
"166 157 LINE",
"169 181 LINE",
"193 225 LINE",
"207 304 LINE",
"210 389 LINE",
"220 442 LINE",
"216 490 LINE",
"214 538 LINE",
"229 613 LINE",
"285 620 LINE",
"342 617 LINE",
"402 630 LINE",
"450 622 LINE",
"465 617 LINE",
"472 572 LINE",
"480 500 LINE",
"478 455 LINE",
"475 404 LINE",
"481 325 LINE",
"482 252 LINE",
"486 219 LINE",
"484 194 LINE",
"476 151 LINE",
"477 108 LINE",
"482 76 LINE",
"549 38 LINE",
"555 121 LINE",
"558 171 LINE",
"564 222 LINE",
"557 245 LINE",
"553 280 LINE",
"549 358 LINE",
"548 382 LINE",
"549 427 LINE",
"553 477 LINE",
"544 541 LINE",
"544 599 LINE",
"554 614 LINE",
"564 628 LINE",
"581 660 LINE"
);
}
);
width = 600;
}
);
unicode = 041B;
},
{
glyphname = "Pe-cy";
layers = (
{
layerId = "44398CD6-F961-4ECB-B01A-EEBF1DAB2450";
paths = (
{
closed = 1;
nodes = (
"538 202 LINE",
"538 245 LINE",
"538 334 LINE",
"539 378 LINE",
"543 424 LINE",
"536 512 LINE",
"538 574 LINE",
"537 592 LINE",
"536 644 LINE",
"479 686 LINE",
"416 686 LINE",
"370 693 LINE",
"309 693 LINE",
"253 694 LINE",
"199 695 LINE",
"154 703 LINE",
"134 707 LINE",
"118 712 LINE",
"54 683 LINE",
"59 640 LINE",
"53 586 LINE",
"54 559 LINE",
"61 492 LINE",
"56 422 LINE",
"53 353 LINE",
"51 292 LINE",
"54 230 LINE",
"57 177 LINE",
"58 117 LINE",
"49 76 LINE",
"65 32 LINE",
"123 -4 LINE",
"129 72 LINE",
"126 151 LINE",
"129 209 LINE",
"123 263 LINE",
"128 331 LINE",
"125 385 LINE",
"125 456 LINE",
"126 529 LINE",
"131 576 LINE",
"131 609 LINE",
"136 627 LINE",
"227 621 LINE",
"280 619 LINE",
"338 623 LINE",
"391 614 LINE",
"461 614 LINE",
"466 543 LINE",
"475 466 LINE",
"464 373 LINE",
"471 298 LINE",
"472 281 LINE",
"465 222 LINE",
"459 199 LINE",
"470 168 LINE",
"476 133 LINE",
"472 107 LINE",
"469 35 LINE",
"516 -1 LINE",
"542 50 LINE",
"546 166 LINE"
);
}
);
width = 600;
}
);
unicode = 041F;
},
{
glyphname = "U-cy";
layers = (
{
layerId = "44398CD6-F961-4ECB-B01A-EEBF1DAB2450";
paths = (
{
closed = 1;
nodes = (
"488 662 LINE",
"471 626 LINE",
"451 587 LINE",
"429 539 LINE",
"419 496 LINE",
"394 454 LINE",
"375 399 LINE",
"354 338 LINE",
"330 298 LINE",
"311 248 LINE",
"309 245 LINE",
"298 257 LINE",
"282 304 LINE",
"268 333 LINE",
"237 388 LINE",
"217 451 LINE",
"213 467 LINE",
"182 530 LINE",
"153 600 LINE",
"140 629 LINE",
"123 667 LINE",
"60 626 LINE",
"78 578 LINE",
"98 548 LINE",
"141 455 LINE",
"161 400 LINE",
"169 359 LINE",
"194 327 LINE",
"211 285 LINE",
"224 258 LINE",
"250 196 LINE",
"256 162 LINE",
"223 124 LINE",
"201 109 LINE",
"125 82 LINE",
"84 61 LINE",
"136 8 LINE",
"197 34 LINE",
"254 57 LINE",
"293 96 LINE",
"334 150 LINE",
"361 190 LINE",
"386 242 LINE",
"410 290 LINE",
"427 324 LINE",
"437 356 LINE",
"452 403 LINE",
"475 438 LINE",
"495 502 LINE",
"507 535 LINE",
"530 580 LINE",
"552 624 LINE",
"561 671 LINE"
);
}
);
width = 600;
}
);
unicode = 0423;
},
{
glyphname = "Ef-cy";
layers = (
{
layerId = "44398CD6-F961-4ECB-B01A-EEBF1DAB2450";
paths = (
{
closed = 1;
nodes = (
"626 374 LINE",
"613 416 LINE",
"599 458 LINE",
"587 505 LINE",
"531 560 LINE",
"489 585 LINE",
"466 604 LINE",
"438 620 LINE",
"426 622 LINE",
"417 633 LINE",
"336 636 LINE",
"331 637 LINE",
"288 756 LINE",
"254 692 LINE",
"255 627 LINE",
"240 622 LINE",
"146 607 LINE",
"96 586 LINE",
"69 573 LINE",
"59 539 LINE",
"25 511 LINE",
"11 501 LINE",
"0 476 LINE",
"-21 459 LINE",
"-27 433 LINE",
"-22 400 LINE",
"-29 342 LINE",
"3 220 LINE",
"38 152 LINE",
"61 115 LINE",
"105 94 LINE",
"185 56 LINE",
"264 43 LINE",
"274 42 LINE",
"275 40 LINE",
"296 -22 LINE",
"351 34 LINE",
"352 55 LINE",
"438 74 LINE",
"497 112 LINE",
"522 137 LINE",
"571 179 LINE",
"607 247 LINE",
"623 294 LINE",
"635 333 LINE"
);
},
{
closed = 1;
nodes = (
"461 188 LINE",
"424 151 LINE",
"387 135 LINE",
"342 132 LINE",
"345 162 LINE",
"351 213 LINE",
"348 254 LINE",
"347 311 LINE",
"343 344 LINE",
"332 426 LINE",
"334 466 LINE",
"339 512 LINE",
"342 559 LINE",
"375 560 LINE",
"416 545 LINE",
"470 507 LINE",
"512 485 LINE",
"519 465 LINE",
"533 414 LINE",
"549 371 LINE",
"552 343 LINE",
"543 292 LINE",
"523 245 LINE",
"496 210 LINE"
);
},
{
closed = 1;
nodes = (
"190 136 LINE",
"164 145 LINE",
"118 173 LINE",
"91 212 LINE",
"80 233 LINE",
"44 287 LINE",
"38 307 LINE",
"46 361 LINE",
"53 419 LINE",
"72 450 LINE",
"90 468 LINE",
"133 517 LINE",
"150 530 LINE",
"223 545 LINE",
"266 537 LINE",
"263 496 LINE",
"256 439 LINE",
"266 389 LINE",
"268 364 LINE",
"269 321 LINE",
"274 283 LINE",
"272 234 LINE",
"273 190 LINE",
"266 120 LINE",
"237 117 LINE"
);
}
);
width = 600;
}
);
unicode = 0424;
},
{
glyphname = "Che-cy";
layers = (
{
layerId = "44398CD6-F961-4ECB-B01A-EEBF1DAB2450";
paths = (
{
closed = 1;
nodes = (
"575 563 LINE",
"570 623 LINE",
"570 674 LINE",
"541 719 LINE",
"494 645 LINE",
"478 593 LINE",
"477 543 LINE",
"473 437 LINE",
"468 430 LINE",
"430 402 LINE",
"389 386 LINE",
"356 359 LINE",
"326 342 LINE",
"252 360 LINE",
"186 394 LINE",
"183 396 LINE",
"168 431 LINE",
"141 473 LINE",
"134 489 LINE",
"130 530 LINE",
"120 574 LINE",
"126 617 LINE",
"126 678 LINE",
"52 657 LINE",
"48 604 LINE",
"48 540 LINE",
"50 504 LINE",
"57 495 LINE",
"55 475 LINE",
"82 414 LINE",
"98 379 LINE",
"160 319 LINE",
"234 280 LINE",
"294 273 LINE",
"385 283 LINE",
"415 305 LINE",
"438 324 LINE",
"463 328 LINE",
"463 271 LINE",
"467 215 LINE",
"465 175 LINE",
"462 139 LINE",
"467 60 LINE",
"532 9 LINE",
"533 106 LINE",
"542 146 LINE",
"548 192 LINE",
"544 239 LINE",
"540 281 LINE",
"542 318 LINE",
"548 358 LINE",
"554 417 LINE",
"555 462 LINE",
"577 537 LINE"
);
}
);
width = 600;
}
);
unicode = 0427;
},
{
glyphname = "Tse-cy";
layers = (
{
layerId = "44398CD6-F961-4ECB-B01A-EEBF1DAB2450";
paths = (
{
closed = 1;
nodes = (
"630 -38 LINE",
"625 -2 LINE",
"626 38 LINE",
"579 83 LINE",
"567 85 LINE",
"557 107 LINE",
"550 198 LINE",
"551 263 LINE",
"555 290 LINE",
"557 329 LINE",
"552 357 LINE",
"548 396 LINE",
"547 445 LINE",
"542 499 LINE",
"538 533 LINE",
"539 603 LINE",
"545 646 LINE",
"475 673 LINE",
"467 633 LINE",
"475 568 LINE",
"466 517 LINE",
"474 465 LINE",
"479 417 LINE",
"479 369 LINE",
"482 325 LINE",
"480 281 LINE",
"486 229 LINE",
"475 195 LINE",
"483 167 LINE",
"489 136 LINE",
"482 84 LINE",
"441 88 LINE",
"398 79 LINE",
"339 88 LINE",
"278 79 LINE",
"214 87 LINE",
"150 88 LINE",
"143 148 LINE",
"143 225 LINE",
"139 305 LINE",
"138 375 LINE",
"139 422 LINE",
"141 458 LINE",
"133 507 LINE",
"135 540 LINE",
"141 591 LINE",
"122 635 LINE",
"67 575 LINE",
"62 528 LINE",
"63 479 LINE",
"63 443 LINE",
"68 399 LINE",
"70 351 LINE",
"66 307 LINE",
"77 253 LINE",
"70 233 LINE",
"72 214 LINE",
"74 174 LINE",
"77 113 LINE",
"77 97 LINE",
"63 57 LINE",
"96 16 LINE",
"138 11 LINE",
"187 17 LINE",
"234 15 LINE",
"310 14 LINE",
"362 14 LINE",
"434 16 LINE",
"508 9 LINE",
"549 6 LINE",
"556 -28 LINE",
"564 -72 LINE",
"630 -103 LINE",
"641 -73 LINE"
);
}
);
width = 600;
}
);
unicode = 0426;
},
{
glyphname = "Sha-cy";
layers = (
{
layerId = "44398CD6-F961-4ECB-B01A-EEBF1DAB2450";
paths = (
{
closed = 1;
nodes = (
"661 137 LINE",
"661 210 LINE",
"662 280 LINE",
"656 357 LINE",
"654 427 LINE",
"651 478 LINE",
"645 539 LINE",
"644 596 LINE",
"642 626 LINE",
"641 669 LINE",
"571 644 LINE",
"571 610 LINE",
"573 566 LINE",
"577 505 LINE",
"580 447 LINE",
"585 381 LINE",
"574 347 LINE",
"589 321 LINE",
"591 306 LINE",
"588 251 LINE",
"585 208 LINE",
"590 107 LINE",
"580 90 LINE",
"546 74 LINE",
"500 80 LINE",
"440 72 LINE",
"397 77 LINE",
"362 79 LINE",
"353 84 LINE",
"349 107 LINE",
"349 140 LINE",
"337 237 LINE",
"342 317 LINE",
"337 384 LINE",
"333 442 LINE",
"330 477 LINE",
"340 525 LINE",
"334 568 LINE",
"343 587 LINE",
"340 615 LINE",
"334 664 LINE",
"267 697 LINE",
"260 645 LINE",
"266 600 LINE",
"262 525 LINE",
"259 442 LINE",
"257 413 LINE",
"262 391 LINE",
"262 373 LINE",
"271 352 LINE",
"276 282 LINE",
"272 198 LINE",
"278 165 LINE",
"277 123 LINE",
"273 93 LINE",
"263 81 LINE",
"232 79 LINE",
"183 71 LINE",
"150 63 LINE",
"75 70 LINE",
"39 74 LINE",
"29 120 LINE",
"37 164 LINE",
"28 225 LINE",
"31 280 LINE",
"29 306 LINE",
"28 371 LINE",
"25 420 LINE",
"19 490 LINE",
"23 520 LINE",
"24 569 LINE",
"24 624 LINE",
"13 665 LINE",
"-56 635 LINE",
"-51 594 LINE",
"-50 552 LINE",
"-54 509 LINE",
"-45 448 LINE",
"-57 418 LINE",
"-44 390 LINE",
"-36 340 LINE",
"-41 253 LINE",
"-41 190 LINE",
"-46 147 LINE",
"-44 93 LINE",
"-41 47 LINE",
"-11 1 LINE",
"51 -1 LINE",
"109 1 LINE",
"160 -11 LINE",
"216 1 LINE",
"246 1 LINE",
"338 5 LINE",
"375 1 LINE",
"415 1 LINE",
"491 6 LINE",
"518 5 LINE",
"585 9 LINE",
"651 30 LINE",
"667 79 LINE",
"673 101 LINE"
);
}
);
width = 600;
}
);
unicode = 0428;
},
{
glyphname = "Shcha-cy";
layers = (
{
layerId = "44398CD6-F961-4ECB-B01A-EEBF1DAB2450";
paths = (
{
closed = 1;
nodes = (
"710 -32 LINE",
"710 -18 LINE",
"670 67 LINE",
"620 97 LINE",
"624 154 LINE",
"628 208 LINE",
"628 238 LINE",
"627 286 LINE",
"629 334 LINE",
"631 392 LINE",
"631 444 LINE",
"622 505 LINE",
"623 531 LINE",
"631 602 LINE",
"622 635 LINE",
"613 673 LINE",
"551 669 LINE",
"555 587 LINE",
"550 556 LINE",
"549 525 LINE",
"555 466 LINE",
"559 420 LINE",
"559 368 LINE",
"554 312 LINE",
"551 256 LINE",
"551 227 LINE",
"552 183 LINE",
"549 129 LINE",
"543 90 LINE",
"500 84 LINE",
"432 83 LINE",
"392 84 LINE",
"342 84 LINE",
"306 92 LINE",
"305 150 LINE",
"312 193 LINE",
"313 232 LINE",
"307 275 LINE",
"307 302 LINE",
"306 347 LINE",
"309 413 LINE",
"309 457 LINE",
"307 489 LINE",
"307 529 LINE",
"307 561 LINE",
"300 630 LINE",
"237 668 LINE",
"237 587 LINE",
"231 554 LINE",
"231 501 LINE",
"231 480 LINE",
"231 429 LINE",
"237 382 LINE",
"231 317 LINE",
"231 291 LINE",
"229 246 LINE",
"233 214 LINE",
"229 180 LINE",
"233 121 LINE",
"224 83 LINE",
"211 79 LINE",
"160 80 LINE",
"93 73 LINE",
"-10 74 LINE",
"-15 74 LINE",
"-19 74 LINE",
"-19 145 LINE",
"-20 210 LINE",
"-20 233 LINE",
"-13 297 LINE",
"-12 352 LINE",
"-16 401 LINE",
"-21 446 LINE",
"-19 504 LINE",
"-15 588 LINE",
"-22 661 LINE",
"-85 619 LINE",
"-88 546 LINE",
"-93 483 LINE",
"-93 400 LINE",
"-87 327 LINE",
"-90 272 LINE",
"-98 223 LINE",
"-90 175 LINE",
"-99 131 LINE",
"-91 100 LINE",
"-97 65 LINE",
"-50 7 LINE",
"31 11 LINE",
"52 8 LINE",
"94 -4 LINE",
"129 8 LINE",
"184 7 LINE",
"233 6 LINE",
"314 13 LINE",
"360 9 LINE",
"412 11 LINE",
"467 14 LINE",
"531 16 LINE",
"574 9 LINE",
"628 12 LINE",
"635 11 LINE",
"637 -57 LINE",
"637 -123 LINE",
"693 -170 LINE",
"708 -94 LINE"
);
}
);
width = 600;
}
);
unicode = 0429;
},
{
glyphname = "Dzhe-cy";
layers = (
{
layerId = "44398CD6-F961-4ECB-B01A-EEBF1DAB2450";
paths = (
{
closed = 1;
nodes = (
"567 70 LINE",
"566 140 LINE",
"563 197 LINE",
"558 255 LINE",
"563 321 LINE",
"554 394 LINE",
"557 447 LINE",
"552 498 LINE",
"554 532 LINE",
"553 613 LINE",
"537 703 LINE",
"484 646 LINE",
"474 608 LINE",
"485 569 LINE",
"477 511 LINE",
"484 462 LINE",
"485 432 LINE",
"477 408 LINE",
"492 342 LINE",
"487 283 LINE",
"481 255 LINE",
"490 224 LINE",
"491 167 LINE",
"494 114 LINE",
"496 91 LINE",
"453 80 LINE",
"419 76 LINE",
"361 73 LINE",
"295 71 LINE",
"185 66 LINE",
"165 65 LINE",
"139 76 LINE",
"136 86 LINE",
"132 105 LINE",
"128 147 LINE",
"129 170 LINE",
"136 214 LINE",
"129 261 LINE",
"131 330 LINE",
"139 366 LINE",
"133 401 LINE",
"124 443 LINE",
"124 481 LINE",
"121 541 LINE",
"120 547 LINE",
"122 605 LINE",
"117 701 LINE",
"69 695 LINE",
"60 648 LINE",
"51 578 LINE",
"52 506 LINE",
"54 414 LINE",
"59 371 LINE",
"58 302 LINE",
"55 227 LINE",
"56 199 LINE",
"54 162 LINE",
"53 125 LINE",
"63 72 LINE",
"63 62 LINE",
"43 8 LINE",
"104 -1 LINE",
"126 0 LINE",
"230 5 LINE",
"252 6 LINE",
"256 -3 LINE",
"269 -50 LINE",
"279 -115 LINE",
"310 -160 LINE",
"358 -136 LINE",
"340 -71 LINE",
"337 -7 LINE",
"338 -4 LINE",
"391 4 LINE",
"439 3 LINE",
"487 12 LINE",
"564 55 LINE"
);
}
);
width = 600;
}
);
unicode = 040F;
},
{
glyphname = "Softsign-cy";
layers = (
{
layerId = "44398CD6-F961-4ECB-B01A-EEBF1DAB2450";
paths = (
{
closed = 1;
nodes = (
"541 243 LINE",
"547 287 LINE",
"495 348 LINE",
"431 385 LINE",
"371 417 LINE",
"315 417 LINE",
"241 419 LINE",
"214 416 LINE",
"148 418 LINE",
"146 418 LINE",
"142 451 LINE",
"136 518 LINE",
"137 621 LINE",
"125 708 LINE",
"67 660 LINE",
"72 580 LINE",
"70 559 LINE",
"58 516 LINE",
"71 481 LINE",
"69 425 LINE",
"68 377 LINE",
"77 295 LINE",
"74 250 LINE",
"75 198 LINE",
"80 141 LINE",
"82 78 LINE",
"84 21 LINE",
"118 -28 LINE",
"161 5 LINE",
"171 9 LINE",
"228 8 LINE",
"309 15 LINE",
"375 14 LINE",
"449 52 LINE",
"504 94 LINE",
"537 155 LINE",
"555 216 LINE"
);
},
{
closed = 1;
nodes = (
"262 77 LINE",
"235 94 LINE",
"199 80 LINE",
"160 84 LINE",
"151 110 LINE",
"148 179 LINE",
"149 217 LINE",
"148 267 LINE",
"142 338 LINE",
"142 341 LINE",
"180 346 LINE",
"236 342 LINE",
"275 349 LINE",
"332 341 LINE",
"374 333 LINE",
"427 310 LINE",
"461 277 LINE",
"464 273 LINE",
"475 203 LINE",
"455 161 LINE",
"445 144 LINE",
"439 136 LINE",
"431 126 LINE",
"379 92 LINE",
"378 91 LINE",
"355 93 LINE"
);
}
);
width = 600;
}
);
unicode = 042C;
},
{
glyphname = "Hardsign-cy";
layers = (
{
layerId = "44398CD6-F961-4ECB-B01A-EEBF1DAB2450";
paths = (
{
closed = 1;
nodes = (
"576 343 LINE",
"549 395 LINE",
"523 404 LINE",
"507 406 LINE",
"495 417 LINE",
"451 431 LINE",
"389 437 LINE",
"327 443 LINE",
"275 434 LINE",
"250 444 LINE",
"243 460 LINE",
"249 489 LINE",
"239 529 LINE",
"245 604 LINE",
"259 645 LINE",
"239 670 LINE",
"162 683 LINE",
"102 682 LINE",
"62 685 LINE",
"-28 691 LINE",
"8 625 LINE",
"35 613 LINE",
"71 609 LINE",
"135 611 LINE",
"156 602 LINE",
"166 578 LINE",
"161 529 LINE",
"171 490 LINE",
"166 441 LINE",
"174 365 LINE",
"174 278 LINE",
"167 203 LINE",
"167 101 LINE",
"181 13 LINE",
"264 0 LINE",
"305 -2 LINE",
"329 -9 LINE",
"341 -5 LINE",
"358 -6 LINE",
"400 16 LINE",
"428 18 LINE",
"466 40 LINE",
"528 55 LINE",
"566 115 LINE",
"604 153 LINE",
"605 212 LINE",
"611 248 LINE"
);
},
{
closed = 1;
nodes = (
"416 100 LINE",
"355 81 LINE",
"321 73 LINE",
"292 74 LINE",
"245 76 LINE",
"240 120 LINE",
"238 166 LINE",
"243 239 LINE",
"241 312 LINE",
"252 360 LINE",
"313 363 LINE",
"358 366 LINE",
"412 364 LINE",
"458 350 LINE",
"499 324 LINE",
"534 268 LINE",
"535 240 LINE",
"528 183 LINE",
"480 119 LINE",
"453 115 LINE"
);
}
);
width = 600;
}
);
unicode = 042A;
},
{
glyphname = "Yeru-cy";
layers = (
{
layerId = "44398CD6-F961-4ECB-B01A-EEBF1DAB2450";
paths = (
{
closed = 1;
nodes = (
"457 264 LINE",
"445 291 LINE",
"416 341 LINE",
"405 346 LINE",
"395 364 LINE",
"357 385 LINE",
"331 399 LINE",
"253 411 LINE",
"240 406 LINE",
"221 412 LINE",
"182 401 LINE",
"148 410 LINE",
"122 408 LINE",
"67 412 LINE",
"59 474 LINE",
"61 516 LINE",
"57 557 LINE",
"59 614 LINE",
"56 639 LINE",
"-14 663 LINE",
"-15 618 LINE",
"-14 590 LINE",
"-11 530 LINE",
"-11 500 LINE",
"-4 437 LINE",
"-6 396 LINE",
"-8 348 LINE",
"-7 321 LINE",
"-8 278 LINE",
"-4 229 LINE",
"-4 177 LINE",
"0 121 LINE",
"-2 60 LINE",
"68 7 LINE",
"113 12 LINE",
"153 10 LINE",
"218 10 LINE",
"259 21 LINE",
"298 25 LINE",
"333 35 LINE",
"369 53 LINE",
"416 81 LINE",
"438 143 LINE",
"462 180 LINE",
"465 205 LINE",
"465 231 LINE"
);
},
{
closed = 1;
nodes = (
"234 89 LINE",
"178 80 LINE",
"137 85 LINE",
"83 81 LINE",
"72 86 LINE",
"69 90 LINE",
"81 121 LINE",
"69 150 LINE",
"67 206 LINE",
"70 258 LINE",
"70 303 LINE",
"69 335 LINE",
"70 337 LINE",
"138 337 LINE",
"216 335 LINE",
"283 337 LINE",
"311 326 LINE",
"339 312 LINE",
"363 286 LINE",
"378 240 LINE",
"381 227 LINE",
"385 196 LINE",
"354 128 LINE",
"319 111 LINE",
"290 100 LINE",
"285 100 LINE"
);
},
{
closed = 1;
nodes = (
"540 25 LINE",
"527 70 LINE",
"525 111 LINE",
"527 145 LINE",
"524 179 LINE",
"524 218 LINE",
"521 266 LINE",
"531 324 LINE",
"527 348 LINE",
"512 382 LINE",
"529 416 LINE",
"521 442 LINE",
"524 478 LINE",
"516 519 LINE",
"514 559 LINE",
"518 663 LINE",
"575 698 LINE",
"582 624 LINE",
"584 589 LINE",
"595 540 LINE",
"595 506 LINE",
"597 446 LINE",
"596 381 LINE",
"598 290 LINE",
"594 245 LINE",
"602 202 LINE",
"604 165 LINE",
"603 124 LINE",
"603 97 LINE",
"607 56 LINE",
"613 39 LINE"
);
}
);
width = 600;
}
);
unicode = 042B;
},
{
glyphname = "Lje-cy";
layers = (
{
layerId = "44398CD6-F961-4ECB-B01A-EEBF1DAB2450";
paths = (
{
closed = 1;
nodes = (
"687 305 LINE",
"628 360 LINE",
"578 394 LINE",
"496 416 LINE",
"426 419 LINE",
"362 416 LINE",
"363 458 LINE",
"353 505 LINE",
"352 526 LINE",
"355 587 LINE",
"367 613 LINE",
"383 630 LINE",
"375 674 LINE",
"300 680 LINE",
"249 668 LINE",
"232 664 LINE",
"190 675 LINE",
"160 665 LINE",
"137 670 LINE",
"42 662 LINE",
"-23 665 LINE",
"-51 599 LINE",
"-61 521 LINE",
"-52 440 LINE",
"-56 404 LINE",
"-63 345 LINE",
"-57 270 LINE",
"-67 237 LINE",
"-85 194 LINE",
"-100 144 LINE",
"-111 106 LINE",
"-112 105 LINE",
"-165 85 LINE",
"-237 56 LINE",
"-184 4 LINE",
"-121 18 LINE",
"-74 36 LINE",
"-30 83 LINE",
"-30 92 LINE",
"-13 107 LINE",
"-13 151 LINE",
"-3 190 LINE",
"8 207 LINE",
"11 231 LINE",
"26 262 LINE",
"10 311 LINE",
"22 339 LINE",
"14 368 LINE",
"24 415 LINE",
"21 475 LINE",
"27 581 LINE",
"101 591 LINE",
"195 593 LINE",
"266 592 LINE",
"280 558 LINE",
"274 518 LINE",
"277 468 LINE",
"283 433 LINE",
"283 405 LINE",
"281 328 LINE",
"284 242 LINE",
"289 155 LINE",
"282 105 LINE",
"286 45 LINE",
"350 1 LINE",
"399 11 LINE",
"443 20 LINE",
"490 5 LINE",
"530 23 LINE",
"610 56 LINE",
"673 83 LINE",
"689 143 LINE",
"718 176 LINE",
"716 200 LINE",
"719 229 LINE"
);
},
{
closed = 1;
nodes = (
"538 104 LINE",
"485 89 LINE",
"408 90 LINE",
"362 83 LINE",
"361 122 LINE",
"355 203 LINE",
"354 295 LINE",
"364 321 LINE",
"403 338 LINE",
"458 345 LINE",
"519 341 LINE",
"557 314 LINE",
"600 283 LINE",
"614 263 LINE",
"636 214 LINE",
"633 200 LINE",
"611 145 LINE",
"604 134 LINE",
"578 131 LINE",
"558 116 LINE"
);
}
);
width = 600;
}
);
unicode = 0409;
},
{
glyphname = "Nje-cy";
layers = (
{
layerId = "44398CD6-F961-4ECB-B01A-EEBF1DAB2450";
paths = (
{
closed = 1;
nodes = (
"673 330 LINE",
"642 347 LINE",
"587 357 LINE",
"557 355 LINE",
"516 358 LINE",
"462 367 LINE",
"413 363 LINE",
"375 376 LINE",
"370 381 LINE",
"371 429 LINE",
"368 484 LINE",
"362 534 LINE",
"367 600 LINE",
"373 636 LINE",
"367 679 LINE",
"297 657 LINE",
"293 574 LINE",
"290 491 LINE",
"289 449 LINE",
"294 409 LINE",
"291 402 LINE",
"257 390 LINE",
"185 379 LINE",
"153 376 LINE",
"113 374 LINE",
"60 377 LINE",
"4 381 LINE",
"-53 386 LINE",
"-77 393 LINE",
"-88 461 LINE",
"-84 484 LINE",
"-78 541 LINE",
"-90 607 LINE",
"-159 682 LINE",
"-168 625 LINE",
"-155 562 LINE",
"-156 516 LINE",
"-163 481 LINE",
"-163 442 LINE",
"-153 416 LINE",
"-155 366 LINE",
"-149 292 LINE",
"-156 245 LINE",
"-146 198 LINE",
"-146 156 LINE",
"-146 80 LINE",
"-135 17 LINE",
"-73 -8 LINE",
"-69 60 LINE",
"-72 110 LINE",
"-67 141 LINE",
"-69 180 LINE",
"-78 257 LINE",
"-67 300 LINE",
"-33 307 LINE",
"29 304 LINE",
"81 301 LINE",
"144 299 LINE",
"178 301 LINE",
"220 308 LINE",
"273 313 LINE",
"294 297 LINE",
"298 236 LINE",
"306 180 LINE",
"308 97 LINE",
"309 43 LINE",
"305 -24 LINE",
"361 -49 LINE",
"383 11 LINE",
"385 17 LINE",
"425 23 LINE",
"492 33 LINE",
"529 39 LINE",
"549 37 LINE",
"585 43 LINE",
"647 65 LINE",
"706 96 LINE",
"730 163 LINE",
"740 243 LINE"
);
},
{
closed = 1;
nodes = (
"395 97 LINE",
"382 131 LINE",
"380 153 LINE",
"378 213 LINE",
"375 258 LINE",
"376 282 LINE",
"384 285 LINE",
"437 286 LINE",
"481 286 LINE",
"529 280 LINE",
"574 277 LINE",
"606 276 LINE",
"612 273 LINE",
"660 244 LINE",
"664 206 LINE",
"652 153 LINE",
"635 143 LINE",
"591 122 LINE",
"555 114 LINE",
"500 112 LINE",
"448 99 LINE",
"403 100 LINE"
);
}
);
width = 600;
}
);
unicode = 040A;
},
{
glyphname = "E-cy";
layers = (
{
layerId = "44398CD6-F961-4ECB-B01A-EEBF1DAB2450";
paths = (
{
closed = 1;
nodes = (
"522 240 LINE",
"500 191 LINE",
"478 166 LINE",
"474 161 LINE",
"439 128 LINE",
"398 100 LINE",
"326 84 LINE",
"305 82 LINE",
"273 89 LINE",
"247 100 LINE",
"210 116 LINE",
"157 153 LINE",
"135 190 LINE",
"114 255 LINE",
"98 309 LINE",
"100 332 LINE",
"133 339 LINE",
"176 333 LINE",
"220 339 LINE",
"276 341 LINE",
"310 337 LINE",
"355 336 LINE",
"335 406 LINE",
"248 410 LINE",
"191 406 LINE",
"161 406 LINE",
"95 404 LINE",
"111 476 LINE",
"144 529 LINE",
"157 548 LINE",
"165 558 LINE",
"172 565 LINE",
"238 608 LINE",
"274 605 LINE",
"325 612 LINE",
"356 596 LINE",
"391 590 LINE",
"398 586 LINE",
"434 541 LINE",
"440 525 LINE",
"462 459 LINE",
"524 456 LINE",
"511 512 LINE",
"505 567 LINE",
"467 609 LINE",
"441 645 LINE",
"387 662 LINE",
"344 690 LINE",
"297 681 LINE",
"256 683 LINE",
"166 636 LINE",
"105 600 LINE",
"73 546 LINE",
"38 505 LINE",
"37 450 LINE",
"18 423 LINE",
"17 391 LINE",
"22 309 LINE",
"40 264 LINE",
"64 203 LINE",
"86 127 LINE",
"105 99 LINE",
"140 83 LINE",
"203 39 LINE",
"233 28 LINE",
"271 15 LINE",
"320 9 LINE",
"375 28 LINE",
"378 29 LINE",
"413 18 LINE",
"448 46 LINE",
"505 94 LINE",
"545 134 LINE",
"575 185 LINE",
"573 267 LINE"
);
}
);
width = 600;
}
);
unicode = 0404;
},
{
glyphname = "Ereversed-cy";
layers = (
{
layerId = "44398CD6-F961-4ECB-B01A-EEBF1DAB2450";
paths = (
{
closed = 1;
nodes = (
"24 190 LINE",
"54 139 LINE",
"94 99 LINE",
"151 51 LINE",
"186 23 LINE",
"221 34 LINE",
"224 33 LINE",
"279 14 LINE",
"328 20 LINE",
"366 33 LINE",
"396 44 LINE",
"459 88 LINE",
"494 104 LINE",
"513 132 LINE",
"535 208 LINE",
"559 269 LINE",
"577 314 LINE",
"582 396 LINE",
"581 428 LINE",
"562 455 LINE",
"561 510 LINE",
"526 551 LINE",
"494 605 LINE",
"433 641 LINE",
"343 688 LINE",
"302 686 LINE",
"255 695 LINE",
"212 667 LINE",
"158 650 LINE",
"132 614 LINE",
"94 572 LINE",
"88 517 LINE",
"75 461 LINE",
"137 464 LINE",
"159 530 LINE",
"165 546 LINE",
"201 591 LINE",
"208 595 LINE",
"243 601 LINE",
"274 617 LINE",
"325 610 LINE",
"361 613 LINE",
"427 570 LINE",
"434 563 LINE",
"442 553 LINE",
"455 534 LINE",
"488 481 LINE",
"504 409 LINE",
"438 411 LINE",
"408 411 LINE",
"351 415 LINE",
"264 411 LINE",
"244 341 LINE",
"289 342 LINE",
"323 346 LINE",
"379 344 LINE",
"423 338 LINE",
"466 344 LINE",
"499 337 LINE",
"501 314 LINE",
"485 260 LINE",
"464 195 LINE",
"442 158 LINE",
"389 121 LINE",
"352 105 LINE",
"326 94 LINE",
"294 87 LINE",
"273 89 LINE",
"201 105 LINE",
"160 133 LINE",
"125 166 LINE",
"121 171 LINE",
"99 196 LINE",
"77 245 LINE",
"26 272 LINE"
);
}
);
width = 600;
}
);
unicode = 042D;
},
{
glyphname = "Tshe-cy";
layers = (
{
layerId = "44398CD6-F961-4ECB-B01A-EEBF1DAB2450";
paths = (
{
closed = 1;
nodes = (
"660 118 LINE",
"660 157 LINE",
"650 221 LINE",
"654 266 LINE",
"627 314 LINE",
"605 365 LINE",
"554 387 LINE",
"512 423 LINE",
"485 424 LINE",
"454 417 LINE",
"438 413 LINE",
"393 408 LINE",
"358 402 LINE",
"290 351 LINE",
"245 306 LINE",
"242 354 LINE",
"231 404 LINE",
"225 457 LINE",
"236 494 LINE",
"227 534 LINE",
"235 617 LINE",
"305 623 LINE",
"362 627 LINE",
"423 634 LINE",
"478 659 LINE",
"388 706 LINE",
"336 706 LINE",
"256 696 LINE",
"185 701 LINE",
"117 696 LINE",
"23 687 LINE",
"-47 685 LINE",
"-89 680 LINE",
"-62 606 LINE",
"-9 613 LINE",
"82 618 LINE",
"147 621 LINE",
"154 621 LINE",
"151 489 LINE",
"149 422 LINE",
"161 359 LINE",
"162 291 LINE",
"159 265 LINE",
"155 240 LINE",
"176 182 LINE",
"169 131 LINE",
"169 79 LINE",
"217 2 LINE",
"247 43 LINE",
"244 103 LINE",
"249 153 LINE",
"253 216 LINE",
"325 277 LINE",
"369 319 LINE",
"376 322 LINE",
"421 331 LINE",
"478 341 LINE",
"489 337 LINE",
"534 308 LINE",
"553 282 LINE",
"571 253 LINE",
"582 179 LINE",
"581 137 LINE",
"584 94 LINE",
"589 12 LINE",
"665 69 LINE"
);
}
);
width = 600;
}
);
unicode = 040B;
},
{
glyphname = "Iu-cy";
layers = (
{
layerId = "44398CD6-F961-4ECB-B01A-EEBF1DAB2450";
paths = (
{
closed = 1;
nodes = (
"696 397 LINE",
"683 443 LINE",
"674 480 LINE",
"668 508 LINE",
"631 548 LINE",
"603 599 LINE",
"558 620 LINE",
"529 647 LINE",
"486 671 LINE",
"436 687 LINE",
"399 696 LINE",
"291 689 LINE",
"248 655 LINE",
"210 615 LINE",
"186 588 LINE",
"160 549 LINE",
"134 475 LINE",
"127 421 LINE",
"125 401 LINE",
"36 390 LINE",
"0 395 LINE",
"-26 385 LINE",
"-36 401 LINE",
"-36 446 LINE",
"-36 497 LINE",
"-33 533 LINE",
"-38 582 LINE",
"-36 612 LINE",
"-45 680 LINE",
"-107 637 LINE",
"-111 554 LINE",
"-112 521 LINE",
"-112 478 LINE",
"-115 445 LINE",
"-112 407 LINE",
"-112 373 LINE",
"-110 330 LINE",
"-103 293 LINE",
"-106 225 LINE",
"-106 175 LINE",
"-102 123 LINE",
"-103 85 LINE",
"-112 42 LINE",
"-59 -12 LINE",
"-34 59 LINE",
"-30 149 LINE",
"-34 198 LINE",
"-31 252 LINE",
"-23 309 LINE",
"17 317 LINE",
"69 322 LINE",
"92 334 LINE",
"116 335 LINE",
"118 320 LINE",
"122 258 LINE",
"140 196 LINE",
"147 160 LINE",
"173 121 LINE",
"247 45 LINE",
"299 11 LINE",
"337 12 LINE",
"370 8 LINE",
"395 9 LINE",
"429 1 LINE",
"451 15 LINE",
"481 26 LINE",
"541 55 LINE",
"588 99 LINE",
"632 149 LINE",
"654 192 LINE",
"677 251 LINE",
"706 344 LINE"
);
},
{
closed = 1;
nodes = (
"486 104 LINE",
"434 88 LINE",
"415 82 LINE",
"384 83 LINE",
"312 88 LINE",
"275 115 LINE",
"246 139 LINE",
"214 193 LINE",
"205 232 LINE",
"191 293 LINE",
"193 335 LINE",
"193 368 LINE",
"203 402 LINE",
"205 443 LINE",
"214 495 LINE",
"232 520 LINE",
"262 555 LINE",
"280 585 LINE",
"342 633 LINE",
"354 635 LINE",
"410 613 LINE",
"438 611 LINE",
"470 594 LINE",
"494 577 LINE",
"551 545 LINE",
"566 503 LINE",
"600 470 LINE",
"607 445 LINE",
"609 435 LINE",
"621 401 LINE",
"629 363 LINE",
"631 333 LINE",
"600 246 LINE",
"579 202 LINE",
"559 169 LINE",
"523 137 LINE",
"502 121 LINE"
);
}
);
width = 600;
}
);
unicode = 042E;
},
{
glyphname = "Ia-cy";
layers = (
{
layerId = "44398CD6-F961-4ECB-B01A-EEBF1DAB2450";
paths = (
{
closed = 1;
nodes = (
"535 625 LINE",
"529 702 LINE",
"460 691 LINE",
"425 683 LINE",
"395 692 LINE",
"329 699 LINE",
"281 689 LINE",
"215 675 LINE",
"159 636 LINE",
"131 600 LINE",
"98 544 LINE",
"93 517 LINE",
"84 475 LINE",
"107 386 LINE",
"116 369 LINE",
"130 333 LINE",
"176 315 LINE",
"227 291 LINE",
"221 279 LINE",
"184 212 LINE",
"126 138 LINE",
"99 76 LINE",
"133 10 LINE",
"175 73 LINE",
"201 124 LINE",
"221 147 LINE",
"244 163 LINE",
"260 211 LINE",
"298 259 LINE",
"326 299 LINE",
"328 300 LINE",
"347 305 LINE",
"378 303 LINE",
"448 311 LINE",
"463 283 LINE",
"461 237 LINE",
"457 158 LINE",
"461 82 LINE",
"459 38 LINE",
"532 56 LINE",
"524 124 LINE",
"530 201 LINE",
"535 258 LINE",
"524 328 LINE",
"534 405 LINE",
"529 460 LINE",
"531 511 LINE",
"535 551 LINE",
"535 591 LINE"
);
},
{
closed = 1;
nodes = (
"404 373 LINE",
"361 379 LINE",
"326 377 LINE",
"250 365 LINE",
"235 366 LINE",
"190 392 LINE",
"158 446 LINE",
"164 479 LINE",
"170 519 LINE",
"176 537 LINE",
"199 568 LINE",
"227 598 LINE",
"265 612 LINE",
"315 617 LINE",
"355 622 LINE",
"394 614 LINE",
"447 609 LINE",
"450 606 LINE",
"451 569 LINE",
"456 528 LINE",
"458 486 LINE",
"449 461 LINE",
"460 425 LINE",
"454 356 LINE",
"419 377 LINE"
);
}
);
width = 600;
}
);
unicode = 042F;
},
{
glyphname = "Dje-cy";
layers = (
{
layerId = "44398CD6-F961-4ECB-B01A-EEBF1DAB2450";
paths = (
{
closed = 1;
nodes = (
"646 172 LINE",
"650 206 LINE",
"605 259 LINE",
"509 311 LINE",
"447 327 LINE",
"363 335 LINE",
"306 319 LINE",
"263 310 LINE",
"237 253 LINE",
"231 259 LINE",
"238 306 LINE",
"237 346 LINE",
"234 399 LINE",
"231 494 LINE",
"229 554 LINE",
"239 596 LINE",
"279 605 LINE",
"328 601 LINE",
"403 610 LINE",
"406 610 LINE",
"462 601 LINE",
"518 618 LINE",
"470 682 LINE",
"447 680 LINE",
"358 676 LINE",
"306 680 LINE",
"257 682 LINE",
"241 674 LINE",
"214 673 LINE",
"159 666 LINE",
"140 674 LINE",
"106 674 LINE",
"46 669 LINE",
"8 660 LINE",
"-54 660 LINE",
"-100 604 LINE",
"-24 583 LINE",
"44 589 LINE",
"79 595 LINE",
"123 595 LINE",
"153 584 LINE",
"153 523 LINE",
"164 450 LINE",
"163 439 LINE",
"149 412 LINE",
"155 378 LINE",
"161 322 LINE",
"167 212 LINE",
"152 180 LINE",
"160 145 LINE",
"166 82 LINE",
"160 33 LINE",
"179 -1 LINE",
"238 48 LINE",
"239 114 LINE",
"237 167 LINE",
"243 244 LINE",
"301 240 LINE",
"356 255 LINE",
"394 261 LINE",
"422 251 LINE",
"456 249 LINE",
"524 231 LINE",
"529 227 LINE",
"565 183 LINE",
"568 156 LINE",
"568 155 LINE",
"540 103 LINE",
"514 96 LINE",
"447 78 LINE",
"384 55 LINE",
"499 15 LINE",
"552 25 LINE",
"612 59 LINE",
"627 92 LINE",
"654 131 LINE",
"654 131 LINE"
);
}
);
width = 600;
}
);
unicode = 0402;
},
{
glyphname = "Yat-cy";
layers = (
{
layerId = "44398CD6-F961-4ECB-B01A-EEBF1DAB2450";
paths = (
{
closed = 1;
nodes = (
"552 225 LINE",
"539 290 LINE",
"480 363 LINE",
"474 392 LINE",
"440 416 LINE",
"373 420 LINE",
"258 406 LINE",
"252 457 LINE",
"257 502 LINE",
"263 510 LINE",
"292 513 LINE",
"384 525 LINE",
"341 590 LINE",
"319 589 LINE",
"295 597 LINE",
"258 592 LINE",
"258 592 LINE",
"255 630 LINE",
"257 662 LINE",
"183 693 LINE",
"177 652 LINE",
"176 604 LINE",
"175 578 LINE",
"164 575 LINE",
"117 578 LINE",
"57 571 LINE",
"44 495 LINE",
"90 501 LINE",
"134 499 LINE",
"175 493 LINE",
"177 490 LINE",
"172 462 LINE",
"180 429 LINE",
"172 395 LINE",
"186 359 LINE",
"188 344 LINE",
"181 265 LINE",
"180 221 LINE",
"181 183 LINE",
"184 120 LINE",
"186 50 LINE",
"195 -2 LINE",
"274 19 LINE",
"346 15 LINE",
"399 15 LINE",
"451 27 LINE",
"485 76 LINE",
"558 176 LINE",
"558 176 LINE"
);
},
{
closed = 1;
nodes = (
"263 74 LINE",
"262 108 LINE",
"269 146 LINE",
"262 189 LINE",
"257 243 LINE",
"268 279 LINE",
"292 304 LINE",
"312 339 LINE",
"354 342 LINE",
"402 343 LINE",
"402 343 LINE",
"460 272 LINE",
"464 266 LINE",
"470 245 LINE",
"478 193 LINE",
"473 168 LINE",
"468 162 LINE",
"462 153 LINE",
"407 103 LINE",
"404 101 LINE",
"370 92 LINE",
"309 88 LINE",
"267 69 LINE",
"267 69 LINE"
);
}
);
width = 600;
}
);
unicode = 0462;
},
{
glyphname = "Yusbig-cy";
layers = (
{
layerId = "44398CD6-F961-4ECB-B01A-EEBF1DAB2450";
paths = (
{
closed = 1;
nodes = (
"608 149 LINE",
"579 190 LINE",
"560 245 LINE",
"548 282 LINE",
"489 338 LINE",
"464 368 LINE",
"435 401 LINE",
"438 411 LINE",
"445 436 LINE",
"468 462 LINE",
"507 521 LINE",
"524 544 LINE",
"559 582 LINE",
"577 614 LINE",
"615 689 LINE",
"546 713 LINE",
"503 714 LINE",
"453 707 LINE",
"398 705 LINE",
"309 696 LINE",
"291 699 LINE",
"230 706 LINE",
"183 712 LINE",
"97 711 LINE",
"-5 702 LINE",
"15 622 LINE",
"20 616 LINE",
"54 565 LINE",
"101 500 LINE",
"114 463 LINE",
"141 446 LINE",
"174 405 LINE",
"174 387 LINE",
"136 335 LINE",
"85 256 LINE",
"66 219 LINE",
"51 182 LINE",
"29 159 LINE",
"1 112 LINE",
"-51 28 LINE",
"17 6 LINE",
"43 47 LINE",
"70 63 LINE",
"78 100 LINE",
"126 167 LINE",
"146 202 LINE",
"168 264 LINE",
"221 324 LINE",
"262 332 LINE",
"266 303 LINE",
"268 266 LINE",
"271 164 LINE",
"275 96 LINE",
"277 47 LINE",
"348 19 LINE",
"350 78 LINE",
"355 106 LINE",
"344 129 LINE",
"343 194 LINE",
"340 233 LINE",
"345 285 LINE",
"342 329 LINE",
"365 331 LINE",
"403 314 LINE",
"421 303 LINE",
"468 263 LINE",
"482 237 LINE",
"502 192 LINE",
"526 127 LINE",
"558 90 LINE",
"580 48 LINE",
"606 16 LINE",
"654 72 LINE"
);
},
{
closed = 1;
nodes = (
"158 638 LINE",
"201 633 LINE",
"252 631 LINE",
"347 621 LINE",
"388 628 LINE",
"427 630 LINE",
"483 633 LINE",
"488 631 LINE",
"479 608 LINE",
"430 530 LINE",
"368 440 LINE",
"361 409 LINE",
"260 415 LINE",
"252 421 LINE",
"215 472 LINE",
"178 514 LINE",
"157 556 LINE",
"133 571 LINE",
"96 631 LINE",
"125 636 LINE"
);
}
);
width = 600;
}
);
unicode = 046A;
},
{
glyphname = "Fita-cy";
layers = (
{
layerId = "44398CD6-F961-4ECB-B01A-EEBF1DAB2450";
paths = (
{
closed = 1;
nodes = (
"587 297 LINE",
"583 352 LINE",
"587 390 LINE",
"593 442 LINE",
"573 469 LINE",
"559 497 LINE",
"556 530 LINE",
"536 556 LINE",
"518 586 LINE",
"491 623 LINE",
"449 656 LINE",
"434 673 LINE",
"423 700 LINE",
"403 710 LINE",
"350 725 LINE",
"324 739 LINE",
"291 732 LINE",
"262 742 LINE",
"224 721 LINE",
"187 711 LINE",
"114 647 LINE",
"90 602 LINE",
"70 582 LINE",
"54 546 LINE",
"39 525 LINE",
"36 493 LINE",
"29 419 LINE",
"36 386 LINE",
"31 360 LINE",
"25 306 LINE",
"33 246 LINE",
"51 204 LINE",
"101 95 LINE",
"105 71 LINE",
"141 50 LINE",
"174 37 LINE",
"217 19 LINE",
"300 8 LINE",
"337 9 LINE",
"370 11 LINE",
"435 51 LINE",
"501 105 LINE",
"533 161 LINE",
"543 180 LINE",
"578 232 LINE",
"579 260 LINE",
"588 289 LINE"
);
},
{
closed = 1;
nodes = (
"313 665 LINE",
"368 651 LINE",
"431 587 LINE",
"449 565 LINE",
"490 503 LINE",
"508 444 LINE",
"493 415 LINE",
"479 403 LINE",
"461 398 LINE",
"424 392 LINE",
"398 389 LINE",
"346 407 LINE",
"289 429 LINE",
"243 423 LINE",
"158 432 LINE",
"105 400 LINE",
"103 406 LINE",
"94 453 LINE",
"107 499 LINE",
"128 541 LINE",
"162 594 LINE",
"185 634 LINE",
"192 640 LINE",
"225 649 LINE",
"269 666 LINE",
"296 661 LINE",
"296 661 LINE"
);
},
{
closed = 1;
nodes = (
"434 133 LINE",
"404 114 LINE",
"376 90 LINE",
"362 82 LINE",
"322 77 LINE",
"265 71 LINE",
"217 94 LINE",
"180 107 LINE",
"167 115 LINE",
"147 148 LINE",
"124 177 LINE",
"122 202 LINE",
"105 252 LINE",
"94 283 LINE",
"97 322 LINE",
"160 354 LINE",
"200 361 LINE",
"272 359 LINE",
"303 351 LINE",
"347 337 LINE",
"423 320 LINE",
"450 325 LINE",
"513 342 LINE",
"516 326 LINE",
"515 291 LINE",
"509 252 LINE",
"490 227 LINE",
"460 164 LINE",
"445 146 LINE"
);
}
);
width = 600;
}
);
unicode = 0472;
},
{
glyphname = "Izhitsa-cy";
layers = (
{
layerId = "44398CD6-F961-4ECB-B01A-EEBF1DAB2450";
paths = (
{
closed = 1;
nodes = (
"589 688 LINE",
"514 648 LINE",
"501 622 LINE",
"483 572 LINE",
"464 536 LINE",
"444 480 LINE",
"420 436 LINE",
"415 397 LINE",
"374 317 LINE",
"346 251 LINE",
"332 220 LINE",
"326 192 LINE",
"301 155 LINE",
"280 189 LINE",
"258 230 LINE",
"251 250 LINE",
"248 276 LINE",
"222 312 LINE",
"211 336 LINE",
"198 371 LINE",
"176 441 LINE",
"161 477 LINE",
"149 509 LINE",
"119 563 LINE",
"109 609 LINE",
"77 648 LINE",
"66 687 LINE",
"-8 686 LINE",
"2 648 LINE",
"42 577 LINE",
"74 504 LINE",
"86 464 LINE",
"96 432 LINE",
"117 390 LINE",
"137 329 LINE",
"151 291 LINE",
"160 266 LINE",
"175 255 LINE",
"198 181 LINE",
"222 136 LINE",
"233 117 LINE",
"258 54 LINE",
"327 23 LINE",
"354 75 LINE",
"381 139 LINE",
"408 205 LINE",
"420 257 LINE",
"448 310 LINE",
"489 389 LINE",
"494 423 LINE",
"519 486 LINE",
"542 520 LINE",
"558 570 LINE",
"585 609 LINE",
"587 612 LINE",
"633 627 LINE",
"651 674 LINE"
);
}
);
width = 600;
}
);
unicode = 0474;
},
{
glyphname = "Ghestroke-cy";
layers = (
{
layerId = "44398CD6-F961-4ECB-B01A-EEBF1DAB2450";
paths = (
{
closed = 1;
nodes = (
"548 761 LINE",
"502 763 LINE",
"440 752 LINE",
"333 759 LINE",
"282 750 LINE",
"217 748 LINE",
"154 733 LINE",
"132 682 LINE",
"135 616 LINE",
"127 575 LINE",
"127 505 LINE",
"128 419 LINE",
"126 404 LINE",
"120 403 LINE",
"42 396 LINE",
"80 319 LINE",
"116 314 LINE",
"132 276 LINE",
"135 274 LINE",
"132 191 LINE",
"127 100 LINE",
"169 3 LINE",
"214 85 LINE",
"204 140 LINE",
"209 229 LINE",
"214 311 LINE",
"269 317 LINE",
"324 319 LINE",
"419 323 LINE",
"441 399 LINE",
"362 397 LINE",
"326 411 LINE",
"290 402 LINE",
"234 397 LINE",
"216 409 LINE",
"209 447 LINE",
"213 472 LINE",
"217 492 LINE",
"208 536 LINE",
"218 589 LINE",
"216 647 LINE",
"222 657 LINE",
"256 664 LINE",
"312 667 LINE",
"367 677 LINE",
"403 674 LINE",
"485 677 LINE",
"513 676 LINE",
"578 680 LINE",
"610 722 LINE"
);
}
);
width = 600;
}
);
unicode = 0492;
},
{
glyphname = "Ghemiddlehook-cy";
layers = (
{
layerId = "44398CD6-F961-4ECB-B01A-EEBF1DAB2450";
paths = (
{
closed = 1;
nodes = (
"532 208 LINE",
"514 249 LINE",
"524 285 LINE",
"513 327 LINE",
"463 383 LINE",
"433 406 LINE",
"364 425 LINE",
"254 406 LINE",
"206 391 LINE",
"181 360 LINE",
"170 360 LINE",
"164 383 LINE",
"164 423 LINE",
"161 497 LINE",
"168 536 LINE",
"161 582 LINE",
"159 603 LINE",
"161 605 LINE",
"204 614 LINE",
"278 614 LINE",
"325 614 LINE",
"393 622 LINE",
"442 619 LINE",
"495 670 LINE",
"421 694 LINE",
"351 689 LINE",
"299 691 LINE",
"241 684 LINE",
"171 685 LINE",
"97 678 LINE",
"88 633 LINE",
"88 545 LINE",
"94 458 LINE",
"86 404 LINE",
"94 350 LINE",
"94 337 LINE",
"90 271 LINE",
"82 243 LINE",
"90 204 LINE",
"80 178 LINE",
"86 132 LINE",
"90 64 LINE",
"115 3 LINE",
"166 113 LINE",
"159 167 LINE",
"162 232 LINE",
"166 253 LINE",
"168 262 LINE",
"198 281 LINE",
"252 325 LINE",
"311 353 LINE",
"319 355 LINE",
"323 355 LINE",
"371 341 LINE",
"399 323 LINE",
"437 304 LINE",
"444 277 LINE",
"451 204 LINE",
"455 183 LINE",
"448 134 LINE",
"440 92 LINE",
"430 64 LINE",
"407 24 LINE",
"381 -6 LINE",
"358 -27 LINE",
"280 -129 LINE",
"358 -116 LINE",
"390 -102 LINE",
"425 -69 LINE",
"449 -48 LINE",
"491 12 LINE",
"521 99 LINE",
"526 150 LINE",
"530 162 LINE"
);
}
);
width = 600;
}
);
unicode = 0494;
},
{
glyphname = "Zhedescender-cy";
layers = (
{
layerId = "44398CD6-F961-4ECB-B01A-EEBF1DAB2450";
paths = (
{
closed = 1;
nodes = (
"689 -6 LINE",
"695 49 LINE",
"622 81 LINE",
"596 117 LINE",
"588 133 LINE",
"581 188 LINE",
"547 236 LINE",
"510 294 LINE",
"435 339 LINE",
"384 345 LINE",
"467 449 LINE",
"496 493 LINE",
"524 554 LINE",
"536 576 LINE",
"550 588 LINE",
"574 604 LINE",
"597 683 LINE",
"543 672 LINE",
"532 666 LINE",
"511 665 LINE",
"487 633 LINE",
"460 603 LINE",
"449 558 LINE",
"444 546 LINE",
"416 501 LINE",
"396 479 LINE",
"395 449 LINE",
"370 417 LINE",
"345 410 LINE",
"320 394 LINE",
"314 440 LINE",
"315 469 LINE",
"316 524 LINE",
"316 564 LINE",
"302 628 LINE",
"310 672 LINE",
"240 688 LINE",
"244 578 LINE",
"243 546 LINE",
"248 496 LINE",
"244 459 LINE",
"248 410 LINE",
"245 405 LINE",
"215 410 LINE",
"205 420 LINE",
"185 454 LINE",
"162 479 LINE",
"130 532 LINE",
"105 568 LINE",
"74 598 LINE",
"8 647 LINE",
"-48 665 LINE",
"-41 594 LINE",
"4 568 LINE",
"41 536 LINE",
"56 502 LINE",
"83 476 LINE",
"108 433 LINE",
"177 347 LINE",
"148 335 LINE",
"78 283 LINE",
"44 239 LINE",
"14 201 LINE",
"-2 155 LINE",
"-9 111 LINE",
"-20 68 LINE",
"32 15 LINE",
"53 71 LINE",
"69 146 LINE",
"91 179 LINE",
"115 220 LINE",
"155 261 LINE",
"189 271 LINE",
"228 289 LINE",
"251 299 LINE",
"254 285 LINE",
"253 244 LINE",
"260 198 LINE",
"255 141 LINE",
"263 96 LINE",
"264 46 LINE",
"333 70 LINE",
"331 133 LINE",
"323 165 LINE",
"328 227 LINE",
"328 265 LINE",
"332 285 LINE",
"402 271 LINE",
"440 266 LINE",
"474 229 LINE",
"503 177 LINE",
"518 140 LINE",
"528 96 LINE",
"551 55 LINE",
"609 9 LINE",
"615 7 LINE",
"611 -34 LINE",
"616 -107 LINE",
"673 -74 LINE",
"687 -42 LINE"
);
}
);
width = 600;
}
);
unicode = 0496;
},
{
glyphname = "Kadescender-cy";
layers = (
{
layerId = "44398CD6-F961-4ECB-B01A-EEBF1DAB2450";
paths = (
{
closed = 1;
nodes = (
"575 19 LINE",
"554 98 LINE",
"521 99 LINE",
"511 101 LINE",
"471 124 LINE",
"449 157 LINE",
"422 202 LINE",
"410 235 LINE",
"396 278 LINE",
"351 340 LINE",
"299 372 LINE",
"293 376 LINE",
"307 389 LINE",
"373 470 LINE",
"398 500 LINE",
"422 560 LINE",
"424 563 LINE",
"444 583 LINE",
"467 608 LINE",
"477 614 LINE",
"511 626 LINE",
"520 701 LINE",
"469 690 LINE",
"400 646 LINE",
"336 549 LINE",
"305 509 LINE",
"288 467 LINE",
"251 446 LINE",
"202 410 LINE",
"143 404 LINE",
"130 489 LINE",
"122 593 LINE",
"125 626 LINE",
"130 669 LINE",
"119 720 LINE",
"50 684 LINE",
"52 651 LINE",
"45 594 LINE",
"62 540 LINE",
"65 448 LINE",
"66 412 LINE",
"58 360 LINE",
"50 317 LINE",
"66 285 LINE",
"65 250 LINE",
"67 198 LINE",
"70 120 LINE",
"60 39 LINE",
"127 13 LINE",
"144 91 LINE",
"135 164 LINE",
"141 223 LINE",
"140 266 LINE",
"132 324 LINE",
"175 335 LINE",
"224 337 LINE",
"289 294 LINE",
"317 269 LINE",
"335 223 LINE",
"347 182 LINE",
"353 159 LINE",
"373 143 LINE",
"399 97 LINE",
"453 45 LINE",
"497 26 LINE",
"499 10 LINE",
"501 -46 LINE",
"569 -79 LINE",
"572 -15 LINE"
);
}
);
width = 600;
}
);
unicode = 049A;
},
{
glyphname = "Kaverticalstroke-cy";
layers = (
{
layerId = "44398CD6-F961-4ECB-B01A-EEBF1DAB2450";
paths = (
{
closed = 1;
nodes = (
"577 705 LINE",
"541 708 LINE",
"512 705 LINE",
"471 682 LINE",
"445 668 LINE",
"427 639 LINE",
"401 621 LINE",
"400 582 LINE",
"395 568 LINE",
"350 481 LINE",
"308 459 LINE",
"280 442 LINE",
"240 418 LINE",
"236 417 LINE",
"231 481 LINE",
"232 537 LINE",
"233 604 LINE",
"180 619 LINE",
"161 565 LINE",
"156 505 LINE",
"163 442 LINE",
"156 415 LINE",
"164 391 LINE",
"137 382 LINE",
"124 384 LINE",
"109 437 LINE",
"111 492 LINE",
"109 577 LINE",
"107 616 LINE",
"104 669 LINE",
"30 650 LINE",
"32 592 LINE",
"43 532 LINE",
"38 466 LINE",
"44 397 LINE",
"38 345 LINE",
"42 301 LINE",
"41 219 LINE",
"39 130 LINE",
"46 78 LINE",
"38 30 LINE",
"115 29 LINE",
"119 102 LINE",
"114 161 LINE",
"113 188 LINE",
"113 254 LINE",
"115 276 LINE",
"121 299 LINE",
"174 306 LINE",
"179 300 LINE",
"170 256 LINE",
"180 241 LINE",
"183 216 LINE",
"190 139 LINE",
"253 186 LINE",
"260 229 LINE",
"250 270 LINE",
"250 330 LINE",
"266 340 LINE",
"298 302 LINE",
"351 249 LINE",
"361 223 LINE",
"392 198 LINE",
"433 128 LINE",
"474 64 LINE",
"505 13 LINE",
"568 20 LINE",
"558 78 LINE",
"511 133 LINE",
"500 173 LINE",
"470 197 LINE",
"463 233 LINE",
"431 265 LINE",
"368 336 LINE",
"339 366 LINE",
"336 381 LINE",
"375 407 LINE",
"420 451 LINE",
"427 475 LINE",
"436 505 LINE",
"478 578 LINE",
"499 608 LINE",
"533 624 LINE",
"559 629 LINE",
"633 676 LINE"
);
}
);
width = 600;
}
);
unicode = 049C;
},
{
glyphname = "Kabashkir-cy";
layers = (
{
layerId = "44398CD6-F961-4ECB-B01A-EEBF1DAB2450";
paths = (
{
closed = 1;
nodes = (
"613 76 LINE",
"573 99 LINE",
"535 156 LINE",
"494 241 LINE",
"471 270 LINE",
"455 293 LINE",
"428 329 LINE",
"396 352 LINE",
"363 375 LINE",
"322 392 LINE",
"325 395 LINE",
"391 434 LINE",
"417 475 LINE",
"426 486 LINE",
"481 554 LINE",
"517 597 LINE",
"560 617 LINE",
"579 683 LINE",
"509 673 LINE",
"438 616 LINE",
"407 556 LINE",
"345 493 LINE",
"325 469 LINE",
"258 437 LINE",
"217 428 LINE",
"210 465 LINE",
"207 523 LINE",
"209 574 LINE",
"205 612 LINE",
"208 653 LINE",
"177 712 LINE",
"148 696 LINE",
"108 694 LINE",
"53 693 LINE",
"4 693 LINE",
"-43 677 LINE",
"-2 616 LINE",
"30 621 LINE",
"89 621 LINE",
"131 621 LINE",
"135 586 LINE",
"134 550 LINE",
"138 490 LINE",
"140 432 LINE",
"141 362 LINE",
"137 315 LINE",
"137 284 LINE",
"147 234 LINE",
"147 221 LINE",
"139 154 LINE",
"138 127 LINE",
"135 86 LINE",
"203 54 LINE",
"216 104 LINE",
"213 143 LINE",
"207 181 LINE",
"220 221 LINE",
"210 270 LINE",
"210 328 LINE",
"216 337 LINE",
"259 364 LINE",
"271 362 LINE",
"308 319 LINE",
"329 303 LINE",
"373 277 LINE",
"385 267 LINE",
"420 216 LINE",
"448 177 LINE",
"460 157 LINE",
"481 105 LINE",
"504 66 LINE",
"575 18 LINE",
"623 73 LINE"
);
}
);
width = 600;
}
);
unicode = 04A0;
},
{
glyphname = "Endescender-cy";
layers = (
{
layerId = "44398CD6-F961-4ECB-B01A-EEBF1DAB2450";
paths = (
{
closed = 1;
nodes = (
"634 -9 LINE",
"631 39 LINE",
"571 82 LINE",
"536 93 LINE",
"539 195 LINE",
"535 268 LINE",
"536 323 LINE",
"534 357 LINE",
"536 388 LINE",
"539 426 LINE",
"532 507 LINE",
"533 547 LINE",
"531 599 LINE",
"536 640 LINE",
"468 662 LINE",
"463 626 LINE",
"461 573 LINE",
"459 523 LINE",
"468 473 LINE",
"468 450 LINE",
"463 411 LINE",
"428 408 LINE",
"382 403 LINE",
"332 404 LINE",
"275 403 LINE",
"247 404 LINE",
"211 414 LINE",
"137 407 LINE",
"125 409 LINE",
"123 445 LINE",
"125 488 LINE",
"126 530 LINE",
"126 589 LINE",
"130 648 LINE",
"65 681 LINE",
"59 627 LINE",
"56 554 LINE",
"53 506 LINE",
"53 473 LINE",
"48 447 LINE",
"58 372 LINE",
"54 315 LINE",
"63 292 LINE",
"64 266 LINE",
"62 203 LINE",
"65 169 LINE",
"60 73 LINE",
"110 13 LINE",
"133 90 LINE",
"138 188 LINE",
"131 235 LINE",
"136 284 LINE",
"127 332 LINE",
"175 343 LINE",
"206 338 LINE",
"242 328 LINE",
"306 334 LINE",
"355 333 LINE",
"412 332 LINE",
"449 336 LINE",
"459 326 LINE",
"464 301 LINE",
"472 227 LINE",
"469 169 LINE",
"463 62 LINE",
"538 15 LINE",
"561 6 LINE",
"562 -41 LINE",
"632 -67 LINE",
"647 -35 LINE"
);
}
);
width = 600;
}
);
unicode = 04A2;
},
{
glyphname = "Pedescender-cy";
layers = (
{
layerId = "44398CD6-F961-4ECB-B01A-EEBF1DAB2450";
paths = (
{
closed = 1;
nodes = (
"576 108 LINE",
"537 114 LINE",
"524 154 LINE",
"529 184 LINE",
"527 248 LINE",
"524 293 LINE",
"528 341 LINE",
"528 394 LINE",
"531 427 LINE",
"522 467 LINE",
"506 499 LINE",
"458 494 LINE",
"397 505 LINE",
"359 506 LINE",
"322 502 LINE",
"297 506 LINE",
"210 507 LINE",
"153 509 LINE",
"133 508 LINE",
"42 462 LINE",
"44 389 LINE",
"39 333 LINE",
"46 297 LINE",
"43 241 LINE",
"42 186 LINE",
"42 115 LINE",
"43 29 LINE",
"104 3 LINE",
"108 68 LINE",
"105 79 LINE",
"109 151 LINE",
"116 234 LINE",
"114 323 LINE",
"113 356 LINE",
"117 433 LINE",
"178 436 LINE",
"244 439 LINE",
"258 438 LINE",
"303 428 LINE",
"347 432 LINE",
"368 432 LINE",
"418 428 LINE",
"449 419 LINE",
"455 417 LINE",
"456 371 LINE",
"456 319 LINE",
"454 265 LINE",
"458 215 LINE",
"457 204 LINE",
"457 123 LINE",
"464 54 LINE",
"525 34 LINE",
"523 -4 LINE",
"517 -59 LINE",
"561 -144 LINE",
"587 -96 LINE",
"592 -40 LINE",
"596 13 LINE",
"607 65 LINE"
);
}
);
width = 600;
}
);
unicode = 0524;
},
{
glyphname = "Esdescender-cy";
layers = (
{
layerId = "44398CD6-F961-4ECB-B01A-EEBF1DAB2450";
paths = (
{
closed = 1;
nodes = (
"525 100 LINE",
"484 83 LINE",
"461 76 LINE",
"414 62 LINE",
"377 70 LINE",
"351 78 LINE",
"286 78 LINE",
"250 82 LINE",
"249 83 LINE",
"223 106 LINE",
"186 122 LINE",
"159 146 LINE",
"129 199 LINE",
"110 239 LINE",
"93 276 LINE",
"87 329 LINE",
"82 391 LINE",
"100 441 LINE",
"121 486 LINE",
"119 511 LINE",
"130 535 LINE",
"149 556 LINE",
"209 591 LINE",
"255 637 LINE",
"262 638 LINE",
"335 649 LINE",
"390 652 LINE",
"431 645 LINE",
"463 640 LINE",
"482 632 LINE",
"540 621 LINE",
"519 699 LINE",
"465 714 LINE",
"427 724 LINE",
"350 724 LINE",
"316 725 LINE",
"291 709 LINE",
"205 695 LINE",
"175 659 LINE",
"137 632 LINE",
"89 615 LINE",
"82 593 LINE",
"65 580 LINE",
"56 550 LINE",
"44 493 LINE",
"22 438 LINE",
"11 358 LINE",
"13 306 LINE",
"12 270 LINE",
"34 228 LINE",
"56 181 LINE",
"83 132 LINE",
"124 78 LINE",
"187 37 LINE",
"249 8 LINE",
"301 -3 LINE",
"300 -11 LINE",
"327 -138 LINE",
"318 -144 LINE",
"305 -147 LINE",
"269 -144 LINE",
"278 -219 LINE",
"320 -223 LINE",
"368 -204 LINE",
"413 -131 LINE",
"373 -55 LINE",
"376 -14 LINE",
"385 -7 LINE",
"460 -4 LINE",
"493 5 LINE",
"535 20 LINE",
"585 44 LINE",
"605 91 LINE"
);
}
);
width = 600;
}
);
unicode = 04AA;
},
{
glyphname = "Ustrait-cy";
layers = (
{
layerId = "44398CD6-F961-4ECB-B01A-EEBF1DAB2450";
paths = (
{
closed = 1;
nodes = (
"508 684 LINE",
"492 654 LINE",
"459 606 LINE",
"412 546 LINE",
"375 506 LINE",
"341 450 LINE",
"307 412 LINE",
"286 394 LINE",
"254 448 LINE",
"220 509 LINE",
"195 557 LINE",
"169 593 LINE",
"140 656 LINE",
"84 716 LINE",
"52 655 LINE",
"73 626 LINE",
"93 585 LINE",
"144 503 LINE",
"178 447 LINE",
"207 385 LINE",
"242 329 LINE",
"251 303 LINE",
"252 232 LINE",
"242 202 LINE",
"256 167 LINE",
"250 89 LINE",
"258 15 LINE",
"325 20 LINE",
"326 95 LINE",
"319 126 LINE",
"322 207 LINE",
"318 271 LINE",
"331 309 LINE",
"357 354 LINE",
"375 382 LINE",
"414 432 LINE",
"447 478 LINE",
"488 536 LINE",
"532 589 LINE",
"563 633 LINE",
"582 709 LINE"
);
}
);
width = 600;
}
);
unicode = 04AE;
},
{
glyphname = "Ustraitstroke-cy";
layers = (
{
layerId = "44398CD6-F961-4ECB-B01A-EEBF1DAB2450";
paths = (
{
closed = 1;
nodes = (
"503 686 LINE",
"479 644 LINE",
"465 622 LINE",
"437 574 LINE",
"396 509 LINE",
"354 445 LINE",
"320 397 LINE",
"291 368 LINE",
"281 382 LINE",
"261 428 LINE",
"229 474 LINE",
"205 509 LINE",
"175 537 LINE",
"149 590 LINE",
"128 618 LINE",
"91 672 LINE",
"12 674 LINE",
"48 594 LINE",
"71 555 LINE",
"95 524 LINE",
"146 453 LINE",
"180 407 LINE",
"202 364 LINE",
"224 324 LINE",
"244 288 LINE",
"251 228 LINE",
"206 235 LINE",
"161 225 LINE",
"125 230 LINE",
"88 159 LINE",
"135 150 LINE",
"201 156 LINE",
"247 149 LINE",
"258 104 LINE",
"258 55 LINE",
"334 34 LINE",
"334 79 LINE",
"330 140 LINE",
"360 153 LINE",
"410 151 LINE",
"487 151 LINE",
"523 208 LINE",
"451 225 LINE",
"395 235 LINE",
"333 232 LINE",
"343 291 LINE",
"375 330 LINE",
"402 375 LINE",
"432 424 LINE",
"459 459 LINE",
"489 506 LINE",
"522 554 LINE",
"544 587 LINE",
"565 622 LINE",
"582 667 LINE",
"565 713 LINE"
);
}
);
width = 600;
}
);
unicode = 04B0;
},
{
glyphname = "Chedescender-cy";
layers = (
{
layerId = "44398CD6-F961-4ECB-B01A-EEBF1DAB2450";
paths = (
{
closed = 1;
nodes = (
"593 -41 LINE",
"596 13 LINE",
"552 70 LINE",
"513 69 LINE",
"503 85 LINE",
"502 104 LINE",
"504 155 LINE",
"503 208 LINE",
"504 236 LINE",
"488 261 LINE",
"486 320 LINE",
"488 376 LINE",
"485 418 LINE",
"499 477 LINE",
"495 544 LINE",
"498 604 LINE",
"494 664 LINE",
"424 633 LINE",
"420 567 LINE",
"421 519 LINE",
"421 482 LINE",
"402 427 LINE",
"387 397 LINE",
"366 360 LINE",
"334 336 LINE",
"309 316 LINE",
"270 313 LINE",
"219 310 LINE",
"186 339 LINE",
"147 411 LINE",
"134 457 LINE",
"136 508 LINE",
"125 549 LINE",
"127 588 LINE",
"130 622 LINE",
"122 695 LINE",
"60 723 LINE",
"49 654 LINE",
"45 585 LINE",
"58 510 LINE",
"62 486 LINE",
"69 416 LINE",
"98 352 LINE",
"108 330 LINE",
"163 255 LINE",
"188 236 LINE",
"249 231 LINE",
"320 238 LINE",
"362 257 LINE",
"402 286 LINE",
"412 288 LINE",
"425 214 LINE",
"429 180 LINE",
"422 131 LINE",
"424 89 LINE",
"428 52 LINE",
"435 44 LINE",
"432 34 LINE",
"436 10 LINE",
"517 -12 LINE",
"517 -65 LINE",
"530 -130 LINE",
"592 -85 LINE"
);
}
);
width = 600;
}
);
unicode = 04B6;
},
{
glyphname = "Cheverticalstroke-cy";
layers = (
{
layerId = "44398CD6-F961-4ECB-B01A-EEBF1DAB2450";
paths = (
{
closed = 1;
nodes = (
"507 150 LINE",
"508 180 LINE",
"510 214 LINE",
"512 254 LINE",
"500 334 LINE",
"507 384 LINE",
"499 459 LINE",
"517 519 LINE",
"517 585 LINE",
"507 612 LINE",
"502 639 LINE",
"501 698 LINE",
"425 671 LINE",
"443 549 LINE",
"420 489 LINE",
"409 447 LINE",
"395 417 LINE",
"365 364 LINE",
"340 349 LINE",
"335 403 LINE",
"333 461 LINE",
"263 494 LINE",
"258 432 LINE",
"262 379 LINE",
"260 334 LINE",
"253 332 LINE",
"241 336 LINE",
"205 354 LINE",
"179 385 LINE",
"155 421 LINE",
"147 464 LINE",
"145 483 LINE",
"143 510 LINE",
"136 566 LINE",
"139 624 LINE",
"129 678 LINE",
"56 698 LINE",
"64 639 LINE",
"64 587 LINE",
"56 563 LINE",
"69 528 LINE",
"71 477 LINE",
"80 426 LINE",
"100 366 LINE",
"135 322 LINE",
"165 290 LINE",
"213 264 LINE",
"262 249 LINE",
"264 243 LINE",
"262 219 LINE",
"264 183 LINE",
"255 146 LINE",
"261 105 LINE",
"329 124 LINE",
"336 161 LINE",
"338 203 LINE",
"340 248 LINE",
"367 269 LINE",
"396 290 LINE",
"427 311 LINE",
"436 279 LINE",
"434 230 LINE",
"436 201 LINE",
"430 180 LINE",
"438 115 LINE",
"436 54 LINE",
"459 1 LINE",
"514 18 LINE",
"508 78 LINE",
"521 109 LINE"
);
}
);
width = 600;
}
);
unicode = 04B8;
},
